<?xml version="1.0" encoding="UTF-8"?>
<svg version="1.1" xmlns="http://www.w3.org/2000/svg" width="1024" height="1024">
<path d="M0 0 C2 0 2 0 3.26953125 1.2578125 C3.77871094 1.87398438 4.28789063 2.49015625 4.8125 3.125 C7.14864208 5.89032894 9.52923822 8.58026906 12.03515625 11.19140625 C19.22707082 18.69791376 25.37175119 26.22465787 31 35 C32.01320313 36.50240234 32.01320313 36.50240234 33.046875 38.03515625 C46.81405225 59.13949192 53.74942125 83.5209067 48.96972656 108.64282227 C44.63820953 128.07386358 32.80270972 146.27267183 17.4453125 158.80859375 C15.8569935 160.07910457 15.8569935 160.07910457 14 162 C13.34 162.33 12.68 162.66 12 163 C12.00222061 163.84524734 12.00444122 164.69049469 12.00672913 165.56135559 C12.02675516 173.52185361 12.04198597 181.48234319 12.05181217 189.4428606 C12.05703371 193.53556708 12.06411817 197.62825276 12.07543945 201.72094727 C12.08629418 205.66963086 12.09228234 209.61829444 12.09487724 213.56699181 C12.09672682 215.07449344 12.1003385 216.58199395 12.10573006 218.08948708 C12.11297477 220.19876103 12.11398949 222.30795196 12.11352539 224.41723633 C12.115746 225.61858719 12.11796661 226.81993805 12.12025452 228.05769348 C12 231 12 231 11 234 C11.66 234.33 12.32 234.66 13 235 C13.59748047 234.20335937 13.59748047 234.20335937 14.20703125 233.390625 C19 227 19 227 20.640625 225.2578125 C22.65570955 221.91091919 22.66501419 218.43422414 22.9375 214.625 C24.60482629 196.70665578 30.83166977 182.08273259 42 168 C42.60457031 167.22914063 43.20914062 166.45828125 43.83203125 165.6640625 C59.80765161 146.49331807 84.96714788 135.94790749 109.375 133.375 C121.45193156 132.4485966 133.02419393 133.50967747 145 135 C141.78277984 159.6838443 130.6018305 184.51092767 114 203 C113.38769531 203.69480469 112.77539062 204.38960937 112.14453125 205.10546875 C95.91552598 222.44178355 73.40551275 232.04148085 50 234 C48.7521875 233.94972656 47.504375 233.89945313 46.21875 233.84765625 C42.43533335 233.74660345 39.59590123 233.7953278 36 235 C32.70320145 238.71279836 30.73144633 242.6004309 28.79638672 247.14306641 C28.0618236 248.85584601 27.23952851 250.53028538 26.41015625 252.19921875 C24.16218053 256.76366807 22.88952574 259.88790967 23 265 C23.73237475 264.99723462 24.46474951 264.99446924 25.21931744 264.99162006 C43.03805199 264.92537249 60.85676196 264.8757254 78.67559338 264.84456348 C87.29264434 264.82909334 95.90961312 264.80800102 104.52661133 264.77368164 C112.03702309 264.74378377 119.54737532 264.72442607 127.05784494 264.71773452 C131.03474916 264.7138229 135.01148309 264.70462709 138.98833275 264.68280983 C142.73197029 264.6624385 146.47536747 264.65616746 150.21905518 264.66067696 C152.24704555 264.65945889 154.27500978 264.64332014 156.30293274 264.6267395 C157.51303009 264.63086349 158.72312744 264.63498749 159.96989441 264.63923645 C161.01981662 264.63647107 162.06973883 264.63370569 163.15147686 264.63085651 C167.78973892 265.23193439 170.29240629 267.15481862 173.25 270.6875 C176.90296726 277.60204517 176.10141728 283.33138415 173.91015625 290.48046875 C173.68678085 291.25634842 173.46340546 292.03222809 173.23326111 292.83161926 C172.52392069 295.28800363 171.79458371 297.73780742 171.0625 300.1875 C170.33704776 302.64864068 169.61607566 305.11091917 168.90245056 307.57551575 C168.45929831 309.10254137 168.00892286 310.62749491 167.55030823 312.14994812 C166.46395621 315.8588611 165.73032964 319.12745776 166 323 C165.34 323 164.68 323 164 323 C163.67 324.98 163.34 326.96 163 329 C163.66 329.33 164.32 329.66 165 330 C164.01 330 163.02 330 162 330 C161.90357208 330.6157338 161.80714417 331.23146759 161.70779419 331.86585999 C160.42964173 339.46791233 158.52464987 346.84595419 156.45501328 354.26370049 C155.85372943 356.4193418 155.25866891 358.57662103 154.66506958 360.73439026 C153.19267595 366.08195021 151.71023217 371.42671162 150.22753906 376.77142334 C148.96755305 381.31462384 147.71167273 385.85891905 146.46139908 390.40480232 C145.87605968 392.52643546 145.28468656 394.64632614 144.69308472 396.76622009 C144.33528662 398.06468446 143.97777777 399.36322858 143.62060547 400.66186523 C143.15000198 402.35749855 143.15000198 402.35749855 142.66989136 404.08738708 C141.85057024 407.15159449 141.85057024 407.15159449 142 411 C141.34 411 140.68 411 140 411 C139.9175 411.639375 139.835 412.27875 139.75 412.9375 C138.7122154 417.17512044 137.09704967 421.16991683 135 425 C134.34 425.33 133.68 425.66 133 426 C132.31861077 427.32586988 131.65413188 428.66047258 131 430 C123.16499389 440.79539194 111.08593488 448.32831276 98 451 C96.00418978 451.10034027 94.00538978 451.14613941 92.00709534 451.15821838 C90.16216743 451.17290161 90.16216743 451.17290161 88.27996826 451.18788147 C86.91784708 451.1937874 85.55572547 451.19959773 84.19360352 451.20532227 C82.75505802 451.21490926 81.3165153 451.22491982 79.87797546 451.23532104 C75.95277223 451.2624394 72.02755711 451.28345054 68.10231137 451.30332303 C63.93211426 451.32538153 59.76195142 451.35272512 55.59178162 451.37937927 C48.52743143 451.42376452 41.46306763 451.46444368 34.39868164 451.50268555 C26.40631272 451.54596842 18.41398112 451.59362182 10.4216553 451.64421141 C1.78537279 451.69886234 -6.85092605 451.75047445 -15.48723269 451.80115461 C-18.05833817 451.81640473 -20.62944038 451.8321355 -23.20054245 451.84794998 C-40.19329736 451.95143197 -57.18422654 452.02943759 -74.17717302 451.93351042 C-76.36086993 451.92155233 -78.54456742 451.91139253 -80.72827625 451.90188122 C-82.13534364 451.89562086 -83.54241094 451.88934119 -84.94947815 451.88304138 C-85.63093362 451.88003122 -86.31238908 451.87702105 -87.01449472 451.87391967 C-91.56674986 451.85200032 -96.11848332 451.80743985 -100.67051697 451.75868225 C-102.99526615 451.74591353 -105.32001896 451.73378322 -107.64477539 451.72241211 C-108.67340509 451.70553534 -109.7020348 451.68865856 -110.7618351 451.67127037 C-118.48982514 451.65825269 -125.2495397 453.12286131 -132 457 C-133.19838209 459.32854463 -133.19838209 459.32854463 -134 462 C-134.37125 462.7425 -134.7425 463.485 -135.125 464.25 C-136.79985532 469.51383101 -136.72637753 474.29459188 -134.5625 479.375 C-134.046875 480.24125 -133.53125 481.1075 -133 482 C-132.67 482.99 -132.34 483.98 -132 485 C-130.3715005 486.19420215 -130.3715005 486.19420215 -128 487 C-126.865625 487.515625 -125.73125 488.03125 -124.5625 488.5625 C-118.99181342 489.93453947 -115.08612958 486.4979813 -110.43359375 483.765625 C-101.7194949 479.28465494 -92.45671512 479.71239885 -83 481 C-81.31254013 481.14629697 -79.62504268 481.2921614 -77.9375 481.4375 C-73.41927521 482.08296068 -73.02964047 482.90393111 -70.0625 486.0625 C-66.97231471 488.96540133 -64.38501524 489.12556691 -60.32049561 489.13371277 C-59.35886002 489.13797775 -58.39722443 489.14224274 -57.40644836 489.14663696 C-55.82612068 489.14595718 -55.82612068 489.14595718 -54.21386719 489.14526367 C-52.54758522 489.15030159 -52.54758522 489.15030159 -50.84764099 489.15544128 C-47.16404104 489.16496377 -43.4804865 489.16689519 -39.796875 489.16796875 C-37.23960349 489.17118091 -34.68233216 489.17454495 -32.12506104 489.17805481 C-26.75833638 489.18404967 -21.3916287 489.18593716 -16.02490234 489.18530273 C-9.83163262 489.18470274 -3.63845023 489.19523902 2.55479741 489.2110464 C8.52044873 489.22572778 14.48607354 489.22928994 20.45174408 489.22869301 C22.9858511 489.22987289 25.51995876 489.2342951 28.05405426 489.24202538 C31.60153926 489.2518318 35.14880039 489.24894423 38.69628906 489.24291992 C39.74174393 489.24853943 40.78719879 489.25415894 41.86433411 489.25994873 C50.69895505 489.22186039 56.97269716 487.18216743 64.86328125 483.21875 C73.09544241 480.0202017 80.43829412 479.81356262 89.125 480.875 C90.08148437 480.97941406 91.03796875 481.08382813 92.0234375 481.19140625 C94.35084031 481.44742056 96.67574104 481.71708578 99 482 C99 482.66 99 483.32 99 484 C100.44424989 484.8924801 101.933439 485.71248557 103.4375 486.5 C114.25644304 492.83527923 121.19091755 502.84447202 124.84375 514.75 C127.68344462 527.60335461 125.25840455 540.3162734 118.46484375 551.53515625 C112.78256485 559.3667605 105.59223127 565.95909973 96 568 C95.67 568.66 95.34 569.32 95 570 C83.70143791 572.68189452 71.44200398 572.05784568 61 567 C60.34 566.69191406 59.68 566.38382813 59 566.06640625 C57.64905379 565.41282348 56.32021238 564.71362831 55 564 C55 563.34 55 562.68 55 562 C53.68 562 52.36 562 51 562 C51 561.34 51 560.68 51 560 C50.01 559.67 49.02 559.34 48 559 C46.99609375 557.203125 46.99609375 557.203125 46 555 C45.0367026 553.57249521 44.05651362 552.15628899 43.0625 550.75 C36.97818289 541.5865151 36.10146174 532.67769965 35 522 C33.02 521.67 31.04 521.34 29 521 C29 520.67 29 520.34 29 520 C28.15110703 520.00222061 27.30221405 520.00444122 26.42759705 520.00672913 C18.40948055 520.02680466 10.39137255 520.04201112 2.37323666 520.05181217 C-1.74850096 520.05702044 -5.87021774 520.06408061 -9.99194336 520.07543945 C-13.97306459 520.08634158 -17.95416582 520.09229232 -21.93530083 520.09487724 C-23.45066073 520.09671832 -24.96601959 520.10031341 -26.48137093 520.10573006 C-28.61138358 520.11303782 -30.74131463 520.11398686 -32.87133789 520.11352539 C-34.0815712 520.115746 -35.2918045 520.11796661 -36.53871155 520.12025452 C-40.08906151 519.99690576 -43.49512104 519.56558998 -47 519 C-46.95359375 519.78761719 -46.9071875 520.57523438 -46.859375 521.38671875 C-46.41041159 534.93579322 -50.01906084 547.19553807 -59.15234375 557.40625 C-68.91164846 566.89665976 -80.17170121 571.3125 -93.58276367 571.3125 C-105.53041486 571.07647052 -115.13444832 567.01309479 -124 559 C-134.25385596 548.0470175 -137.4914315 537.73208108 -138 523 C-137.83677383 520.25302295 -137.48816536 517.71202979 -137 515 C-137.99 514.62875 -138.98 514.2575 -140 513.875 C-151.7466013 508.76983726 -160.24823009 498.70557954 -165 487 C-165.78055012 484.67550459 -166.40450279 482.38198884 -167 480 C-167.33 479.34 -167.66 478.68 -168 478 C-168.11076211 463.15787673 -163.04023742 451.62432111 -154.6875 439.6875 C-152.92363075 436.87837489 -152.33846852 435.27027333 -152 432 C-152.69571817 429.19959397 -152.69571817 429.19959397 -153.875 426.4375 C-155.12354457 423.28994532 -156.19053114 420.28152149 -157 417 C-157.53535968 415.14102098 -158.07917653 413.28446787 -158.62890625 411.4296875 C-158.94150391 410.36878906 -159.25410156 409.30789063 -159.57617188 408.21484375 C-160.23615958 405.98003391 -160.89762901 403.74566115 -161.56054688 401.51171875 C-161.87185547 400.45339844 -162.18316406 399.39507812 -162.50390625 398.3046875 C-162.79080322 397.33515137 -163.0777002 396.36561523 -163.37329102 395.36669922 C-164 393 -164 393 -164 391 C-164.66 390.67 -165.32 390.34 -166 390 C-166.625 386.9375 -166.625 386.9375 -167 384 C-167.66 384 -168.32 384 -169 384 C-168.979375 382.989375 -168.95875 381.97875 -168.9375 380.9375 C-168.99687734 377.19672743 -169.39795085 373.68755102 -170 370 C-170.99 370 -171.98 370 -173 370 C-172.9175 368.948125 -172.835 367.89625 -172.75 366.8125 C-173.04208784 362.35816043 -174.26915681 361.3474852 -177 358 C-176.73751465 356.96480225 -176.73751465 356.96480225 -176.46972656 355.90869141 C-175.7746607 351.60462969 -177.12632164 348.18909577 -178.421875 344.0859375 C-178.68252747 343.23448151 -178.94317993 342.38302551 -179.21173096 341.50576782 C-179.76443489 339.7104371 -180.32289745 337.91687042 -180.88671875 336.125 C-181.74772108 333.38225956 -182.58600885 330.63330383 -183.421875 327.8828125 C-183.96219817 326.13760431 -184.50382115 324.39279792 -185.046875 322.6484375 C-185.29701355 321.82652924 -185.5471521 321.00462097 -185.80487061 320.1578064 C-186.04812073 319.39336212 -186.29137085 318.62891785 -186.54199219 317.84130859 C-186.75152527 317.17022064 -186.96105835 316.49913269 -187.17694092 315.80770874 C-187.91558703 313.89462715 -187.91558703 313.89462715 -189.58900452 312.45605469 C-191.89443855 310.07699815 -191.0282565 307.21554958 -191 304 C-191.61577589 301.00643864 -192.53417389 298.12258376 -193.45703125 295.2109375 C-193.84562317 293.94297585 -193.84562317 293.94297585 -194.24206543 292.6493988 C-195.09010577 289.88847572 -195.95135489 287.13186058 -196.8125 284.375 C-197.40174815 282.46347762 -197.98987089 280.55160799 -198.5769043 278.6394043 C-199.47936425 275.70005165 -200.38247882 272.76092088 -201.28913879 269.82286072 C-204.36836577 259.84049821 -207.34742437 249.8292464 -210.3125 239.8125 C-210.79065653 238.20032397 -211.26892469 236.58818105 -211.74731445 234.97607422 C-212.83271884 231.31773029 -213.91681444 227.65900148 -215 224 C-215.66 224 -216.32 224 -217 224 C-216.938125 223.030625 -216.87625 222.06125 -216.8125 221.0625 C-216.8125 216.50673062 -217.88966143 212.04698673 -220 208 C-220.99 207.67 -221.98 207.34 -223 207 C-224.2109375 205.22265625 -224.2109375 205.22265625 -225.375 203.0625 C-226.9105756 200.51835107 -227.72144087 199.17796834 -230.25 197.5625 C-238.08670344 195.95953793 -245.89409508 195.85570613 -253.859375 195.82421875 C-256.13151993 195.80104519 -258.40365541 195.77692892 -260.67578125 195.75195312 C-264.22646689 195.71671731 -267.7767966 195.68739943 -271.32763672 195.67407227 C-274.77614006 195.65862837 -278.22363701 195.61847736 -281.671875 195.57421875 C-282.73339783 195.57612717 -283.79492065 195.57803558 -284.88861084 195.58000183 C-292.24264463 195.45770347 -292.24264463 195.45770347 -296.09082031 193.13208008 C-298.9552207 189.93325545 -300.89939968 187.24137504 -301.09765625 182.82421875 C-300.73810647 177.60636224 -299.53069194 174.00781247 -296 170 C-291.87331759 167.56821151 -288.71017532 166.60409927 -283.94140625 166.453125 C-282.1776062 166.39161255 -282.1776062 166.39161255 -280.37817383 166.32885742 C-279.11900146 166.30283447 -277.8598291 166.27681152 -276.5625 166.25 C-275.25240967 166.21688721 -273.94231934 166.18377441 -272.5925293 166.1496582 C-263.50042499 165.94897248 -254.40500699 165.94126426 -245.31295776 166.14416504 C-243.36515828 166.18635929 -241.41706038 166.21398775 -239.46899414 166.24121094 C-224.16935394 166.71776545 -210.62109875 172.8699736 -200 184 C-190.27444624 195.65040294 -186.61180111 209.96303101 -182.49584961 224.25756836 C-181.67950172 227.09025363 -180.85126823 229.91927151 -180.02148438 232.74804688 C-179.49670242 234.55188175 -178.97258888 236.35591124 -178.44921875 238.16015625 C-178.07901863 239.42570091 -178.07901863 239.42570091 -177.70133972 240.71681213 C-177.47722916 241.49870407 -177.25311859 242.28059601 -177.0222168 243.08618164 C-176.82411911 243.77168594 -176.62602142 244.45719025 -176.42192078 245.16346741 C-176 247 -176 247 -176 250 C-175.34 250.33 -174.68 250.66 -174 251 C-173.4375 253.1796875 -173.4375 253.1796875 -173 255.875 C-172.4277221 259.38020217 -172.01953816 260.97069276 -170 264 C-167.24458512 264.44914482 -167.24458512 264.44914482 -163.95101929 264.36076355 C-162.66090439 264.36488754 -161.37078949 264.36901154 -160.0415802 264.3732605 C-158.60372718 264.36264231 -157.16587625 264.35173787 -155.72802734 264.34057617 C-154.22036252 264.33973034 -152.71269645 264.34020418 -151.20503235 264.34190369 C-147.10393439 264.3427668 -143.00309799 264.32509018 -138.90206099 264.30418181 C-134.61926049 264.28546747 -130.33645445 264.28366872 -126.05361938 264.28010559 C-117.93982985 264.27076967 -109.82616113 264.24613503 -101.71242487 264.21605712 C-92.47677922 264.18256116 -83.2411279 264.16603921 -74.00543666 264.15097082 C-55.00355586 264.11958676 -36.00178763 264.0667963 -17 264 C-18.17837498 260.3958128 -19.38185751 256.99507549 -21.125 253.625 C-21.65480469 252.59246094 -21.65480469 252.59246094 -22.1953125 251.5390625 C-22.46085937 251.03117188 -22.72640625 250.52328125 -23 250 C-23.66 250 -24.32 250 -25 250 C-25.103125 249.236875 -25.20625 248.47375 -25.3125 247.6875 C-26.38096406 243.51077684 -28.47969473 242.34687018 -32 240 C-32.6875 237.375 -32.6875 237.375 -33 235 C-33.58265625 234.96036133 -34.1653125 234.92072266 -34.765625 234.87988281 C-61.78990733 232.95716461 -84.84521227 226.78175398 -106 209 C-106.83144531 208.36191406 -107.66289062 207.72382813 -108.51953125 207.06640625 C-128.80176729 190.16986631 -141.66299794 158.60286062 -145 133 C-142.69 132.67 -140.38 132.34 -138 132 C-138 131.34 -138 130.68 -138 130 C-137.21625 130.185625 -136.4325 130.37125 -135.625 130.5625 C-131.72014872 131.03377515 -128.34717604 130.73843113 -124.46484375 130.25390625 C-121.94769254 129.99461175 -119.52830352 129.89045479 -117 130 C-116.67 130.33 -116.34 130.66 -116 131 C-114.5343265 131.24961579 -113.05910529 131.44369606 -111.58203125 131.61328125 C-110.66317139 131.72486572 -109.74431152 131.8364502 -108.79760742 131.95141602 C-107.81252197 132.07057373 -106.82743652 132.18973145 -105.8125 132.3125 C-97.02607097 133.44046344 -88.2707927 134.65648806 -80 138 C-79.67 138.66 -79.34 139.32 -79 140 C-77.824375 140.37125 -77.824375 140.37125 -76.625 140.75 C-67.18510596 144.00513588 -59.52838715 149.57512237 -52 156 C-51.24976563 156.59296875 -50.49953125 157.1859375 -49.7265625 157.796875 C-36.77064759 168.43436303 -28.66949882 183.82211771 -23.76171875 199.6015625 C-23.07476174 201.98005914 -23.07476174 201.98005914 -22 204 C-21.92144683 206.35368569 -21.86199349 208.70802398 -21.8125 211.0625 C-21.48622528 218.28175756 -19.56038162 222.51139911 -15 228 C-13.35 230.31 -11.7 232.62 -10 235 C-9.67 211.24 -9.34 187.48 -9 163 C-10.32 162.34 -11.64 161.68 -13 161 C-14.71358643 159.38161281 -16.3707726 157.70328319 -18 156 C-18.57621094 155.46761719 -19.15242188 154.93523437 -19.74609375 154.38671875 C-35.93393192 139.17601367 -45.95627811 118.6063498 -47.203125 96.37890625 C-47.36687354 83.04704577 -45.40133041 70.93245148 -40.76953125 58.35546875 C-39.84472643 55.93771857 -39.84472643 55.93771857 -40 53 C-39.34 53 -38.68 53 -38 53 C-37.75378906 52.15695313 -37.50757813 51.31390625 -37.25390625 50.4453125 C-35.87063433 46.64454666 -34.03598758 43.31055721 -31.9375 39.875 C-31.54046875 39.22120361 -31.1434375 38.56740723 -30.734375 37.89379883 C-24.47233427 27.74390986 -17.07206352 18.7631145 -9 10 C-7.1265477 7.87318558 -5.26656989 5.73542815 -3.41015625 3.59375 C-2.31584855 2.3569701 -1.16771869 1.16771869 0 0 Z M21 263 C22 265 22 265 22 265 Z M-161 294 C-159.54548362 302.46212382 -159.54548362 302.46212382 -157.43359375 310.59765625 C-157.12107666 311.61851318 -156.80855957 312.63937012 -156.48657227 313.69116211 C-156.14037842 314.80370361 -155.79418457 315.91624512 -155.4375 317.0625 C-154.64102581 319.66862439 -153.84649856 322.27527324 -153.0546875 324.8828125 C-152.83053665 325.61964767 -152.6063858 326.35648285 -152.3754425 327.11564636 C-148.71086577 339.20178282 -145.19021235 351.33124441 -141.64348221 363.4523735 C-140.87324351 366.08416019 -140.10231137 368.71574353 -139.33138275 371.34732819 C-138.41979062 374.45931427 -137.50870132 377.57144748 -136.59765625 380.68359375 C-136.26464508 381.82106049 -135.93163391 382.95852722 -135.58853149 384.13046265 C-134.04267585 389.41576434 -132.50399391 394.70262555 -131 400 C-123.98316378 399.39235645 -117.44095204 397.98787799 -110.625 396.25 C-88.29058219 390.75523505 -65.90571227 387.06549066 -43 385 C-42.21544434 384.92797363 -41.43088867 384.85594727 -40.62255859 384.78173828 C-17.6484982 382.7782174 5.49585412 383.93799491 28.43603516 385.73779297 C30.92373708 385.92081748 33.41330741 386.07937149 35.90380859 386.21923828 C41.88433347 386.55815207 47.6377513 386.91463811 53.45117188 388.38427734 C56.94920416 389.22930009 60.48048925 389.88324597 64.015625 390.55078125 C65.53127774 390.84034965 67.04690216 391.1300663 68.5625 391.41992188 C70.88436473 391.8627692 73.20644646 392.30429406 75.52929688 392.74194336 C88.11581285 395.11749918 100.56147925 397.94439162 113 401 C114.93888059 393.76769519 116.87739969 386.53529357 118.81545925 379.30276871 C119.71541859 375.94431127 120.61550171 372.58588712 121.51586914 369.22753906 C122.55131408 365.36533349 123.58621805 361.50298314 124.62109375 357.640625 C125.10551186 355.83419525 125.10551186 355.83419525 125.59971619 353.99127197 C125.89995193 352.87041199 126.20018768 351.749552 126.50952148 350.59472656 C126.77377426 349.60877502 127.03802704 348.62282349 127.31028748 347.60699463 C127.89190091 345.40859597 128.449496 343.20629615 129 341 C129.40186479 339.48141816 129.80716674 337.96374355 130.21508789 336.44677734 C130.45526138 335.55260101 130.69543488 334.65842468 130.94288635 333.7371521 C131.20021042 332.77975128 131.45753448 331.82235046 131.72265625 330.8359375 C132.26640864 328.8073272 132.81002434 326.77868026 133.35351562 324.75 C134.21042074 321.55207053 135.06805529 318.3543459 135.92797852 315.15722656 C136.75765693 312.07157131 137.58419329 308.98508906 138.41015625 305.8984375 C138.66950455 304.93698822 138.92885284 303.97553894 139.19606018 302.98495483 C139.55159218 301.65314682 139.55159218 301.65314682 139.91430664 300.29443359 C140.2295504 299.12006241 140.2295504 299.12006241 140.55116272 297.92196655 C141.07580381 296.00434698 141.07580381 296.00434698 141 294 C117.9 294 94.8 294 71 294 C71.99 294.66 72.98 295.32 74 296 C72.68 296 71.36 296 70 296 C70 295.34 70 294.68 70 294 C66.85418577 293.97111486 63.70840531 293.95324077 60.5625 293.9375 C59.66466797 293.92912109 58.76683594 293.92074219 57.84179688 293.91210938 C56.98779297 293.90888672 56.13378906 293.90566406 55.25390625 293.90234375 C54.46314697 293.89710693 53.6723877 293.89187012 52.85766602 293.88647461 C50.98407311 293.79504091 50.98407311 293.79504091 50 295 C50 294.67 50 294.34 50 294 C39.11 294 28.22 294 17 294 C17 294.66 17 295.32 17 296 C16.34 296 15.68 296 15 296 C14.99413376 296.68602798 14.98826752 297.37205597 14.98222351 298.07887268 C14.91818078 305.23327061 14.83373239 312.38722326 14.73754883 319.54125977 C14.702711 322.20959411 14.67629674 324.8776339 14.65356445 327.54614258 C14.61994585 331.38653143 14.56762359 335.22628502 14.51171875 339.06640625 C14.50532883 340.25520889 14.4989389 341.44401154 14.49235535 342.6688385 C14.38338866 348.83791613 14.11802738 353.60598562 11 359 C6.5968871 362.43657592 2.68331588 362.20996754 -2.6328125 361.8125 C-5.97157508 360.66652208 -7.04134153 358.8978172 -9 356 C-11.76680198 343.80471118 -10.11112643 329.56786196 -10.0625 317.125 C-10.05747407 314.87630308 -10.0529131 312.62760507 -10.04882812 310.37890625 C-10.03791117 304.9192467 -10.02126001 299.45962857 -10 294 C-11.11560303 294 -12.23120605 294 -13.38061523 294 C-49.25374349 294 -85.12687174 294 -121 294 C-121 294.33 -121 294.66 -121 295 C-119.35 295 -117.7 295 -116 295 C-117 296 -117 296 -119.5625 296.0625 C-120.7690625 296.0315625 -120.7690625 296.0315625 -122 296 C-122 295.34 -122 294.68 -122 294 C-134.87 294 -147.74 294 -161 294 Z M-190 307 C-189 310 -189 310 -189 310 Z M-172 367 C-171 369 -171 369 -171 369 Z M-107 518 C-108.6614632 522.9843896 -109.15559845 529.04235445 -107.2109375 534.01953125 C-105.40047804 536.85960316 -104.22524011 537.92491996 -101 539 C-100.01 538.67 -99.02 538.34 -98 538 C-98 538.99 -98 539.98 -98 541 C-92.42527156 542.5723593 -88.05414829 541.59688282 -83 539 C-79.06076712 535.58227313 -77.19765286 532.01605919 -76.6875 526.8125 C-77.11910714 521.54689288 -78.56384387 517.30691707 -82.47265625 513.60546875 C-90.96308827 507.92510879 -100.69098941 510.36277666 -107 518 Z M66.625 517.6875 C64.51877481 521.98095904 64.30866746 525.30399724 65 530 C66.68782126 534.70813298 68.78448797 537.31740144 73 540 C77.72783014 541.80517151 81.11811688 542.45417795 86 541 C90.7324552 538.44447419 93.65530102 535.86975942 96 531 C96.81503266 525.89357088 96.61497311 522.16632831 94.1875 517.5625 C89.89253171 512.42255339 89.89253171 512.42255339 83.51171875 510.76171875 C75.74159726 510.55752469 71.90546813 511.71223343 66.625 517.6875 Z M33 519 C34 521 34 521 34 521 Z " fill="#125425" transform="translate(529,110)"/>
<path d="M0 0 C2 0 2 0 3.26953125 1.2578125 C3.77871094 1.87398438 4.28789063 2.49015625 4.8125 3.125 C7.14864208 5.89032894 9.52923822 8.58026906 12.03515625 11.19140625 C19.22707082 18.69791376 25.37175119 26.22465787 31 35 C31.67546875 36.00160156 32.3509375 37.00320312 33.046875 38.03515625 C46.81405225 59.13949192 53.74942125 83.5209067 48.96972656 108.64282227 C44.63820953 128.07386358 32.80270972 146.27267183 17.4453125 158.80859375 C15.8569935 160.07910457 15.8569935 160.07910457 14 162 C13.01 162.33 12.02 162.66 11 163 C9.07655443 161.07655443 9.81549295 157.48075717 9.7890625 154.85546875 C9.7632797 153.31338391 9.73679856 151.77131062 9.7097168 150.22924805 C9.69645355 149.40854828 9.68319031 148.58784851 9.66952515 147.74227905 C11.59748243 102.58090134 11.59748243 102.58090134 1 62 C0.36763832 65.64459398 -0.25439364 69.29088747 -0.875 72.9375 C-1.04902344 73.93974609 -1.22304688 74.94199219 -1.40234375 75.97460938 C-4.55433394 94.59469956 -5.65706822 113.13947747 -6.52801514 131.98101807 C-6.69142949 135.48820473 -6.86166284 138.99506048 -7.03125 142.50195312 C-7.36068114 149.33433363 -7.68279318 156.16704129 -8 163 C-12.47798263 161.35138948 -14.71850555 159.51043592 -18 156 C-18.86238281 155.20142578 -18.86238281 155.20142578 -19.7421875 154.38671875 C-35.9404049 139.19682412 -45.95704543 118.59267091 -47.203125 96.37890625 C-47.36687354 83.04704577 -45.40133041 70.93245148 -40.76953125 58.35546875 C-39.84472643 55.93771857 -39.84472643 55.93771857 -40 53 C-39.34 53 -38.68 53 -38 53 C-37.75378906 52.15695313 -37.50757813 51.31390625 -37.25390625 50.4453125 C-35.87063433 46.64454666 -34.03598758 43.31055721 -31.9375 39.875 C-31.54046875 39.22120361 -31.1434375 38.56740723 -30.734375 37.89379883 C-24.47233427 27.74390986 -17.07206352 18.7631145 -9 10 C-7.1265477 7.87318558 -5.26656989 5.73542815 -3.41015625 3.59375 C-2.31584855 2.3569701 -1.16771869 1.16771869 0 0 Z " fill="#69AA35" transform="translate(529,110)"/>
<path d="M0 0 C2.48770193 0.18302452 4.97727226 0.34157852 7.46777344 0.48144531 C13.44707516 0.82028979 19.19864872 1.17683758 25.01074219 2.64648438 C28.52171071 3.49317233 32.06633669 4.14596839 35.61474609 4.81298828 C37.12472617 5.09990714 38.63465342 5.38710412 40.14453125 5.67456055 C40.91871399 5.82176544 41.69289673 5.96897034 42.49053955 6.12063599 C66.42576924 10.67580575 66.42576924 10.67580575 78.10424805 14.01538086 C79.90379119 14.51179952 81.73254746 14.90068611 83.56396484 15.26220703 C84.22396484 14.60220703 84.88396484 13.94220703 85.56396484 13.26220703 C85.19871875 20.20188284 81.50068367 26.50834051 76.49365234 31.20361328 C70.62289547 35.69875 66.19379592 36.40770493 58.85115051 36.38246155 C57.95020572 36.38331597 57.04926093 36.3841704 56.12101477 36.38505071 C53.09001527 36.38670308 50.05907061 36.38118807 47.02807617 36.37573242 C44.86017356 36.37545047 42.69227085 36.37560844 40.52436829 36.37617493 C34.62803145 36.3764626 28.73171483 36.37057076 22.8353827 36.36360097 C16.67742149 36.35736239 10.51945985 36.35676323 4.36149597 36.35557556 C-7.30442823 36.35246374 -18.9703431 36.34425235 -30.63626319 36.33422607 C-43.915402 36.32306032 -57.1945402 36.31755332 -70.47368276 36.31253064 C-97.79447208 36.30206962 -125.11525309 36.28447305 -152.43603516 36.26220703 C-153.08477487 35.00639282 -153.72869013 33.74808571 -154.37060547 32.48876953 C-154.72971008 31.7883252 -155.0888147 31.08788086 -155.45880127 30.36621094 C-156.83088123 27.41209562 -157.52332689 24.4432067 -158.18603516 21.26220703 C-158.42837891 20.12783203 -158.67072266 18.99345703 -158.92041016 17.82470703 C-159.09056641 16.97908203 -159.26072266 16.13345703 -159.43603516 15.26220703 C-141.19712611 10.6955516 -122.97085896 6.47245691 -104.43603516 3.26220703 C-103.54577637 3.10768066 -102.65551758 2.9531543 -101.73828125 2.79394531 C-68.04467319 -2.89309049 -33.95558653 -2.66402426 0 0 Z " fill="#6BAC36" transform="translate(557.43603515625,494.73779296875)"/>
<path d="M0 0 C0.78375 0.185625 1.5675 0.37125 2.375 0.5625 C6.27985128 1.03377515 9.65282396 0.73843113 13.53515625 0.25390625 C16.05230746 -0.00538825 18.47169648 -0.10954521 21 0 C21.33 0.33 21.66 0.66 22 1 C23.4656735 1.24961579 24.94089471 1.44369606 26.41796875 1.61328125 C27.33682861 1.72486572 28.25568848 1.8364502 29.20239258 1.95141602 C30.18747803 2.07057373 31.17256348 2.18973145 32.1875 2.3125 C40.97392903 3.44046344 49.7292073 4.65648806 58 8 C58.495 8.99 58.495 8.99 59 10 C59.78375 10.2475 60.5675 10.495 61.375 10.75 C70.81489404 14.00513588 78.47161285 19.57512237 86 26 C86.75023437 26.59296875 87.50046875 27.1859375 88.2734375 27.796875 C101.22935241 38.43436303 109.33050118 53.82211771 114.23828125 69.6015625 C114.92523826 71.98005914 114.92523826 71.98005914 116 74 C116.20758661 76.46220784 116.37387758 78.90860603 116.5 81.375 C116.76579483 87.25877062 116.76579483 87.25877062 118 93 C114.90342585 90.74794608 112.38303232 88.35655451 109.9375 85.4375 C105.55719425 80.32872008 100.62869217 75.87232649 95.6015625 71.41894531 C94.55619099 70.49277165 93.51434491 69.5625991 92.4765625 68.62792969 C79.33405047 56.82180004 61.58564106 41.9919927 44 38 C52.36266767 47.01152509 60.81730433 55.92044733 69.5 64.625 C70.22815918 65.3576709 70.95631836 66.0903418 71.70654297 66.84521484 C75.74353463 70.87113867 79.89369931 74.68573575 84.20947266 78.40966797 C91.86797373 85.21188722 98.95710691 93.72386381 105 102 C105 102.66 105 103.32 105 104 C77.80729986 105.31813807 54.23351355 96.69242289 33 80 C31.948125 79.21625 30.89625 78.4325 29.8125 77.625 C9.81818773 58.96364188 -3.48938299 29.93490637 -7 3 C-3.535 2.505 -3.535 2.505 0 2 C0 1.34 0 0.68 0 0 Z " fill="#69AA35" transform="translate(391,240)"/>
<path d="M0 0 C-3.21722016 24.6838443 -14.3981695 49.51092767 -31 68 C-31.61230469 68.69480469 -32.22460938 69.38960938 -32.85546875 70.10546875 C-49.33281243 87.70706615 -73.06000691 98.1650966 -97.02734375 99.07714844 C-101.0206694 99.15571195 -105.00785808 99.11072196 -109 99 C-99.03870913 85.49188587 -88.25133374 73.13413092 -76.29003906 61.37646484 C-68.14833449 53.36825854 -60.73444227 45.22648257 -54 36 C-74.95132441 46.76909812 -93.00004139 59.67868246 -110 76 C-110.90492188 76.86367188 -111.80984375 77.72734375 -112.7421875 78.6171875 C-117.6090158 83.26744024 -117.6090158 83.26744024 -121 89 C-121.66 88.67 -122.32 88.34 -123 88 C-121.18946187 66.98822851 -116.31897608 49.7945946 -103 33 C-102.39542969 32.22914063 -101.79085937 31.45828125 -101.16796875 30.6640625 C-85.19234839 11.49331807 -60.03285212 0.94790749 -35.625 -1.625 C-23.54806844 -2.5514034 -11.97580607 -1.49032253 0 0 Z " fill="#69AA35" transform="translate(674,245)"/>
<path d="M0 0 C1.07694122 -0.00281982 2.15388245 -0.00563965 3.26345825 -0.00854492 C5.05105057 -0.00550858 5.05105057 -0.00550858 6.87475586 -0.00241089 C8.12175262 -0.00416321 9.36874939 -0.00591553 10.65353394 -0.00772095 C14.08320565 -0.01137925 17.5128174 -0.01050596 20.94248581 -0.00734186 C24.52415805 -0.00481797 28.10582766 -0.00715588 31.6875 -0.00872803 C37.70337385 -0.01054964 43.71923543 -0.00814364 49.73510742 -0.00338745 C56.69982288 0.00205516 63.66450907 0.00029249 70.62922382 -0.00521386 C76.5986395 -0.00974523 82.56804635 -0.01039542 88.53746319 -0.00777519 C92.10726591 -0.00621255 95.67705485 -0.00601829 99.24685669 -0.00931168 C103.22439724 -0.01272461 107.20190475 -0.00800025 111.17944336 -0.00241089 C112.37117157 -0.00443512 113.56289978 -0.00645935 114.79074097 -0.00854492 C116.4061528 -0.00431519 116.4061528 -0.00431519 118.05419922 0 C118.99589462 0.00037703 119.93759003 0.00075405 120.90782166 0.0011425 C123.02709961 0.12698364 123.02709961 0.12698364 124.02709961 1.12698364 C124.21459961 4.06448364 124.21459961 4.06448364 124.02709961 7.12698364 C123.36709961 7.78698364 122.70709961 8.44698364 122.02709961 9.12698364 C122.02709961 7.14698364 122.02709961 5.16698364 122.02709961 3.12698364 C113.58652935 3.21126445 105.14617264 3.30609925 96.70588112 3.41451073 C92.78694848 3.46451366 88.86804332 3.51084307 84.94897461 3.54885864 C81.16873728 3.58566134 77.3887277 3.63200707 73.60868454 3.68504715 C72.16459513 3.70361791 70.72045684 3.71871592 69.27629471 3.73032761 C67.25774898 3.74714357 65.23932773 3.7773147 63.22094727 3.80813599 C62.07067047 3.82145966 60.92039368 3.83478333 59.73526001 3.84851074 C56.87901032 3.85436002 56.87901032 3.85436002 55.02709961 6.12698364 C52.90209961 5.75198364 52.90209961 5.75198364 51.02709961 5.12698364 C51.02709961 4.46698364 51.02709961 3.80698364 51.02709961 3.12698364 C49.9069043 3.21077271 48.78670898 3.29456177 47.63256836 3.38088989 C46.15993405 3.48406809 44.68727653 3.58691543 43.21459961 3.68948364 C42.47661133 3.74555786 41.73862305 3.80163208 40.97827148 3.85940552 C37.65921445 4.08468088 35.21477397 4.18954176 32.02709961 3.12698364 C32.02709961 3.78698364 32.02709961 4.44698364 32.02709961 5.12698364 C30.96233398 4.96198364 29.89756836 4.79698364 28.80053711 4.62698364 C23.09070514 3.91231098 17.39623608 4.0576937 11.65209961 4.12698364 C9.4985031 4.15240981 7.34484918 4.1734711 5.19116211 4.18948364 C3.77504639 4.20688599 3.77504639 4.20688599 2.33032227 4.22463989 C0.02709961 4.12698364 0.02709961 4.12698364 -1.97290039 3.12698364 C-1.97290039 3.78698364 -1.97290039 4.44698364 -1.97290039 5.12698364 C-2.63290039 5.12698364 -3.29290039 5.12698364 -3.97290039 5.12698364 C-3.97290039 23.60698364 -3.97290039 42.08698364 -3.97290039 61.12698364 C-4.63290039 61.12698364 -5.29290039 61.12698364 -5.97290039 61.12698364 C-5.99602831 53.32123169 -6.01381777 45.5154877 -6.02471256 37.70971012 C-6.02994041 34.08552405 -6.03703626 30.46136134 -6.04833984 26.83718872 C-6.05917223 23.3423839 -6.06517797 19.84760161 -6.06777763 16.3527813 C-6.0705359 14.36458975 -6.07834727 12.37640733 -6.0861969 10.38822937 C-6.08627243 9.18705978 -6.08634796 7.9858902 -6.08642578 6.74832153 C-6.08864639 5.68464859 -6.090867 4.62097565 -6.09315491 3.52507019 C-5.87608829 -0.80361988 -3.82781188 0.00153254 0 0 Z " fill="#204F1F" transform="translate(547.972900390625,400.8730163574219)"/>
<path d="M0 0 C71.28 0 142.56 0 216 0 C216 0.33 216 0.66 216 1 C208.87669988 2.09390631 201.85248508 2.17868322 194.65405273 2.22119141 C193.31355469 2.23243183 191.97305989 2.24406508 190.63256836 2.25605774 C186.99519227 2.28729466 183.35779807 2.31250871 179.72036624 2.3362546 C176.63835672 2.3568859 173.55637139 2.38037377 170.47438198 2.40379179 C163.13862821 2.45943215 155.80285131 2.51006071 148.46704102 2.55761719 C141.86477572 2.60049559 135.26258247 2.64893607 128.66040039 2.703125 C96.1977677 2.96855305 63.74538406 3.1775497 31.28515625 2.5859375 C30.13122313 2.56568134 28.97729 2.54542519 27.78838921 2.52455521 C24.57889613 2.46572031 21.36966663 2.39963092 18.16040039 2.32958984 C17.23839655 2.31167767 16.31639271 2.29376549 15.36644936 2.27531052 C10.1767498 2.14781059 5.1402697 1.732323 0 1 C0 0.67 0 0.34 0 0 Z " fill="#093111" transform="translate(408,559)"/>
<path d="M0 0 C19.91417064 -0.04666904 39.82833023 -0.08196379 59.74254417 -0.10362434 C68.9885376 -0.11394791 78.2344971 -0.12802881 87.48046875 -0.15087891 C95.53690635 -0.17077979 103.59331938 -0.18370857 111.64978087 -0.18817699 C115.9177394 -0.19078998 120.18562764 -0.19695393 124.45356369 -0.21146011 C128.46719002 -0.22499195 132.48071681 -0.22923161 136.49436378 -0.22621536 C137.97063169 -0.22676751 139.44690278 -0.23077109 140.92315102 -0.23841095 C142.93241621 -0.2483029 144.9417343 -0.24479097 146.95101929 -0.24050903 C148.64066583 -0.24327441 148.64066583 -0.24327441 150.36444664 -0.24609566 C153 0 153 0 155 2 C155.125 4.625 155.125 4.625 155 7 C154.34 7 153.68 7 153 7 C153 5.35 153 3.7 153 2 C102.84 2 52.68 2 1 2 C1 3.65 1 5.3 1 7 C0.34 6.34 -0.32 5.68 -1 5 C-0.625 2.375 -0.625 2.375 0 0 Z " fill="#072D12" transform="translate(366,401)"/>
<path d="M0 0 C1.32935326 -0.002062 1.32935326 -0.002062 2.68556213 -0.00416565 C3.66019913 -0.00057037 4.63483612 0.0030249 5.63900757 0.00672913 C6.66342453 0.0065831 7.68784149 0.00643707 8.74330139 0.00628662 C12.14133801 0.00698526 15.53932033 0.01477541 18.93734741 0.02259827 C21.2886146 0.02446262 23.63988218 0.02588644 25.9911499 0.02688599 C32.18898587 0.03070981 38.38679851 0.04053895 44.58462524 0.05158997 C50.90532109 0.06180699 57.22602069 0.06638423 63.54672241 0.07142639 C75.95558684 0.08216132 88.36443394 0.09923614 100.77328491 0.12025452 C100.77328491 0.45025452 100.77328491 0.78025452 100.77328491 1.12025452 C105.06328491 1.45025452 109.35328491 1.78025452 113.77328491 2.12025452 C113.77328491 2.45025452 113.77328491 2.78025452 113.77328491 3.12025452 C98.42255409 3.16693197 83.07182653 3.20222245 67.72104073 3.22387886 C60.59373734 3.23420064 53.466478 3.24827812 46.33920288 3.27113342 C39.46630305 3.29316254 32.5934491 3.30480977 25.7205162 3.310009 C23.0929581 3.31371615 20.46540261 3.32095481 17.83786392 3.33171463 C14.16930894 3.34614551 10.50094555 3.34823599 6.83236694 3.3473053 C5.18807205 3.35809113 5.18807205 3.35809113 3.51055908 3.36909485 C2.01712982 3.36497086 2.01712982 3.36497086 0.49353027 3.36076355 C-0.80896321 3.36352893 -0.80896321 3.36352893 -2.1377697 3.36635017 C-4.22671509 3.12025452 -4.22671509 3.12025452 -6.22671509 1.12025452 C-3.90558721 -0.04030942 -2.58343884 -0.00308286 0 0 Z " fill="#275D23" transform="translate(468.2267150878906,598.8797454833984)"/>
<path d="M0 0 C-22.44 0 -44.88 0 -68 0 C-56.9534266 -7.36438227 -11.0465734 -7.36438227 0 0 Z " fill="#64A22D" transform="translate(551,496)"/>
<path d="M0 0 C0.33 0 0.66 0 1 0 C2.09621473 44.97104313 2.09621473 44.97104313 2.125 59.125 C2.12951172 60.020979 2.13402344 60.91695801 2.13867188 61.84008789 C2.13064273 65.15311455 2.05508409 67.83474774 1 71 C1.66 71.33 2.32 71.66 3 72 C1.68 73.65 0.36 75.3 -1 77 C-1.20900322 25.02893891 -1.20900322 25.02893891 0 0 Z " fill="#15421A" transform="translate(539,273)"/>
<path d="M0 0 C0.33 0 0.66 0 1 0 C1 22.44 1 44.88 1 68 C0.34 68 -0.32 68 -1 68 C-2.16333037 60.75644197 -2.05448101 53.66956716 -1.9140625 46.34765625 C-1.89282318 45.05178085 -1.87158386 43.75590546 -1.84970093 42.42076111 C-1.80448269 39.69506144 -1.755281 36.96947198 -1.703125 34.24389648 C-1.63644056 30.74455123 -1.57934508 27.24512582 -1.52509499 23.74556828 C-1.4721255 20.40450719 -1.41156357 17.06359859 -1.3515625 13.72265625 C-1.33171295 12.46236099 -1.3118634 11.20206573 -1.29141235 9.90357971 C-1.26823944 8.74825241 -1.24506653 7.59292511 -1.22119141 6.40258789 C-1.20263092 5.38080948 -1.18407043 4.35903107 -1.16494751 3.30628967 C-1 1 -1 1 0 0 Z " fill="#1E4F1C" transform="translate(521,280)"/>
<path d="M0 0 C5.77403609 0.85968982 8.69077739 5.56436892 12 10 C19.1731183 21.59339514 21.12791896 32.57384467 19 46 C18.17956126 49.12198533 17.17512489 51.98554919 16 55 C15.34 55 14.68 55 14 55 C14.144375 54.2471875 14.28875 53.494375 14.4375 52.71875 C17.01711809 37.95760205 17.99050717 24.79685662 9.5078125 11.6953125 C8.07331929 9.72567156 6.57650677 7.85714148 5 6 C4.26136719 5.09894531 4.26136719 5.09894531 3.5078125 4.1796875 C2.35177369 2.77545957 1.17798716 1.38586725 0 0 Z " fill="#1B4B1E" transform="translate(635,600)"/>
<path d="M0 0 C8.33379501 3.29647892 13.01908779 14.2872334 16.68359375 21.92578125 C18.46059903 26.07564226 19.89816669 30.29283972 21.23828125 34.6015625 C21.92523826 36.98005914 21.92523826 36.98005914 23 39 C23.0716735 41.55157655 23.09308442 44.07472971 23.0625 46.625 C23.05798828 47.33140625 23.05347656 48.0378125 23.04882812 48.765625 C23.03703875 50.51045275 23.01910324 52.255237 23 54 C22.34 53.67 21.68 53.34 21 53 C19.59312997 48.53111872 18.91591098 44.41810643 18.625 39.75 C18.22044376 34.29230733 16.71147131 29.5555923 14.83984375 24.43359375 C14 22 14 22 14 20 C13.34 20 12.68 20 12 20 C11.72027344 19.38253906 11.44054687 18.76507813 11.15234375 18.12890625 C8.44829022 12.41648449 5.3756307 7.59218309 1.35546875 2.71484375 C0 1 0 1 0 0 Z " fill="#5E9D2D" transform="translate(484,275)"/>
<path d="M0 0 C4.62675657 1.3922459 8.64686231 3.29520984 12.875 5.625 C14.02742188 6.25664062 15.17984375 6.88828125 16.3671875 7.5390625 C17.67042969 8.26222656 17.67042969 8.26222656 19 9 C15.71023192 10.09658936 14.28696233 9.79953138 11 9 C16.63468283 15.7116188 22.75936424 21.86092974 29 28 C28.67 28.66 28.34 29.32 28 30 C24.80823908 26.83760418 21.6223919 23.66931241 18.4375 20.5 C17.54224609 19.613125 16.64699219 18.72625 15.72460938 17.8125 C2.13765967 4.27531934 2.13765967 4.27531934 0 0 Z " fill="#07381F" transform="translate(433,276)"/>
<path d="M0 0 C0.33 0 0.66 0 1 0 C1 14.52 1 29.04 1 44 C0.34 43.67 -0.32 43.34 -1 43 C-4.23663276 29.25957789 -1.77162411 13.80917724 0 0 Z " fill="#114116" transform="translate(520,421)"/>
<path d="M0 0 C3.10465605 5.58838089 3.10585301 10.75467219 3 17 C2.36578125 17.21398437 1.7315625 17.42796875 1.078125 17.6484375 C-1.25613111 18.85438953 -1.25613111 18.85438953 -1.828125 21.6015625 C-1.96734375 22.59929687 -2.1065625 23.59703125 -2.25 24.625 C-2.39953125 25.62789062 -2.5490625 26.63078125 -2.703125 27.6640625 C-2.80109375 28.43492187 -2.8990625 29.20578125 -3 30 C-3.33 30 -3.66 30 -4 30 C-4.14516216 23.67597903 -3.6820934 17.84264892 -2.5625 11.625 C-2.42779297 10.83222656 -2.29308594 10.03945312 -2.15429688 9.22265625 C-1.60584439 6.06035947 -1.01632604 3.04897813 0 0 Z " fill="#0E4521" transform="translate(530,169)"/>
<path d="M0 0 C0.66 0 1.32 0 2 0 C2 10.56 2 21.12 2 32 C1.34 31.67 0.68 31.34 0 31 C-0.99974668 26.03290415 -1.15889191 21.11239439 -1.125 16.0625 C-1.12306641 15.36318359 -1.12113281 14.66386719 -1.11914062 13.94335938 C-1.07944138 9.21032663 -0.77739563 4.66437376 0 0 Z " fill="#66A22E" transform="translate(483,186)"/>
<path d="M0 0 C2.77909318 1.10952389 5.5532576 2.22781195 8.3203125 3.3671875 C18.67782702 7.51841356 29.0418448 9.9751235 40 12 C40 12.33 40 12.66 40 13 C27.32993847 14.23143147 11.74814122 9.82771266 1 3 C0.67 2.01 0.34 1.02 0 0 Z " fill="#629F2D" transform="translate(440,329)"/>
<path d="M0 0 C0.33 0.99 0.66 1.98 1 3 C0.2884375 3.99 0.2884375 3.99 -0.4375 5 C-2.80978296 9.55478328 -2.56908296 13.96171888 -2 19 C-0.53820522 22.34124522 1.30872246 24.56503461 4 27 C3.34 27.33 2.68 27.66 2 28 C1.34 27.67 0.68 27.34 0 27 C0 26.34 0 25.68 0 25 C-0.66 25 -1.32 25 -2 25 C-5.3893242 19.45383312 -6.58279847 15.81496046 -5.625 9.33984375 C-4.60883284 5.53556796 -2.79723213 2.79723213 0 0 Z " fill="#164218" transform="translate(424,623)"/>
<path d="M0 0 C5.77335374 0.85958822 8.69216192 5.56420181 12 10 C16.10563761 16.6175256 18.90680603 22.14101441 18 30 C16.33901347 26.82902572 15.04590123 23.58478582 13.75 20.25 C11.49217018 14.79136436 8.80632329 10.4838887 5 6 C4.26136719 5.09894531 4.26136719 5.09894531 3.5078125 4.1796875 C2.35177369 2.77545957 1.17798716 1.38586725 0 0 Z " fill="#164017" transform="translate(635,600)"/>
<path d="M0 0 C3.44140914 1.14713638 3.72354602 1.76860135 5.625 4.6875 C10.50072957 11.43851017 17.3527479 15.07126515 25 18 C25 18.33 25 18.66 25 19 C20.02693484 18.50269348 16.36200187 17.44697666 12 15 C12 14.34 12 13.68 12 13 C10.68 13 9.36 13 8 13 C8 12.34 8 11.68 8 11 C7.01 10.67 6.02 10.34 5 10 C4 8.1875 4 8.1875 3 6 C2.195625 4.948125 2.195625 4.948125 1.375 3.875 C0 2 0 2 0 0 Z " fill="#1C461A" transform="translate(572,659)"/>
<path d="M0 0 C6.89602654 2.29867551 11.23018174 10.53406003 15.375 16.25 C16.03640991 17.15335083 16.03640991 17.15335083 16.71118164 18.07495117 C18.76963921 20.96258231 20.52311489 23.43219287 21 27 C17.8447144 24.00816387 15.30433173 20.82700319 12.75 17.3125 C9.21803109 12.52706285 5.50471938 8.0751984 1.43359375 3.7421875 C0 2 0 2 0 0 Z " fill="#65A02B" transform="translate(540,122)"/>
<path d="M0 0 C0.66 0.33 1.32 0.66 2 1 C-2.82836153 5.93954091 -8.22627556 9.53176406 -14.1875 12.9375 C-14.87650391 13.3389624 -15.56550781 13.7404248 -16.27539062 14.15405273 C-19.97505989 16.21385166 -22.6380831 17.5505332 -27 17 C-24.24996534 14.24996534 -20.90843786 12.95977813 -17.4375 11.3125 C-11.0112244 8.19725349 -5.36701107 4.77067651 0 0 Z " fill="#639F2D" transform="translate(632,320)"/>
<path d="M0 0 C2.64441225 2.56885761 5.00178658 5.00233247 7.25 7.9375 C9.98247244 11.3355747 13.40196376 13.37733915 17.109375 15.60546875 C19 17 19 17 20 20 C11.61379531 16.96386965 4.34813739 10.84369883 0 3 C0 2.01 0 1.02 0 0 Z " fill="#1D451A" transform="translate(398,657)"/>
<path d="M0 0 C2.13923746 2.13923746 2.85019254 3.75384117 4.0625 6.5 C6.62916629 11.80290212 10.0589455 15.73055225 14.109375 19.96875 C16 22 16 22 17 24 C10.962528 23.245316 7.52775461 17.47927741 4 13 C1.31895654 8.87531775 -0.63076224 5.0460979 0 0 Z " fill="#173D16" transform="translate(365,594)"/>
<path d="M0 0 C-5.79385906 2.61291683 -10.64831123 4.13712692 -17.08203125 4.09765625 C-18.01337891 4.09443359 -18.94472656 4.09121094 -19.90429688 4.08789062 C-20.86400391 4.07951172 -21.82371094 4.07113281 -22.8125 4.0625 C-24.28106445 4.05573242 -24.28106445 4.05573242 -25.77929688 4.04882812 C-28.18626111 4.03708684 -30.59309857 4.02066419 -33 4 C-33 3.67 -33 3.34 -33 3 C-32.23333008 2.91435791 -31.46666016 2.82871582 -30.67675781 2.74047852 C-27.20085216 2.35061058 -23.72542805 1.95660181 -20.25 1.5625 C-19.0434375 1.42779297 -17.836875 1.29308594 -16.59375 1.15429688 C-15.43359375 1.02216797 -14.2734375 0.89003906 -13.078125 0.75390625 C-11.47565918 0.57323608 -11.47565918 0.57323608 -9.84082031 0.38891602 C-7.08466308 0.07658309 -7.08466308 0.07658309 -4.80761719 -0.60961914 C-3 -1 -3 -1 0 0 Z " fill="#609E2E" transform="translate(601,339)"/>
<path d="M0 0 C0.54914063 0.6909375 1.09828125 1.381875 1.6640625 2.09375 C4.20488421 5.25490611 6.77512281 8.38736925 9.375 11.5 C9.83132813 12.05558594 10.28765625 12.61117188 10.7578125 13.18359375 C13.88469025 16.91652365 17.17867717 19.97901322 21 23 C20.01 23.33 19.02 23.66 18 24 C10.61438899 19.07625933 4.41064463 10.67068632 0 3 C0 2.01 0 1.02 0 0 Z " fill="#629F2C" transform="translate(405,295)"/>
<path d="M0 0 C-1 2 -1 2 -3.875 3.1875 C-8.00566482 5.5832856 -8.72942614 7.44088202 -10 12 C-9.94140308 14.79311962 -9.53293977 17.23840299 -9 20 C-9.99 20 -10.98 20 -12 20 C-13.26639452 14.05345182 -13.27194379 9.99363281 -10.171875 4.6640625 C-7.28594599 0.5660433 -4.96196607 -0.41349717 0 0 Z " fill="#183C15" transform="translate(241,278)"/>
<path d="M0 0 C0.66 0.33 1.32 0.66 2 1 C0.73452987 2.62918007 -0.53757728 4.25320642 -1.8125 5.875 C-2.52019531 6.77992188 -3.22789062 7.68484375 -3.95703125 8.6171875 C-6 11 -6 11 -9 13 C-8.34 11.35 -7.68 9.7 -7 8 C-9.64 8.66 -12.28 9.32 -15 10 C-12.38221206 7.0447272 -9.32416665 5.24167273 -5.9375 3.25 C-4.87402344 2.61578125 -3.81054688 1.9815625 -2.71484375 1.328125 C-1.81894531 0.88984375 -0.92304687 0.4515625 0 0 Z " fill="#0B3E20" transform="translate(619,280)"/>
<path d="M0 0 C-3.41272194 3.41272194 -8.26867241 3.70230923 -12.875 4.75 C-14.38513672 5.11931641 -14.38513672 5.11931641 -15.92578125 5.49609375 C-16.89644531 5.71910156 -17.86710937 5.94210937 -18.8671875 6.171875 C-19.75519043 6.3790918 -20.64319336 6.58630859 -21.55810547 6.79980469 C-24.36575733 7.0299861 -25.64384911 6.47576302 -28 5 C-24.83741949 4.15062123 -21.66940569 3.32351131 -18.5 2.5 C-17.1696875 2.14228516 -17.1696875 2.14228516 -15.8125 1.77734375 C-10.37168105 0.37713299 -5.61679808 -0.2624672 0 0 Z " fill="#619F2F" transform="translate(426,505)"/>
<path d="M0 0 C0.66 0 1.32 0 2 0 C0.12007913 5.09145235 -2.48239564 9.72322392 -5.078125 14.47265625 C-6.94468226 17.92021536 -8.6384056 21.31234851 -10 25 C-10.68707555 22.50935112 -11 20.62113708 -11 18 C-10.34 18 -9.68 18 -9 18 C-8.7421875 17.14148438 -8.484375 16.28296875 -8.21875 15.3984375 C-6.95438967 11.87281736 -5.38416682 8.85842187 -3.5 5.625 C-2.8915625 4.56539062 -2.283125 3.50578125 -1.65625 2.4140625 C-1.1096875 1.61742187 -0.563125 0.82078125 0 0 Z " fill="#63A12B" transform="translate(500,145)"/>
<path d="M0 0 C4.69023454 0.56606279 9.34500026 1.18537505 14 2 C14 2.66 14 3.32 14 4 C15.299375 4.4021875 15.299375 4.4021875 16.625 4.8125 C19.91791964 5.97111987 22.91127875 7.38209839 26 9 C23.39929426 9.98356157 22.25092923 10.08906564 19.58984375 9.14453125 C18.71457031 8.70496094 17.83929688 8.26539063 16.9375 7.8125 C11.40915668 5.14518611 5.79641515 3.00688262 0 1 C0 0.67 0 0.34 0 0 Z " fill="#65A32E" transform="translate(436,246)"/>
<path d="M0 0 C0.66 0 1.32 0 2 0 C1.66609516 8.68152584 -2.23666728 15.85500092 -7 23 C-7.99 22.67 -8.98 22.34 -10 22 C-9.61328125 21.50113281 -9.2265625 21.00226562 -8.828125 20.48828125 C-4.18395311 14.08530168 -1.99938285 7.6094159 0 0 Z " fill="#184117" transform="translate(479,642)"/>
<path d="M0 0 C0.33 0 0.66 0 1 0 C1.09764874 4.78478822 0.77112541 9.27685687 0 14 C-0.66 14 -1.32 14 -2 14 C-2.103125 14.721875 -2.20625 15.44375 -2.3125 16.1875 C-3.06782523 19.27746686 -4.19137976 21.39558686 -6 24 C-6.66 24.33 -7.32 24.66 -8 25 C-7.73445312 24.21367188 -7.46890625 23.42734375 -7.1953125 22.6171875 C-5.71339416 18.13268952 -4.29300241 13.63004116 -2.875 9.125 C-2.59785156 8.24585938 -2.32070313 7.36671875 -2.03515625 6.4609375 C-1.35633298 4.30742921 -0.6779593 2.1537804 0 0 Z " fill="#194218" transform="translate(671,507)"/>
<path d="M0 0 C-11.385 -0.495 -11.385 -0.495 -23 -1 C-23 -1.66 -23 -2.32 -23 -3 C-15.01537055 -4.63321966 -6.65787267 -4.99340451 0 0 Z " fill="#154117" transform="translate(623,594)"/>
<path d="M0 0 C0.99 0.33 1.98 0.66 3 1 C2.54109375 1.61746094 2.0821875 2.23492188 1.609375 2.87109375 C-2.3661755 8.35835568 -5.5428565 13.68163101 -8 20 C-8.33 20 -8.66 20 -9 20 C-8.65387682 12.03916679 -4.30712332 6.46068498 0 0 Z " fill="#143B15" transform="translate(374,550)"/>
<path d="M0 0 C0.66 0 1.32 0 2 0 C1.67 5.94 1.34 11.88 1 18 C0.01 18.33 -0.98 18.66 -2 19 C-1.85870713 16.58299013 -1.71213513 14.16649571 -1.5625 11.75 C-1.52318359 11.06808594 -1.48386719 10.38617187 -1.44335938 9.68359375 C-1.23333528 6.35551959 -0.98065998 3.19744598 0 0 Z " fill="#214D1D" transform="translate(363,571)"/>
<path d="M0 0 C2.64516087 2.64516087 2.32873984 4.00056515 2.375 7.6875 C2.30694787 13.34263223 1.30005489 16.46242452 -2 21 C-2.66 20.67 -3.32 20.34 -4 20 C-3.525625 19.113125 -3.05125 18.22625 -2.5625 17.3125 C-0.1668051 11.84308334 -0.25661017 5.88433663 0 0 Z " fill="#154019" transform="translate(625,628)"/>
<path d="M0 0 C0.33 0.66 0.66 1.32 1 2 C-1.52108103 1.85775413 -4.04180403 1.71129879 -6.5625 1.5625 C-7.26697266 1.52318359 -7.97144531 1.48386719 -8.69726562 1.44335938 C-13.1798541 1.17481721 -17.56293497 0.69383803 -22 0 C-22 -0.33 -22 -0.66 -22 -1 C-14.46214566 -2.07891919 -7.35107552 -2.31925076 0 0 Z " fill="#63A12E" transform="translate(585,498)"/>
<path d="M0 0 C6.6 0.33 13.2 0.66 20 1 C20 1.66 20 2.32 20 3 C17.22858283 3.08089542 14.45952181 3.14044062 11.6875 3.1875 C10.90181641 3.21263672 10.11613281 3.23777344 9.30664062 3.26367188 C8.54931641 3.27333984 7.79199219 3.28300781 7.01171875 3.29296875 C6.31522217 3.3086792 5.61872559 3.32438965 4.90112305 3.34057617 C3 3 3 3 0 0 Z " fill="#193B12" transform="translate(598,678)"/>
<path d="M0 0 C0.66 0 1.32 0 2 0 C4.436168 7.49701701 5.41136629 14.12309743 5 22 C4.67 22 4.34 22 4 22 C3.32838005 18.89688362 2.66356325 15.79234832 2 12.6875 C1.80921875 11.80642578 1.6184375 10.92535156 1.421875 10.01757812 C1.24140625 9.17001953 1.0609375 8.32246094 0.875 7.44921875 C0.70742188 6.66893311 0.53984375 5.88864746 0.3671875 5.0847168 C0 3 0 3 0 0 Z " fill="#639F2B" transform="translate(573,174)"/>
<path d="M0 0 C0.33 0.66 0.66 1.32 1 2 C-0.109375 4.390625 -0.109375 4.390625 -1.75 7.25 C-2.58144531 8.72146484 -2.58144531 8.72146484 -3.4296875 10.22265625 C-4.20699219 11.59744141 -4.20699219 11.59744141 -5 13 C-6.03284111 14.98652286 -7.02048805 16.98655877 -8 19 C-8.97894309 16.39949472 -9.0914976 15.25694533 -8.14453125 12.59765625 C-5.75666764 8.0530126 -3.46060769 3.84511966 0 0 Z " fill="#5E9D2D" transform="translate(567,284)"/>
<path d="M0 0 C3.20547958 1.43024761 5.5354446 3.20433073 8.125 5.5625 C10.86038045 8.07679216 10.86038045 8.07679216 14 10 C13.67 10.99 13.34 11.98 13 13 C9.23845262 11.74615087 7.72808802 9.85799698 5 7 C4.071875 6.113125 3.14375 5.22625 2.1875 4.3125 C0 2 0 2 0 0 Z " fill="#5F9B2C" transform="translate(506,259)"/>
<path d="M0 0 C0.66 0 1.32 0 2 0 C1.37968409 6.57534861 -0.14897283 12.66692592 -2 19 C-2.33 19 -2.66 19 -3 19 C-3.45510807 12.32508169 -1.7672426 6.40625443 0 0 Z " fill="#154017" transform="translate(664,425)"/>
<path d="M0 0 C2.87770272 0.52321868 5.62536554 1.18192452 8.4375 2 C11.62808387 2.89560249 14.72505681 3.52074002 18 4 C14.73306065 6.31408204 11.91722117 6.15020999 8.0390625 5.5546875 C4.77648126 4.6671654 2.63150734 3.10520587 0 1 C0 0.67 0 0.34 0 0 Z " fill="#143C17" transform="translate(597,648)"/>
<path d="M0 0 C1.58367747 0.14204741 3.16693318 0.28880153 4.75 0.4375 C5.63171875 0.51871094 6.5134375 0.59992188 7.421875 0.68359375 C10 1 10 1 12.203125 1.66015625 C12.79609375 1.77230469 13.3890625 1.88445312 14 2 C14.66 1.34 15.32 0.68 16 0 C15.67 1.98 15.34 3.96 15 6 C14.34 6 13.68 6 13 6 C13 5.34 13 4.68 13 4 C11.96875 3.87625 10.9375 3.7525 9.875 3.625 C6.37883154 3.06110186 3.31602373 2.21317941 0 1 C0 0.67 0 0.34 0 0 Z " fill="#5F9E30" transform="translate(627,508)"/>
<path d="M0 0 C2.30153291 2.30153291 2.7577028 3.84875905 3.6875 6.9375 C3.95949219 7.81277344 4.23148437 8.68804687 4.51171875 9.58984375 C5 12 5 12 4 15 C3.38125 14.05125 2.7625 13.1025 2.125 12.125 C0.18029031 9.05554891 0.18029031 9.05554891 -2 7 C-1.60467975 4.54901444 -0.78698574 2.36095721 0 0 Z " fill="#1D491C" transform="translate(354,461)"/>
<path d="M0 0 C0.66 0.33 1.32 0.66 2 1 C-2.66666667 5.66666667 -7.33333333 10.33333333 -12 15 C-11.42357255 11.17461786 -9.6992642 9.19443221 -7.125 6.375 C-6.42632813 5.59898437 -5.72765625 4.82296875 -5.0078125 4.0234375 C-3 2 -3 2 0 0 Z " fill="#5B9A29" transform="translate(582,267)"/>
<path d="M0 0 C4 0 4 0 5.484375 1.43359375 C8.84717523 6.75802745 9.65153269 10.7452862 9 17 C8.67 17 8.34 17 8 17 C7.7525 16.01 7.505 15.02 7.25 14 C5.79934625 8.91235006 3.77401644 3.77401644 0 0 Z " fill="#123B16" transform="translate(445,623)"/>
<path d="M0 0 C3.88705443 1.29568481 4.26799098 2.70483272 6.1875 6.25 C6.71730469 7.20390625 7.24710938 8.1578125 7.79296875 9.140625 C9.01747942 12.04140757 9.25504467 13.89412264 9 17 C6.57521995 14.57521995 5.45430252 12.13709971 3.9375 9.0625 C3.41027344 8.00160156 2.88304687 6.94070312 2.33984375 5.84765625 C1 3 1 3 0 0 Z " fill="#67A32D" transform="translate(561,150)"/>
<path d="M0 0 C-1.24301939 3.72905817 -2.19892849 3.96411358 -5.625 5.6875 C-10.07075013 7.82094905 -13.12704803 8.52966869 -18 8 C-17.19949219 7.60167969 -17.19949219 7.60167969 -16.3828125 7.1953125 C-14.60270086 6.30233846 -12.82742353 5.39971549 -11.0546875 4.4921875 C-10.00539063 3.95851563 -8.95609375 3.42484375 -7.875 2.875 C-6.29332031 2.06675781 -6.29332031 2.06675781 -4.6796875 1.2421875 C-2 0 -2 0 0 0 Z " fill="#163C16" transform="translate(463,671)"/>
<path d="M0 0 C2.5966562 2.5966562 3.10687691 4.93815375 4.1875 8.4375 C4.55230469 9.59121094 4.91710937 10.74492187 5.29296875 11.93359375 C6 15 6 15 5 18 C1.89570446 12.21472195 -0.40366169 6.66041783 0 0 Z " fill="#123914" transform="translate(327,372)"/>
<path d="M0 0 C0 0.66 0 1.32 0 2 C-4.95 2.33 -9.9 2.66 -15 3 C-10.33737312 -1.66262688 -6.22978364 -1.33495364 0 0 Z " fill="#123E15" transform="translate(438,591)"/>
<path d="M0 0 C1.65 0.33 3.3 0.66 5 1 C5.33 1.99 5.66 2.98 6 4 C7.62332967 5.38576923 9.28724465 6.72641268 11 8 C6.14036821 7.39254603 2.2594482 5.27241033 -2 3 C-1.34 2.01 -0.68 1.02 0 0 Z " fill="#1A4B1C" transform="translate(452,592)"/>
<path d="M0 0 C3.0210943 0.61795111 5.29705277 1.1581222 7.32421875 3.5859375 C8.4375 5.4375 8.4375 5.4375 10 9 C9.67 9.99 9.34 10.98 9 12 C8.34 12 7.68 12 7 12 C6.896875 11.236875 6.79375 10.47375 6.6875 9.6875 C5.61903594 5.51077684 3.52030527 4.34687018 0 2 C0 1.34 0 0.68 0 0 Z " fill="#285C21" transform="translate(497,348)"/>
<path d="M0 0 C0.33 0 0.66 0 1 0 C1.36263859 5.8022175 0.25684543 9.63999211 -2 15 C-2.66 15 -3.32 15 -4 15 C-3.52229477 13.06213915 -3.04278429 11.12472326 -2.5625 9.1875 C-2.29566406 8.10855469 -2.02882813 7.02960938 -1.75390625 5.91796875 C-1.23922588 3.9259157 -0.65062825 1.95188476 0 0 Z " fill="#174119" transform="translate(687,448)"/>
<path d="M0 0 C0 0.66 0 1.32 0 2 C-4.29 2 -8.58 2 -13 2 C-13 1.34 -13 0.68 -13 0 C-11.20909747 -0.19466332 -9.41723495 -0.38051213 -7.625 -0.5625 C-6.12839844 -0.71912109 -6.12839844 -0.71912109 -4.6015625 -0.87890625 C-2 -1 -2 -1 0 0 Z " fill="#63A032" transform="translate(496,342)"/>
<path d="M0 0 C0.66 0.33 1.32 0.66 2 1 C-0.53363068 5.22271781 -2.56620325 7.78310162 -7 10 C-7.66 9.34 -8.32 8.68 -9 8 C-8.071875 7.4225 -7.14375 6.845 -6.1875 6.25 C-3.40184158 4.28365288 -1.81261304 2.81962028 0 0 Z " fill="#113C15" transform="translate(451,642)"/>
<path d="M0 0 C0.66 0 1.32 0 2 0 C1.88601335 1.62580966 1.75844341 3.25067157 1.625 4.875 C1.52058594 6.23238281 1.52058594 6.23238281 1.4140625 7.6171875 C1 10 1 10 -1 12 C-2.45606519 7.47907032 -1.27032841 4.48351204 0 0 Z " fill="#184519" transform="translate(648,485)"/>
<path d="M0 0 C0.33 0.99 0.66 1.98 1 3 C-0.43359375 5.26171875 -0.43359375 5.26171875 -2.4375 7.6875 C-3.09621094 8.49574219 -3.75492188 9.30398438 -4.43359375 10.13671875 C-4.95050781 10.75160156 -5.46742188 11.36648438 -6 12 C-6.66 11.67 -7.32 11.34 -8 11 C-5.36 7.37 -2.72 3.74 0 0 Z " fill="#619D2B" transform="translate(652,297)"/>
<path d="M0 0 C0.33 0 0.66 0 1 0 C1.14285714 7.42857143 1.14285714 7.42857143 0 11 C-0.66 11 -1.32 11 -2 11 C-2.33 9.02 -2.66 7.04 -3 5 C-2.34 5 -1.68 5 -1 5 C-0.67 3.35 -0.34 1.7 0 0 Z " fill="#144319" transform="translate(699,403)"/>
<path d="M0 0 C3 1 3 1 4.6875 3.6875 C6.03558623 7.08981286 6.25833766 9.38327271 6 13 C3.87838666 10.87838666 3.07013751 9.2266841 1.875 6.5 C1.52179688 5.7059375 1.16859375 4.911875 0.8046875 4.09375 C0 2 0 2 0 0 Z " fill="#163F16" transform="translate(333,303)"/>
<path d="M0 0 C4.75481646 0.57634139 7.97048212 2.55068521 12 5 C11.67 5.99 11.34 6.98 11 8 C9.16399255 6.85845641 7.33125195 5.71165684 5.5 4.5625 C4.4790625 3.92441406 3.458125 3.28632813 2.40625 2.62890625 C1.6121875 2.09136719 0.818125 1.55382812 0 1 C0 0.67 0 0.34 0 0 Z " fill="#143C16" transform="translate(308,281)"/>
<path d="M0 0 C4.93872549 4.77941176 4.93872549 4.77941176 5.09765625 7.9453125 C5.06510417 9.96354167 5.03255208 11.98177083 5 14 C3.38274466 10.99049877 2.32417377 8.02896392 1.375 4.75 C0.98441406 3.41195312 0.98441406 3.41195312 0.5859375 2.046875 C0.39257812 1.37140625 0.19921875 0.6959375 0 0 Z " fill="#133814" transform="translate(648,616)"/>
<path d="M0 0 C0.33 0.99 0.66 1.98 1 3 C-1.97 5.97 -4.94 8.94 -8 12 C-8 8.03869629 -6.65122875 7.17085599 -4 4.3125 C-3.2575 3.50425781 -2.515 2.69601562 -1.75 1.86328125 C-1.1725 1.24839844 -0.595 0.63351562 0 0 Z " fill="#7DBF38" transform="translate(619,283)"/>
<path d="M0 0 C-3.63 2.31 -7.26 4.62 -11 7 C-11 4 -11 4 -9.609375 2.578125 C-8.99578125 2.13984375 -8.3821875 1.7015625 -7.75 1.25 C-7.14671875 0.80140625 -6.5434375 0.3528125 -5.921875 -0.109375 C-4 -1 -4 -1 0 0 Z " fill="#5F9F2C" transform="translate(596,260)"/>
<path d="M0 0 C0 3 0 3 -1.8125 5.125 C-4 7 -4 7 -7 8 C-7.99 7.34 -8.98 6.68 -10 6 C-9.44570313 5.73445312 -8.89140625 5.46890625 -8.3203125 5.1953125 C-7.59585938 4.84210937 -6.87140625 4.48890625 -6.125 4.125 C-5.40570312 3.77695312 -4.68640625 3.42890625 -3.9453125 3.0703125 C-1.84864981 2.03442457 -1.84864981 2.03442457 0 0 Z " fill="#20501F" transform="translate(622,645)"/>
<path d="M0 0 C0.99 0.99 1.98 1.98 3 3 C-4.425 2.01 -4.425 2.01 -12 1 C-12 0.67 -12 0.34 -12 0 C-4.15384615 -1.38461538 -4.15384615 -1.38461538 0 0 Z " fill="#1E5020" transform="translate(444,620)"/>
<path d="M0 0 C0.98484375 0.02707031 1.9696875 0.05414062 2.984375 0.08203125 C3.73203125 0.11683594 4.4796875 0.15164063 5.25 0.1875 C5.25 0.5175 5.25 0.8475 5.25 1.1875 C3.68883181 1.52701619 2.12598662 1.85882544 0.5625 2.1875 C-0.74267578 2.4659375 -0.74267578 2.4659375 -2.07421875 2.75 C-4.68712964 3.17722047 -7.10813038 3.26366201 -9.75 3.1875 C-6.47698081 0.21840402 -4.36934238 -0.15604794 0 0 Z " fill="#194318" transform="translate(410.75,559.8125)"/>
<path d="M0 0 C4.92127034 -0.16682272 8.50343896 -0.24828052 13 2 C13 2.33 13 2.66 13 3 C11.20759337 2.88610125 9.41605165 2.75852313 7.625 2.625 C6.12839844 2.52058594 6.12839844 2.52058594 4.6015625 2.4140625 C2 2 2 2 0 0 Z " fill="#5F9E2C" transform="translate(613,505)"/>
<path d="M0 0 C4.82675589 2.41337795 7.69984002 5.86062408 11 10 C8 10 8 10 6.46484375 8.50390625 C5.96082031 7.86324219 5.45679688 7.22257812 4.9375 6.5625 C2.8328667 3.84124807 2.8328667 3.84124807 0 2 C0 1.34 0 0.68 0 0 Z " fill="#71B335" transform="translate(468,313)"/>
<path d="M0 0 C0.66 0.33 1.32 0.66 2 1 C0.35 2.98 -1.3 4.96 -3 7 C-3.33 6.34 -3.66 5.68 -4 5 C-5.32 5.33 -6.64 5.66 -8 6 C-5.63404067 3.38499232 -3.13950774 1.61000397 0 0 Z " fill="#07301D" transform="translate(619,280)"/>
<path d="M0 0 C2.60018816 3.90028225 2.15085514 7.47434569 2 12 C1.01 11.34 0.02 10.68 -1 10 C-1.27028374 6.28359861 -1.180933 3.542799 0 0 Z " fill="#09361D" transform="translate(530,169)"/>
<path d="M0 0 C2.37948772 0.17625835 3.70225849 0.69719773 5.37890625 2.40234375 C6.62115486 3.90649092 7.81376056 5.45129851 9 7 C6.62051228 6.82374165 5.29774151 6.30280227 3.62109375 4.59765625 C2.37884514 3.09350908 1.18623944 1.54870149 0 0 Z " fill="#1C491B" transform="translate(635,600)"/>
<path d="M0 0 C0.99 0 1.98 0 3 0 C5.91033076 3.66486096 6.32136655 6.39374606 6 11 C4.47700477 8.06279492 3.19899698 5.0831351 2 2 C1.34 2 0.68 2 0 2 C0 1.34 0 0.68 0 0 Z " fill="#163E16" transform="translate(697,378)"/>
<path d="M0 0 C0.66 0 1.32 0 2 0 C2.66 2.97 3.32 5.94 4 9 C3.01 9 2.02 9 1 9 C0.67 6.03 0.34 3.06 0 0 Z " fill="#294E1A" transform="translate(228,289)"/>
<path d="M0 0 C0.99 0.33 1.98 0.66 3 1 C2.67 3.64 2.34 6.28 2 9 C1.34 8.67 0.68 8.34 0 8 C0 5.36 0 2.72 0 0 Z " fill="#18461D" transform="translate(652,632)"/>
<path d="M0 0 C2.31 0.33 4.62 0.66 7 1 C3.65060119 3.02558881 1.13037449 3.21738987 -2.75 3.125 C-3.73484375 3.10695313 -4.7196875 3.08890625 -5.734375 3.0703125 C-6.85585938 3.03550781 -6.85585938 3.03550781 -8 3 C-8 2.67 -8 2.34 -8 2 C-5.36 2 -2.72 2 0 2 C0 1.34 0 0.68 0 0 Z " fill="#235620" transform="translate(624,558)"/>
<path d="M0 0 C4.19469571 0.59924224 8.00999834 1.57499941 12 3 C12 3.33 12 3.66 12 4 C10.37399059 3.9129995 8.74910322 3.8048219 7.125 3.6875 C6.22007812 3.62949219 5.31515625 3.57148438 4.3828125 3.51171875 C2 3 2 3 0 0 Z " fill="#3D6B27" transform="translate(522,469)"/>
<path d="M0 0 C0.33 0 0.66 0 1 0 C1 1.98 1 3.96 1 6 C1.66 6.33 2.32 6.66 3 7 C2.01 7 1.02 7 0 7 C0 7.99 0 8.98 0 10 C-0.66 10 -1.32 10 -2 10 C-1.54177532 6.53058454 -1.10868317 3.32604951 0 0 Z " fill="#1A4518" transform="translate(691,433)"/>
<path d="M0 0 C3.59905908 0.55550695 4.99909799 1.74887248 7.25 4.5625 C8.03117188 5.52349609 8.03117188 5.52349609 8.828125 6.50390625 C9.21484375 6.99761719 9.6015625 7.49132812 10 8 C9.01 8 8.02 8 7 8 C5.26776336 6.05651499 3.60118397 4.05279996 2 2 C1.34 1.34 0.68 0.68 0 0 Z " fill="#66A12B" transform="translate(529,112)"/>
<path d="M0 0 C0.33 0 0.66 0 1 0 C1 2.64 1 5.28 1 8 C1.66 8.33 2.32 8.66 3 9 C2.34 10.32 1.68 11.64 1 13 C-1.48887372 8.31506124 -0.85687773 5.0555786 0 0 Z " fill="#22551F" transform="translate(593,632)"/>
<path d="M0 0 C1.46726798 3.81489674 0.43336419 6.29011622 -1 10 C-1.33 10 -1.66 10 -2 10 C-2.33 7.36 -2.66 4.72 -3 2 C-2.34 2 -1.68 2 -1 2 C-0.67 1.34 -0.34 0.68 0 0 Z " fill="#154119" transform="translate(659,448)"/>
<path d="M0 0 C0.33 0 0.66 0 1 0 C0.67 3.3 0.34 6.6 0 10 C-0.66 10 -1.32 10 -2 10 C-1.125 2.25 -1.125 2.25 0 0 Z " fill="#174018" transform="translate(696,415)"/>
<path d="M0 0 C0.33 0 0.66 0 1 0 C1.125 6.625 1.125 6.625 0 10 C-0.66 10 -1.32 10 -2 10 C-1.54177532 6.53058454 -1.10868317 3.32604951 0 0 Z " fill="#153C15" transform="translate(674,496)"/>
<path d="M0 0 C-1.24976756 3.65316671 -1.67098753 4.78065836 -5 7 C-5.99 6.67 -6.98 6.34 -8 6 C-7.34 6 -6.68 6 -6 6 C-6 5.34 -6 4.68 -6 4 C-2.47058824 0 -2.47058824 0 0 0 Z " fill="#234E1C" transform="translate(542,465)"/>
<path d="M0 0 C0.33 0.99 0.66 1.98 1 3 C-0.32 4.32 -1.64 5.64 -3 7 C-3.99 6.67 -4.98 6.34 -6 6 C-4.02 4.02 -2.04 2.04 0 0 Z " fill="#65A12D" transform="translate(642,310)"/>
<path d="M0 0 C-3 2 -3 2 -5.125 2.5 C-5.74375 2.665 -6.3625 2.83 -7 3 C-7.33 3.66 -7.66 4.32 -8 5 C-8.33 4.34 -8.66 3.68 -9 3 C-6.38997624 -0.48003168 -4.1689578 -0.27793052 0 0 Z " fill="#23501E" transform="translate(632,675)"/>
<path d="M0 0 C-5.2734375 3.22265625 -5.2734375 3.22265625 -7 4 C-7.66 3.67 -8.32 3.34 -9 3 C-5.83583464 -0.30799106 -4.50236011 -1.35070803 0 0 Z " fill="#113A15" transform="translate(596,595)"/>
<path d="M0 0 C-1 3 -1 3 -2.8125 4.25 C-5.33943414 5.11637742 -6.52221994 4.88492145 -9 4 C-2.25 0 -2.25 0 0 0 Z " fill="#153B14" transform="translate(646,551)"/>
<path d="M0 0 C0.66 0 1.32 0 2 0 C1.67 2.64 1.34 5.28 1 8 C0.34 8 -0.32 8 -1 8 C-0.67 5.36 -0.34 2.72 0 0 Z " fill="#204D19" transform="translate(644,500)"/>
<path d="M0 0 C2.09749995 2.35968744 2.96905704 3.54616994 3.1875 6.75 C3.0946875 7.86375 3.0946875 7.86375 3 9 C2.34 9 1.68 9 1 9 C0.67 6.03 0.34 3.06 0 0 Z " fill="#163E15" transform="translate(349,445)"/>
<path d="M0 0 C0.33 0 0.66 0 1 0 C2.42857143 8.57142857 2.42857143 8.57142857 0 12 C-0.76173392 7.6835078 -1.16063604 4.25566547 0 0 Z " fill="#316526" transform="translate(703,384)"/>
<path d="M0 0 C0 0.99 0 1.98 0 3 C-2.375 4.75 -2.375 4.75 -5 6 C-5.66 5.67 -6.32 5.34 -7 5 C-4.69 3.35 -2.38 1.7 0 0 Z " fill="#083B20" transform="translate(597,293)"/>
<path d="M0 0 C1.98 0 3.96 0 6 0 C6 0.99 6 1.98 6 3 C4.02 2.34 2.04 1.68 0 1 C0 0.67 0 0.34 0 0 Z " fill="#377730" transform="translate(512,405)"/>
<path d="M0 0 C2.97 0 5.94 0 9 0 C9 0.33 9 0.66 9 1 C6.03 1 3.06 1 0 1 C0 0.67 0 0.34 0 0 Z " fill="#317130" transform="translate(432,622)"/>
<path d="M0 0 C0.66 1.32 1.32 2.64 2 4 C1.01 4.33 0.02 4.66 -1 5 C-0.67 3.35 -0.34 1.7 0 0 Z " fill="#437C2F" transform="translate(361,591)"/>
<path d="M0 0 C0.33 0 0.66 0 1 0 C1 2.97 1 5.94 1 9 C0.67 9 0.34 9 0 9 C0 6.03 0 3.06 0 0 Z " fill="#427B2E" transform="translate(360,576)"/>
<path d="M0 0 C2 3 2 3 2 6 C0 5 0 5 -1 2 C-0.67 1.34 -0.34 0.68 0 0 Z " fill="#3B772C" transform="translate(369,520)"/>
<path d="M0 0 C2.31 0 4.62 0 7 0 C6.67 0.66 6.34 1.32 6 2 C3.03 1.505 3.03 1.505 0 1 C0 0.67 0 0.34 0 0 Z " fill="#3B7A30" transform="translate(503,405)"/>
<path d="M0 0 C1.65 0 3.3 0 5 0 C5 0.66 5 1.32 5 2 C3.35 1.67 1.7 1.34 0 1 C0 0.67 0 0.34 0 0 Z " fill="#438232" transform="translate(592,405)"/>
<path d="M0 0 C1.65 0 3.3 0 5 0 C4.01 0.33 3.02 0.66 2 1 C1.67 1.66 1.34 2.32 1 3 C0.67 2.01 0.34 1.02 0 0 Z " fill="#3F7E32" transform="translate(400,405)"/>
<path d="M0 0 C1.98 0 3.96 0 6 0 C5.34 0.66 4.68 1.32 4 2 C2.68 1.34 1.36 0.68 0 0 Z " fill="#39762F" transform="translate(663,405)"/>
<path d="M0 0 C1.65 0 3.3 0 5 0 C5 0.66 5 1.32 5 2 C3.35 1.67 1.7 1.34 0 1 C0 0.67 0 0.34 0 0 Z " fill="#3C7B30" transform="translate(560,405)"/>
<path d="M0 0 C1.65 0 3.3 0 5 0 C4.34 0.66 3.68 1.32 3 2 C2.01 1.34 1.02 0.68 0 0 Z " fill="#448332" transform="translate(432,405)"/>
<path d="M0 0 C0.33 1.32 0.66 2.64 1 4 C0.34 3.01 -0.32 2.02 -1 1 C-0.67 0.67 -0.34 0.34 0 0 Z " fill="#417B2F" transform="translate(361,570)"/>
<path d="M0 0 C0.66 0.66 1.32 1.32 2 2 C1.34 2.66 0.68 3.32 0 4 C0 2.68 0 1.36 0 0 Z " fill="#3D782E" transform="translate(368,553)"/>
<path d="M0 0 C1.65 0 3.3 0 5 0 C5 0.33 5 0.66 5 1 C3.35 1 1.7 1 0 1 C0 0.67 0 0.34 0 0 Z " fill="#448233" transform="translate(439,405)"/>
<path d="M0 0 C0.99 0.495 0.99 0.495 2 1 C2 1.66 2 2.32 2 3 C1.34 3 0.68 3 0 3 C0 2.01 0 1.02 0 0 Z " fill="#3A782F" transform="translate(320,361)"/>
<path d="M0 0 C4 1 4 1 4 1 Z " fill="#45792E" transform="translate(417,679)"/>
<path d="M0 0 C0.99 1.485 0.99 1.485 2 3 C1.34 3 0.68 3 0 3 C0 2.01 0 1.02 0 0 Z " fill="#43782E" transform="translate(587,676)"/>
<path d="M0 0 C4 1 4 1 4 1 Z " fill="#38752F" transform="translate(553,630)"/>
<path d="M0 0 C4 1 4 1 4 1 Z " fill="#3B762E" transform="translate(513,630)"/>
<path d="M0 0 C1 4 1 4 1 4 Z " fill="#5A9331" transform="translate(641,504)"/>
<path d="M0 0 C0.99 0 1.98 0 3 0 C2.67 0.66 2.34 1.32 2 2 C1.34 1.34 0.68 0.68 0 0 Z " fill="#36752F" transform="translate(664,411)"/>
<path d="M0 0 C0.99 0.33 1.98 0.66 3 1 C2.01 1 1.02 1 0 1 C0 0.67 0 0.34 0 0 Z " fill="#428133" transform="translate(415,405)"/>
<path d="M0 0 C0.66 0.66 1.32 1.32 2 2 C1.01 1.67 0.02 1.34 -1 1 C-0.67 0.67 -0.34 0.34 0 0 Z " fill="#377431" transform="translate(297,308)"/>
<path d="" fill="#497E2F" transform="translate(0,0)"/>
<path d="" fill="#3E772E" transform="translate(0,0)"/>
<path d="" fill="#31712E" transform="translate(0,0)"/>
<path d="M0 0 C3 1 3 1 3 1 Z " fill="#39762F" transform="translate(538,630)"/>
<path d="M0 0 C3 1 3 1 3 1 Z " fill="#3C782F" transform="translate(522,630)"/>
<path d="M0 0 C3 1 3 1 3 1 Z " fill="#32722F" transform="translate(610,622)"/>
<path d="M0 0 C3 1 3 1 3 1 Z " fill="#3C792E" transform="translate(509,562)"/>
<path d="M0 0 C0.99 0.495 0.99 0.495 2 1 C1.01 1.495 1.01 1.495 0 2 C0 1.34 0 0.68 0 0 Z " fill="#568F33" transform="translate(640,498)"/>
<path d="M0 0 C3 1 3 1 3 1 Z " fill="#82B33E" transform="translate(456,496)"/>
<path d="M0 0 C0.66 0.66 1.32 1.32 2 2 C1.34 2 0.68 2 0 2 C0 1.34 0 0.68 0 0 Z " fill="#538A32" transform="translate(521,470)"/>
<path d="" fill="#32722F" transform="translate(0,0)"/>
<path d="M0 0 C0.66 0.66 1.32 1.32 2 2 C1.34 2 0.68 2 0 2 C0 1.34 0 0.68 0 0 Z " fill="#3C792E" transform="translate(516,422)"/>
<path d="M0 0 C0.66 0 1.32 0 2 0 C1.67 0.66 1.34 1.32 1 2 C0.67 1.34 0.34 0.68 0 0 Z " fill="#3D7C30" transform="translate(659,405)"/>
<path d="M0 0 C3 1 3 1 3 1 Z " fill="#3B7B31" transform="translate(655,405)"/>
<path d="M0 0 C3 1 3 1 3 1 Z " fill="#3D7C31" transform="translate(640,405)"/>
<path d="M0 0 C3 1 3 1 3 1 Z " fill="#417F33" transform="translate(624,405)"/>
<path d="M0 0 C3 1 3 1 3 1 Z " fill="#438133" transform="translate(615,405)"/>
<path d="M0 0 C3 1 3 1 3 1 Z " fill="#3D7C32" transform="translate(496,405)"/>
<path d="M0 0 C3 1 3 1 3 1 Z " fill="#418032" transform="translate(472,405)"/>
<path d="M0 0 C3 1 3 1 3 1 Z " fill="#3C7B32" transform="translate(384,405)"/>
<path d="M0 0 C3 1 3 1 3 1 Z " fill="#3A7931" transform="translate(375,405)"/>
<path d="M0 0 C3 1 3 1 3 1 Z " fill="#3A7831" transform="translate(371,405)"/>
<path d="M0 0 C3 1 3 1 3 1 Z " fill="#478130" transform="translate(262,306)"/>
<path d="" fill="#83B63E" transform="translate(0,0)"/>
<path d="M0 0 C2 1 2 1 2 1 Z " fill="#41762D" transform="translate(591,679)"/>
<path d="M0 0 C2 1 2 1 2 1 Z " fill="#42772D" transform="translate(452,679)"/>
<path d="" fill="#41762E" transform="translate(0,0)"/>
<path d="" fill="#4B7C2E" transform="translate(0,0)"/>
<path d="" fill="#40762D" transform="translate(0,0)"/>
<path d="" fill="#467C31" transform="translate(0,0)"/>
<path d="" fill="#2F722F" transform="translate(0,0)"/>
<path d="" fill="#3A742E" transform="translate(0,0)"/>
<path d="M0 0 C2 1 2 1 2 1 Z " fill="#3A752F" transform="translate(547,630)"/>
<path d="M0 0 C2 1 2 1 2 1 Z " fill="#3E782F" transform="translate(526,630)"/>
<path d="M0 0 C2 1 2 1 2 1 Z " fill="#3A772E" transform="translate(507,630)"/>
<path d="M0 0 C2 1 2 1 2 1 Z " fill="#3B752F" transform="translate(499,630)"/>
<path d="M0 0 C2 1 2 1 2 1 Z " fill="#38742D" transform="translate(628,593)"/>
<path d="M0 0 C2 1 2 1 2 1 Z " fill="#36712F" transform="translate(592,592)"/>
<path d="M0 0 C2 1 2 1 2 1 Z " fill="#377630" transform="translate(587,592)"/>
<path d="M0 0 C2 1 2 1 2 1 Z " fill="#367630" transform="translate(417,592)"/>
<path d="" fill="#477F33" transform="translate(0,0)"/>
<path d="M0 0 C2 1 2 1 2 1 Z " fill="#77AB3A" transform="translate(622,504)"/>
<path d="M0 0 C2 1 2 1 2 1 Z " fill="#78AB3A" transform="translate(416,504)"/>
<path d="" fill="#3F7A30" transform="translate(0,0)"/>
<path d="" fill="#3C7A2F" transform="translate(0,0)"/>
<path d="" fill="#427B32" transform="translate(0,0)"/>
<path d="" fill="#3F7B32" transform="translate(0,0)"/>
<path d="" fill="#3C792E" transform="translate(0,0)"/>
<path d="" fill="#3D7A2F" transform="translate(0,0)"/>
<path d="" fill="#3B7931" transform="translate(0,0)"/>
<path d="" fill="#377730" transform="translate(0,0)"/>
<path d="" fill="#3C7B2F" transform="translate(0,0)"/>
<path d="M0 0 C2 1 2 1 2 1 Z " fill="#3D7A2E" transform="translate(344,440)"/>
<path d="" fill="#3F7E2F" transform="translate(0,0)"/>
<path d="" fill="#36732E" transform="translate(0,0)"/>
<path d="" fill="#3C782E" transform="translate(0,0)"/>
<path d="M0 0 C2 1 2 1 2 1 Z " fill="#448333" transform="translate(483,406)"/>
<path d="M0 0 C2 1 2 1 2 1 Z " fill="#3C7B31" transform="translate(387,406)"/>
<path d="M0 0 C2 1 2 1 2 1 Z " fill="#3A7B30" transform="translate(648,405)"/>
<path d="M0 0 C2 1 2 1 2 1 Z " fill="#418133" transform="translate(608,405)"/>
<path d="M0 0 C2 1 2 1 2 1 Z " fill="#418131" transform="translate(584,405)"/>
<path d="M0 0 C2 1 2 1 2 1 Z " fill="#438434" transform="translate(456,405)"/>
<path d="M0 0 C2 1 2 1 2 1 Z " fill="#448233" transform="translate(448,405)"/>
<path d="M0 0 C2 1 2 1 2 1 Z " fill="#458234" transform="translate(428,405)"/>
<path d="M0 0 C2 1 2 1 2 1 Z " fill="#428133" transform="translate(424,405)"/>
<path d="M0 0 C2 1 2 1 2 1 Z " fill="#3B7D31" transform="translate(392,405)"/>
<path d="" fill="#417D32" transform="translate(0,0)"/>
<path d="" fill="#39782F" transform="translate(0,0)"/>
<path d="" fill="#3A782E" transform="translate(0,0)"/>
<path d="" fill="#39752E" transform="translate(0,0)"/>
<path d="" fill="#538333" transform="translate(0,0)"/>
<path d="M0 0 C2 1 2 1 2 1 Z " fill="#38752A" transform="translate(507,373)"/>
<path d="" fill="#407C30" transform="translate(0,0)"/>
<path d="" fill="#3C7931" transform="translate(0,0)"/>
<path d="" fill="#3F7D31" transform="translate(0,0)"/>
<path d="M0 0 C2 1 2 1 2 1 Z " fill="#518C31" transform="translate(565,345)"/>
<path d="M0 0 C2 1 2 1 2 1 Z " fill="#77AB3B" transform="translate(595,342)"/>
<path d="" fill="#3B7931" transform="translate(0,0)"/>
<path d="M0 0 C2 1 2 1 2 1 Z " fill="#4B8430" transform="translate(509,328)"/>
<path d="" fill="#458231" transform="translate(0,0)"/>
<path d="" fill="#397731" transform="translate(0,0)"/>
<path d="" fill="#7FB33C" transform="translate(0,0)"/>
<path d="" fill="#81B33C" transform="translate(0,0)"/>
<path d="M0 0 C2 1 2 1 2 1 Z " fill="#88B63C" transform="translate(661,242)"/>
<path d="M0 0 C2 1 2 1 2 1 Z " fill="#89B940" transform="translate(417,240)"/>
<path d="M0 0 C2 1 2 1 2 1 Z " fill="#85B63B" transform="translate(413,240)"/>
<path d="M0 0 C2 1 2 1 2 1 Z " fill="#89B53C" transform="translate(387,240)"/>
<path d="" fill="#82B43E" transform="translate(0,0)"/>
<path d="" fill="#82B73F" transform="translate(0,0)"/>
<path d="" fill="#86B83D" transform="translate(0,0)"/>
<path d="" fill="#88B83F" transform="translate(0,0)"/>
<path d="" fill="#89B73B" transform="translate(0,0)"/>
<path d="" fill="#8C8517" transform="translate(0,0)"/>
<path d="" fill="#928C1B" transform="translate(0,0)"/>
<path d="" fill="#43752B" transform="translate(0,0)"/>
<path d="" fill="#457A2E" transform="translate(0,0)"/>
<path d="" fill="#447A2F" transform="translate(0,0)"/>
<path d="" fill="#4B7C2D" transform="translate(0,0)"/>
<path d="" fill="#44792D" transform="translate(0,0)"/>
<path d="" fill="#48792E" transform="translate(0,0)"/>
<path d="" fill="#4B7C2C" transform="translate(0,0)"/>
<path d="" fill="#44722D" transform="translate(0,0)"/>
<path d="" fill="#44782F" transform="translate(0,0)"/>
<path d="" fill="#4A7D30" transform="translate(0,0)"/>
<path d="" fill="#4A7F30" transform="translate(0,0)"/>
<path d="" fill="#4A7C30" transform="translate(0,0)"/>
<path d="" fill="#43782D" transform="translate(0,0)"/>
<path d="" fill="#45792D" transform="translate(0,0)"/>
<path d="" fill="#4A7C2F" transform="translate(0,0)"/>
<path d="" fill="#497B2D" transform="translate(0,0)"/>
<path d="" fill="#3F762E" transform="translate(0,0)"/>
<path d="" fill="#417730" transform="translate(0,0)"/>
<path d="" fill="#487D2E" transform="translate(0,0)"/>
<path d="" fill="#3F772B" transform="translate(0,0)"/>
<path d="" fill="#4A7D2F" transform="translate(0,0)"/>
<path d="" fill="#437A2E" transform="translate(0,0)"/>
<path d="" fill="#317030" transform="translate(0,0)"/>
<path d="" fill="#307230" transform="translate(0,0)"/>
<path d="" fill="#327230" transform="translate(0,0)"/>
<path d="" fill="#326F2F" transform="translate(0,0)"/>
<path d="" fill="#32702E" transform="translate(0,0)"/>
<path d="" fill="#467B30" transform="translate(0,0)"/>
<path d="" fill="#347131" transform="translate(0,0)"/>
<path d="" fill="#37712C" transform="translate(0,0)"/>
<path d="" fill="#377532" transform="translate(0,0)"/>
<path d="" fill="#336F2C" transform="translate(0,0)"/>
<path d="" fill="#347430" transform="translate(0,0)"/>
<path d="" fill="#357231" transform="translate(0,0)"/>
<path d="" fill="#347330" transform="translate(0,0)"/>
<path d="" fill="#3C772F" transform="translate(0,0)"/>
<path d="" fill="#3B7731" transform="translate(0,0)"/>
<path d="" fill="#3A7830" transform="translate(0,0)"/>
<path d="" fill="#3C772F" transform="translate(0,0)"/>
<path d="" fill="#3D762F" transform="translate(0,0)"/>
<path d="" fill="#3C7630" transform="translate(0,0)"/>
<path d="" fill="#397830" transform="translate(0,0)"/>
<path d="" fill="#39772F" transform="translate(0,0)"/>
<path d="" fill="#37742E" transform="translate(0,0)"/>
<path d="" fill="#467D2F" transform="translate(0,0)"/>
<path d="" fill="#34742F" transform="translate(0,0)"/>
<path d="" fill="#32702E" transform="translate(0,0)"/>
<path d="" fill="#307130" transform="translate(0,0)"/>
<path d="" fill="#467F30" transform="translate(0,0)"/>
<path d="" fill="#468031" transform="translate(0,0)"/>
<path d="" fill="#437A2C" transform="translate(0,0)"/>
<path d="" fill="#427C2D" transform="translate(0,0)"/>
<path d="" fill="#427D32" transform="translate(0,0)"/>
<path d="" fill="#43792F" transform="translate(0,0)"/>
<path d="" fill="#437A33" transform="translate(0,0)"/>
<path d="" fill="#437B2E" transform="translate(0,0)"/>
<path d="" fill="#36752D" transform="translate(0,0)"/>
<path d="" fill="#427B31" transform="translate(0,0)"/>
<path d="" fill="#36762F" transform="translate(0,0)"/>
<path d="" fill="#457F30" transform="translate(0,0)"/>
<path d="" fill="#377732" transform="translate(0,0)"/>
<path d="" fill="#38782F" transform="translate(0,0)"/>
<path d="" fill="#34722D" transform="translate(0,0)"/>
<path d="" fill="#387931" transform="translate(0,0)"/>
<path d="" fill="#377430" transform="translate(0,0)"/>
<path d="" fill="#367531" transform="translate(0,0)"/>
<path d="" fill="#34732F" transform="translate(0,0)"/>
<path d="" fill="#3B772F" transform="translate(0,0)"/>
<path d="" fill="#35752F" transform="translate(0,0)"/>
<path d="" fill="#37752F" transform="translate(0,0)"/>
<path d="" fill="#357430" transform="translate(0,0)"/>
<path d="" fill="#37752D" transform="translate(0,0)"/>
<path d="" fill="#427D2E" transform="translate(0,0)"/>
<path d="" fill="#36742F" transform="translate(0,0)"/>
<path d="" fill="#38722D" transform="translate(0,0)"/>
<path d="" fill="#36702E" transform="translate(0,0)"/>
<path d="" fill="#3B792D" transform="translate(0,0)"/>
<path d="" fill="#3B792F" transform="translate(0,0)"/>
<path d="" fill="#38772C" transform="translate(0,0)"/>
<path d="" fill="#3C7A2E" transform="translate(0,0)"/>
<path d="" fill="#3C7A2D" transform="translate(0,0)"/>
<path d="" fill="#3D7A30" transform="translate(0,0)"/>
<path d="" fill="#3D792F" transform="translate(0,0)"/>
<path d="" fill="#3D7B2F" transform="translate(0,0)"/>
<path d="" fill="#3C7C2E" transform="translate(0,0)"/>
<path d="" fill="#3F7B2F" transform="translate(0,0)"/>
<path d="" fill="#457D2F" transform="translate(0,0)"/>
<path d="" fill="#3C782E" transform="translate(0,0)"/>
<path d="" fill="#427B2E" transform="translate(0,0)"/>
<path d="" fill="#38722D" transform="translate(0,0)"/>
<path d="" fill="#3C772D" transform="translate(0,0)"/>
<path d="" fill="#477F30" transform="translate(0,0)"/>
<path d="" fill="#3D792E" transform="translate(0,0)"/>
<path d="" fill="#3D7930" transform="translate(0,0)"/>
<path d="" fill="#458132" transform="translate(0,0)"/>
<path d="" fill="#42792F" transform="translate(0,0)"/>
<path d="" fill="#3A742D" transform="translate(0,0)"/>
<path d="" fill="#5C9231" transform="translate(0,0)"/>
<path d="" fill="#6AA237" transform="translate(0,0)"/>
<path d="" fill="#70A737" transform="translate(0,0)"/>
<path d="" fill="#579436" transform="translate(0,0)"/>
<path d="" fill="#72AC37" transform="translate(0,0)"/>
<path d="" fill="#548F34" transform="translate(0,0)"/>
<path d="" fill="#3A752B" transform="translate(0,0)"/>
<path d="" fill="#447E33" transform="translate(0,0)"/>
<path d="" fill="#538F35" transform="translate(0,0)"/>
<path d="" fill="#7DAF39" transform="translate(0,0)"/>
<path d="" fill="#538E33" transform="translate(0,0)"/>
<path d="" fill="#4D8930" transform="translate(0,0)"/>
<path d="" fill="#7FB53D" transform="translate(0,0)"/>
<path d="" fill="#7EB43D" transform="translate(0,0)"/>
<path d="" fill="#7FB63E" transform="translate(0,0)"/>
<path d="" fill="#3A772D" transform="translate(0,0)"/>
<path d="" fill="#7DB23F" transform="translate(0,0)"/>
<path d="" fill="#7EB23F" transform="translate(0,0)"/>
<path d="" fill="#7DB43E" transform="translate(0,0)"/>
<path d="" fill="#84B33C" transform="translate(0,0)"/>
<path d="" fill="#7CB33C" transform="translate(0,0)"/>
<path d="" fill="#7EB43A" transform="translate(0,0)"/>
<path d="" fill="#80B43B" transform="translate(0,0)"/>
<path d="" fill="#4B8931" transform="translate(0,0)"/>
<path d="" fill="#3E7A31" transform="translate(0,0)"/>
<path d="" fill="#488530" transform="translate(0,0)"/>
<path d="" fill="#3E7A2F" transform="translate(0,0)"/>
<path d="" fill="#428133" transform="translate(0,0)"/>
<path d="" fill="#407B31" transform="translate(0,0)"/>
<path d="" fill="#3B7B2E" transform="translate(0,0)"/>
<path d="" fill="#427F32" transform="translate(0,0)"/>
<path d="" fill="#3C7C30" transform="translate(0,0)"/>
<path d="" fill="#3B7A30" transform="translate(0,0)"/>
<path d="" fill="#3E7B31" transform="translate(0,0)"/>
<path d="" fill="#528B32" transform="translate(0,0)"/>
<path d="" fill="#407E30" transform="translate(0,0)"/>
<path d="" fill="#407D30" transform="translate(0,0)"/>
<path d="" fill="#538C32" transform="translate(0,0)"/>
<path d="" fill="#428031" transform="translate(0,0)"/>
<path d="" fill="#4E8A32" transform="translate(0,0)"/>
<path d="" fill="#3E7A32" transform="translate(0,0)"/>
<path d="" fill="#3D7A2F" transform="translate(0,0)"/>
<path d="" fill="#3E7C30" transform="translate(0,0)"/>
<path d="" fill="#407C31" transform="translate(0,0)"/>
<path d="" fill="#3D792E" transform="translate(0,0)"/>
<path d="" fill="#417830" transform="translate(0,0)"/>
<path d="" fill="#397A32" transform="translate(0,0)"/>
<path d="" fill="#387831" transform="translate(0,0)"/>
<path d="" fill="#367631" transform="translate(0,0)"/>
<path d="" fill="#39782E" transform="translate(0,0)"/>
<path d="" fill="#438130" transform="translate(0,0)"/>
<path d="" fill="#3D7B30" transform="translate(0,0)"/>
<path d="" fill="#41772D" transform="translate(0,0)"/>
<path d="" fill="#3E7930" transform="translate(0,0)"/>
<path d="" fill="#397A2F" transform="translate(0,0)"/>
<path d="" fill="#38782F" transform="translate(0,0)"/>
<path d="" fill="#3A792F" transform="translate(0,0)"/>
<path d="" fill="#33742D" transform="translate(0,0)"/>
<path d="" fill="#447C32" transform="translate(0,0)"/>
<path d="" fill="#37762F" transform="translate(0,0)"/>
<path d="" fill="#347630" transform="translate(0,0)"/>
<path d="" fill="#35762D" transform="translate(0,0)"/>
<path d="" fill="#34742D" transform="translate(0,0)"/>
<path d="" fill="#427F32" transform="translate(0,0)"/>
<path d="" fill="#417F33" transform="translate(0,0)"/>
<path d="" fill="#417F33" transform="translate(0,0)"/>
<path d="" fill="#3F7F32" transform="translate(0,0)"/>
<path d="" fill="#458532" transform="translate(0,0)"/>
<path d="" fill="#3D7C32" transform="translate(0,0)"/>
<path d="" fill="#3D7C2F" transform="translate(0,0)"/>
<path d="" fill="#448032" transform="translate(0,0)"/>
<path d="" fill="#438033" transform="translate(0,0)"/>
<path d="" fill="#438033" transform="translate(0,0)"/>
<path d="" fill="#3D7C32" transform="translate(0,0)"/>
<path d="" fill="#3C7B30" transform="translate(0,0)"/>
<path d="" fill="#3B7830" transform="translate(0,0)"/>
<path d="" fill="#3E7F34" transform="translate(0,0)"/>
<path d="" fill="#438034" transform="translate(0,0)"/>
<path d="" fill="#428332" transform="translate(0,0)"/>
<path d="" fill="#387730" transform="translate(0,0)"/>
<path d="" fill="#437E31" transform="translate(0,0)"/>
<path d="" fill="#3D792C" transform="translate(0,0)"/>
<path d="" fill="#3F752D" transform="translate(0,0)"/>
<path d="" fill="#3C792F" transform="translate(0,0)"/>
<path d="" fill="#3D7A31" transform="translate(0,0)"/>
<path d="" fill="#518333" transform="translate(0,0)"/>
<path d="" fill="#4E832F" transform="translate(0,0)"/>
<path d="" fill="#3C7930" transform="translate(0,0)"/>
<path d="" fill="#3A7A30" transform="translate(0,0)"/>
<path d="" fill="#3D7831" transform="translate(0,0)"/>
<path d="" fill="#3C7A2F" transform="translate(0,0)"/>
<path d="" fill="#39752B" transform="translate(0,0)"/>
<path d="" fill="#3C7730" transform="translate(0,0)"/>
<path d="" fill="#3D7A31" transform="translate(0,0)"/>
<path d="" fill="#3C792E" transform="translate(0,0)"/>
<path d="" fill="#3F7A2D" transform="translate(0,0)"/>
<path d="" fill="#3B792D" transform="translate(0,0)"/>
<path d="" fill="#37782F" transform="translate(0,0)"/>
<path d="" fill="#3F7C30" transform="translate(0,0)"/>
<path d="" fill="#3E7A2F" transform="translate(0,0)"/>
<path d="" fill="#4A8532" transform="translate(0,0)"/>
<path d="" fill="#4D8930" transform="translate(0,0)"/>
<path d="" fill="#4C882E" transform="translate(0,0)"/>
<path d="" fill="#427D33" transform="translate(0,0)"/>
<path d="" fill="#79AB3B" transform="translate(0,0)"/>
<path d="" fill="#78A93A" transform="translate(0,0)"/>
<path d="" fill="#73A939" transform="translate(0,0)"/>
<path d="" fill="#75AB3B" transform="translate(0,0)"/>
<path d="" fill="#76AC3A" transform="translate(0,0)"/>
<path d="" fill="#79AF3B" transform="translate(0,0)"/>
<path d="" fill="#79AB3B" transform="translate(0,0)"/>
<path d="" fill="#3E7C31" transform="translate(0,0)"/>
<path d="" fill="#78AC3A" transform="translate(0,0)"/>
<path d="" fill="#40812E" transform="translate(0,0)"/>
<path d="" fill="#427C2E" transform="translate(0,0)"/>
<path d="" fill="#42832E" transform="translate(0,0)"/>
<path d="" fill="#407C2C" transform="translate(0,0)"/>
<path d="" fill="#7EB13C" transform="translate(0,0)"/>
<path d="" fill="#47822D" transform="translate(0,0)"/>
<path d="" fill="#4A8531" transform="translate(0,0)"/>
<path d="" fill="#7BAE3C" transform="translate(0,0)"/>
<path d="" fill="#47842E" transform="translate(0,0)"/>
<path d="" fill="#4A8730" transform="translate(0,0)"/>
<path d="" fill="#3D7A2F" transform="translate(0,0)"/>
<path d="" fill="#86B43C" transform="translate(0,0)"/>
<path d="" fill="#3D7B31" transform="translate(0,0)"/>
<path d="" fill="#508A31" transform="translate(0,0)"/>
<path d="" fill="#377632" transform="translate(0,0)"/>
<path d="" fill="#7DB13A" transform="translate(0,0)"/>
<path d="" fill="#7FB23D" transform="translate(0,0)"/>
<path d="" fill="#7EB33C" transform="translate(0,0)"/>
<path d="" fill="#81B53D" transform="translate(0,0)"/>
<path d="" fill="#518B32" transform="translate(0,0)"/>
<path d="" fill="#417C2E" transform="translate(0,0)"/>
<path d="" fill="#437F31" transform="translate(0,0)"/>
<path d="" fill="#477F2E" transform="translate(0,0)"/>
<path d="" fill="#56862F" transform="translate(0,0)"/>
<path d="" fill="#81B43E" transform="translate(0,0)"/>
<path d="" fill="#5D8A2E" transform="translate(0,0)"/>
<path d="" fill="#75AF3A" transform="translate(0,0)"/>
<path d="" fill="#498433" transform="translate(0,0)"/>
<path d="" fill="#5A872E" transform="translate(0,0)"/>
<path d="" fill="#488430" transform="translate(0,0)"/>
<path d="" fill="#5C9834" transform="translate(0,0)"/>
<path d="" fill="#81B43D" transform="translate(0,0)"/>
<path d="" fill="#82B43E" transform="translate(0,0)"/>
<path d="" fill="#59862D" transform="translate(0,0)"/>
<path d="" fill="#83B53F" transform="translate(0,0)"/>
<path d="" fill="#82B63C" transform="translate(0,0)"/>
<path d="" fill="#82B53E" transform="translate(0,0)"/>
<path d="" fill="#4C8533" transform="translate(0,0)"/>
<path d="" fill="#4C8532" transform="translate(0,0)"/>
<path d="" fill="#4C8337" transform="translate(0,0)"/>
<path d="" fill="#79AF3C" transform="translate(0,0)"/>
<path d="" fill="#4D8530" transform="translate(0,0)"/>
<path d="" fill="#58882F" transform="translate(0,0)"/>
<path d="" fill="#477F31" transform="translate(0,0)"/>
<path d="" fill="#457F31" transform="translate(0,0)"/>
<path d="" fill="#478130" transform="translate(0,0)"/>
<path d="" fill="#498132" transform="translate(0,0)"/>
<path d="" fill="#4A8331" transform="translate(0,0)"/>
<path d="" fill="#47812F" transform="translate(0,0)"/>
<path d="" fill="#4B8130" transform="translate(0,0)"/>
<path d="" fill="#508530" transform="translate(0,0)"/>
<path d="" fill="#528630" transform="translate(0,0)"/>
<path d="" fill="#568830" transform="translate(0,0)"/>
<path d="" fill="#7CB03D" transform="translate(0,0)"/>
<path d="" fill="#78B13B" transform="translate(0,0)"/>
<path d="" fill="#5E8A32" transform="translate(0,0)"/>
<path d="" fill="#7DB03B" transform="translate(0,0)"/>
<path d="" fill="#7BB03D" transform="translate(0,0)"/>
<path d="" fill="#6DA437" transform="translate(0,0)"/>
<path d="" fill="#7DB43C" transform="translate(0,0)"/>
<path d="" fill="#70A538" transform="translate(0,0)"/>
<path d="" fill="#72A838" transform="translate(0,0)"/>
<path d="" fill="#7DB33C" transform="translate(0,0)"/>
<path d="" fill="#80B33F" transform="translate(0,0)"/>
<path d="" fill="#7CB23D" transform="translate(0,0)"/>
<path d="" fill="#86B73D" transform="translate(0,0)"/>
<path d="" fill="#83B43D" transform="translate(0,0)"/>
<path d="" fill="#85B73E" transform="translate(0,0)"/>
<path d="" fill="#7AB039" transform="translate(0,0)"/>
<path d="" fill="#86B73C" transform="translate(0,0)"/>
<path d="" fill="#85B73F" transform="translate(0,0)"/>
<path d="" fill="#7EB23B" transform="translate(0,0)"/>
<path d="" fill="#7FB13F" transform="translate(0,0)"/>
<path d="" fill="#81B63E" transform="translate(0,0)"/>
<path d="" fill="#87B73E" transform="translate(0,0)"/>
<path d="" fill="#87B73D" transform="translate(0,0)"/>
<path d="" fill="#8AB83D" transform="translate(0,0)"/>
<path d="" fill="#89BA3F" transform="translate(0,0)"/>
<path d="" fill="#86B63E" transform="translate(0,0)"/>
<path d="" fill="#89B93D" transform="translate(0,0)"/>
<path d="" fill="#86B73C" transform="translate(0,0)"/>
<path d="" fill="#83B43E" transform="translate(0,0)"/>
<path d="" fill="#83B63C" transform="translate(0,0)"/>
<path d="" fill="#84B73E" transform="translate(0,0)"/>
<path d="" fill="#85B93E" transform="translate(0,0)"/>
<path d="" fill="#87B940" transform="translate(0,0)"/>
<path d="" fill="#88BB40" transform="translate(0,0)"/>
<path d="" fill="#8BBC3F" transform="translate(0,0)"/>
<path d="" fill="#8AB93D" transform="translate(0,0)"/>
<path d="" fill="#8AB93E" transform="translate(0,0)"/>
<path d="" fill="#8AB83D" transform="translate(0,0)"/>
<path d="" fill="#8AB73B" transform="translate(0,0)"/>
<path d="" fill="#8BB83C" transform="translate(0,0)"/>
<path d="" fill="#89B83E" transform="translate(0,0)"/>
<path d="" fill="#8BB83C" transform="translate(0,0)"/>
<path d="" fill="#8AB63B" transform="translate(0,0)"/>
<path d="" fill="#8AB73A" transform="translate(0,0)"/>
<path d="" fill="#8DB63B" transform="translate(0,0)"/>
<path d="" fill="#8BB43E" transform="translate(0,0)"/>
<path d="" fill="#94B63A" transform="translate(0,0)"/>
</svg>
