<?xml version="1.0" encoding="UTF-8"?>
<svg version="1.1" xmlns="http://www.w3.org/2000/svg" width="1024" height="1024">
<path d="M0 0 C337.92 0 675.84 0 1024 0 C1024 337.92 1024 675.84 1024 1024 C686.08 1024 348.16 1024 0 1024 C0 686.08 0 348.16 0 0 Z " fill="#FAF6EA" transform="translate(0,0)"/>
<path d="M0 0 C22.34306222 14.89537481 40.2250153 42.58899936 46.078125 68.5625 C50.25097292 90.11552055 46.9449405 112.50038257 35 131 C31.72810741 135.39498759 27.94507991 139.21227371 24 143 C23.17757813 143.80695313 22.35515625 144.61390625 21.5078125 145.4453125 C17.40323627 149.30112653 14.41010803 151.29115654 9 153 C9.06638672 154.07894531 9.13277344 155.15789062 9.20117188 156.26953125 C9.91963597 168.31960831 10.29238981 180.35873797 10.55224609 192.42626953 C10.74068159 200.99922023 10.96902331 209.47725939 12 218 C19.23870086 210.39708777 21.8177647 204.40701314 23.04492188 194.08081055 C23.91695684 186.83093707 25.89385974 180.63058595 29 174 C29.41894531 173.07058594 29.83789062 172.14117187 30.26953125 171.18359375 C39.44379626 152.59711449 58.02403081 139.22913765 77.125 132.1875 C90.39890116 127.76782663 102.61685114 125.82569305 116.5625 125.875 C118.20895508 125.86919922 118.20895508 125.86919922 119.88867188 125.86328125 C125.36527775 125.86988355 130.60694982 126.02507271 136 127 C135.4319552 132.79797452 134.30450177 137.98792855 132.4375 143.5 C132.17573975 144.27609619 131.91397949 145.05219238 131.64428711 145.85180664 C125.84507948 162.44337507 117.14504842 177.27965981 105 190 C104.40960937 190.67675781 103.81921875 191.35351562 103.2109375 192.05078125 C90.65460084 205.85168873 70.42830242 214.66752483 52 216 C50.37976715 215.92785605 48.76077819 215.82205502 47.14453125 215.6875 C38.87830461 214.61573775 38.87830461 214.61573775 31.34716797 217.21582031 C27.9649598 220.98006028 25.97214489 225.39213478 24 230 C23.30035668 231.58311378 22.59841131 233.16521198 21.89428711 234.74633789 C21.53829941 235.54608536 21.18231171 236.34583282 20.8155365 237.16981506 C20.54640945 237.77377609 20.27728241 238.37773712 20 239 C20.70899445 238.99723462 21.41798889 238.99446924 22.14846802 238.99162006 C39.41747343 238.92530324 56.68644641 238.87569172 73.95555115 238.84456348 C82.3068398 238.82910914 90.65804333 238.80804707 99.00927734 238.77368164 C106.29008925 238.74373535 113.57083949 238.72441459 120.85171127 238.71773452 C124.70519394 238.71383109 128.55850025 238.70468756 132.41192627 238.68280983 C136.04312881 238.66236189 139.67408326 238.65618285 143.30533791 238.66067696 C145.26476337 238.65946542 147.22416217 238.6433669 149.18351746 238.6267395 C163.45713145 238.67660062 163.45713145 238.67660062 168.54792786 243.45203876 C172.67211005 248.23180899 173.39600831 251.32190254 173.32839966 257.46035767 C172.61920692 265.10436269 170.27002749 272.45191019 168.21484375 279.82421875 C167.71479252 281.6564082 167.21591927 283.48891951 166.71815491 285.32173157 C165.40655876 290.13767983 164.07802053 294.94879656 162.74609375 299.75915527 C161.41658099 304.57402266 160.10494726 309.39375321 158.79101562 314.21289062 C154.61178945 329.51615785 150.39915376 344.81184033 146.00390625 360.0546875 C145.74939194 360.94584763 145.49487762 361.83700775 145.23265076 362.75517273 C141.55653579 375.32796048 137.15916954 388.35092139 128 398 C127.52820313 398.59425781 127.05640625 399.18851562 126.5703125 399.80078125 C122.80953238 404.19485336 118.26655733 406.71071497 113.1875 409.3125 C112.21018921 409.81922241 112.21018921 409.81922241 111.21313477 410.33618164 C103.06742255 414.29920454 94.64589518 415.30273982 85.67559814 415.25828552 C84.35218623 415.26379908 84.35218623 415.26379908 83.00203872 415.26942402 C80.07584283 415.27932293 77.14984002 415.27526958 74.22363281 415.27124023 C72.1136912 415.27563176 70.00375132 415.28093546 67.89381409 415.28707886 C63.36552115 415.29854337 58.83727479 415.30403564 54.30896759 415.30496025 C47.14862334 415.30690608 39.98837517 415.32498545 32.82806396 415.34571838 C15.05038084 415.39482739 -2.72732818 415.4258194 -20.50506592 415.44702148 C-34.33678579 415.46353859 -48.16842275 415.48631859 -62.00008702 415.53004223 C-69.1186306 415.55182955 -76.23701666 415.55987555 -83.3555913 415.55764949 C-87.77976673 415.55931478 -92.20383896 415.57335355 -96.62797737 415.59086227 C-98.67985599 415.59646643 -100.73175596 415.59694275 -102.78363609 415.59192467 C-105.58383821 415.58579394 -108.38338745 415.59799553 -111.18353271 415.61473083 C-112.40191617 415.60541311 -112.40191617 415.60541311 -113.64491343 415.59590715 C-119.1649402 415.65605212 -123.45562792 416.62484982 -127.64453125 420.53515625 C-132.24186991 426.54706065 -132.70035606 430.48893496 -132 438 C-130.69323777 442.96070249 -128.36082377 446.10470742 -124.1875 449.0625 C-121.24321816 450.67341946 -119.96578566 451.00061097 -116.5 451.0625 C-113.11241311 450.03412541 -110.25516138 448.77393846 -107.1875 447.03515625 C-97.40006896 442.40360406 -85.4982342 442.52230616 -75.3125 445.8125 C-72.50799883 446.84782504 -70.16351653 447.89120275 -67.67291546 449.54834747 C-64.71223281 451.15628552 -63.02142562 451.38075183 -59.68257141 451.39440918 C-58.10366371 451.41143387 -58.10366371 451.41143387 -56.49285889 451.42880249 C-55.34835266 451.42587189 -54.20384644 451.42294128 -53.0246582 451.41992188 C-51.81104111 451.42839142 -50.59742401 451.43686096 -49.34703064 451.44558716 C-46.02426602 451.46496211 -42.7020634 451.47073509 -39.37928033 451.46883965 C-36.59886749 451.46871973 -33.81850681 451.47729323 -31.03810853 451.48561716 C-24.47174057 451.50484369 -17.90549972 451.50773901 -11.33911133 451.50097656 C-4.58445568 451.49434745 2.16965228 451.5171556 8.9241969 451.55429029 C14.7376012 451.58508114 20.55083026 451.59633689 26.36431438 451.59245348 C29.82999054 451.59039432 33.29524111 451.59573348 36.76083946 451.62034607 C40.63333549 451.6469394 44.50512681 451.63281393 48.37768555 451.61523438 C49.51207062 451.62849762 50.64645569 451.64176086 51.81521606 451.65542603 C59.43702569 451.57533696 64.45430585 449.78942843 71 446 C81.6954734 441.84064923 92.65271182 443.709661 103 448 C106.27011992 449.72189926 109.1296274 451.67771035 112 454 C112.61359375 454.47824219 113.2271875 454.95648437 113.859375 455.44921875 C120.04597044 460.88302049 125.69138519 470.74934322 127 479 C127.88834143 493.52096573 125.16787953 504.18874353 116.8125 516.125 C109.31056893 524.51225213 99.06332076 529.48711534 87.9140625 530.4140625 C74.97214313 531.05984055 64.14856622 527.8589797 54.21875 519.21875 C45.1763528 510.1763528 40.82881962 499.61605722 40.6875 486.8125 C40.81242079 481.37515843 40.81242079 481.37515843 42 479 C12.96 479 -16.08 479 -46 479 C-46 482.96 -46 486.92 -46 491 C-47.74653468 503.52393162 -52.99483319 514.13127482 -63 522 C-74.81127947 529.1727796 -87.5152243 532.27536439 -101.16796875 529.3125 C-112.67954269 525.41577539 -122.47287649 517.91945558 -128.3125 507.125 C-132.57725834 497.57194132 -134.74510074 487.29412776 -132 477 C-132.73605469 476.72285156 -133.47210938 476.44570313 -134.23046875 476.16015625 C-146.50580422 471.01801995 -153.64146087 461.84495164 -158.87109375 449.91796875 C-162.84074428 439.65731496 -162.64896766 426.08292199 -158.9375 415.8125 C-156.76135833 410.97524795 -154.01762663 406.90728043 -150.55078125 402.90234375 C-148.91020331 400.88984638 -147.88043882 399.44926383 -147 397 C-147.37439515 394.03886509 -147.37439515 394.03886509 -148.39453125 390.78125 C-148.5725679 390.15290756 -148.75060455 389.52456512 -148.93403625 388.87718201 C-149.54418699 386.74646099 -150.1774602 384.62342712 -150.8125 382.5 C-151.26369546 380.95651605 -151.71469858 379.41297586 -152.16552734 377.86938477 C-157.89416664 358.45100389 -164.35432512 339.2568722 -170.70179749 320.03465271 C-174.49702742 308.52479783 -178.19344177 296.98412118 -181.875 285.4375 C-183.18454239 281.33452255 -184.49459798 277.23170902 -185.8046875 273.12890625 C-186.13667145 272.0890004 -186.4686554 271.04909454 -186.81069946 269.97767639 C-190.77710838 257.55814616 -194.76488813 245.14549846 -198.75836182 232.73464966 C-199.57031918 230.21115137 -200.38151753 227.68741316 -201.19232178 225.1635437 C-203.42299795 218.22038992 -205.66315215 211.28043338 -207.91650391 204.34460449 C-208.64899772 202.08349612 -209.37774071 199.82116974 -210.10302734 197.55773926 C-211.16431248 194.24660055 -212.23717988 190.93941554 -213.3125 187.6328125 C-213.62590332 186.64562225 -213.93930664 185.65843201 -214.26220703 184.6413269 C-215.95727699 179.47327741 -217.82945284 175.40849535 -221 171 C-221 170.34 -221 169.68 -221 169 C-221.556875 168.731875 -222.11375 168.46375 -222.6875 168.1875 C-225 167 -225 167 -227.4375 165.4375 C-231.41979584 163.20352916 -235.2770177 162.87864194 -239.78686523 162.84228516 C-240.70809677 162.83202301 -241.62932831 162.82176086 -242.57847595 162.81118774 C-243.56191483 162.80388641 -244.5453537 162.79658508 -245.55859375 162.7890625 C-247.65690895 162.76100156 -249.75521614 162.73233715 -251.85351562 162.703125 C-255.14949381 162.66184234 -258.44532134 162.62493758 -261.74145508 162.59863281 C-264.9308113 162.57099665 -268.11949681 162.52513643 -271.30859375 162.4765625 C-272.29000839 162.47330963 -273.27142303 162.47005676 -274.28257751 162.46670532 C-280.33463935 162.35824248 -284.97877814 161.7556988 -289.64453125 157.5 C-293.48357504 152.56958925 -294.53029991 149.25753894 -294 143 C-291.52746091 138.15001948 -288.79114477 135.52973243 -284 133 C-280.46385299 132.43408289 -276.98119142 132.46271799 -273.40625 132.50390625 C-272.38253296 132.50245102 -271.35881592 132.50099579 -270.30407715 132.49949646 C-268.13888707 132.50115335 -265.97368497 132.51269097 -263.80859375 132.53344727 C-260.53853622 132.56216161 -257.27012698 132.55409811 -254 132.54101562 C-234.20662621 132.56029673 -217.09534066 134.42460405 -202.17578125 148.796875 C-201.45777344 149.52390625 -200.73976563 150.2509375 -200 151 C-199.43667969 151.54140625 -198.87335938 152.0828125 -198.29296875 152.640625 C-180.32715327 171.412295 -169.58272513 226.74000672 -166 238 C-90.76 238.495 -90.76 238.495 -14 239 C-17.96 231.575 -17.96 231.575 -22 224 C-23.010625 221.875625 -24.02125 219.75125 -25.0625 217.5625 C-27.21105571 214.68080792 -28.71159768 213.21777348 -32.31103516 212.609375 C-37.22561863 212.35123164 -42.09718956 212.61749161 -47.0078125 212.859375 C-59.31010835 213.38555044 -71.20984615 209.75699316 -82 204 C-82.89847656 203.55914062 -83.79695312 203.11828125 -84.72265625 202.6640625 C-91.93653973 198.99117105 -97.96031987 194.36552624 -104 189 C-104.69867188 188.38511719 -105.39734375 187.77023437 -106.1171875 187.13671875 C-112.42959662 181.21725076 -117.18057248 174.13514535 -122 167 C-122.556875 166.20078125 -123.11375 165.4015625 -123.6875 164.578125 C-131.72988155 152.25230111 -137.32065763 136.45157106 -140 122 C-136.92718217 118.92718217 -128.15584096 119.84894487 -123.94946289 119.80908203 C-95.14669114 119.84827328 -66.52190395 126.80252091 -45 147 C-44.27683594 147.65613281 -43.55367187 148.31226563 -42.80859375 148.98828125 C-29.83380684 161.27370567 -21.03465288 178.24269031 -19.3125 196 C-18.49296381 202.64331993 -16.19072123 206.26121775 -11.6796875 211.109375 C-10 213 -10 213 -10 215 C-9.34 215 -8.68 215 -8 215 C-7.74427762 207.18547003 -7.54926657 199.37193227 -7.43006611 191.55426025 C-7.37282766 187.92317193 -7.29532593 184.29495977 -7.17016602 180.66552734 C-7.04995846 177.15744206 -6.98474499 173.65210701 -6.95635033 170.14212036 C-6.92635336 168.16275082 -6.84057586 166.1844784 -6.7537384 164.20678711 C-6.70383302 157.19002101 -6.70383302 157.19002101 -10.35946655 151.47631836 C-13.15646638 149.43635128 -15.99772775 147.71772838 -19 146 C-30.48630271 137.25949399 -37.82586876 125.33333819 -43 112 C-43.3403125 111.12859375 -43.680625 110.2571875 -44.03125 109.359375 C-50.92119423 87.54121828 -45.36845546 62.17295766 -35.18359375 42.40234375 C-26.59453963 26.40999664 -14.20396277 11.29860675 0 0 Z " fill="#014B29" transform="translate(531,110)"/>
<path d="M0 0 C48.51 0 97.02 0 147 0 C147.33 19.8 147.66 39.6 148 60 C149.98324441 62.42558939 149.98324441 62.42558939 153.84375 62.23046875 C155.39589428 62.22647524 156.9480394 62.21170957 158.5 62.1875 C159.28503906 62.18685547 160.07007813 62.18621094 160.87890625 62.18554688 C165.07342326 62.25225279 165.07342326 62.25225279 169 61 C169.495 30.805 169.495 30.805 170 0 C212.9 0 255.8 0 300 0 C297.50820362 9.96718553 294.99815173 19.91737849 292.35546875 29.84375 C292.02259354 31.09595337 291.68971832 32.34815674 291.34675598 33.63830566 C290.64766666 36.26692006 289.94755789 38.89526049 289.24682617 41.5234375 C288.54410769 44.15966273 287.843285 46.79637959 287.14428711 49.43359375 C283.58156093 62.87353863 279.97724531 76.2992109 276.11328125 89.65625 C275.82776901 90.64991577 275.54225677 91.64358154 275.24809265 92.6673584 C274.98099991 93.57957153 274.71390717 94.49178467 274.4387207 95.43164062 C274.20804398 96.22203735 273.97736725 97.01243408 273.73970032 97.82678223 C272.99848076 100.00446349 272.07740726 101.97029861 271 104 C269.77410156 103.62488281 268.54820312 103.24976563 267.28515625 102.86328125 C246.93392746 96.76852786 226.09099036 92.5604122 205 90 C204.15856445 89.89558594 203.31712891 89.79117188 202.45019531 89.68359375 C171.17825581 86.01410512 138.26460371 86.59657891 107 90 C106.05930664 90.09651855 105.11861328 90.19303711 104.14941406 90.29248047 C82.71151861 92.5457905 61.19145039 96.57084649 40.49316406 102.61474609 C35.29954064 104.09984688 35.29954064 104.09984688 32 103 C31.00540161 100.91577148 31.00540161 100.91577148 30.12158203 98.12109375 C29.78294632 97.07091064 29.44431061 96.02072754 29.09541321 94.9387207 C28.73650497 93.78331787 28.37759674 92.62791504 28.0078125 91.4375 C27.62501633 90.23891357 27.24222015 89.04032715 26.8478241 87.80541992 C25.81012519 84.54827215 24.78323959 81.28809157 23.7612648 78.02600098 C22.70352571 74.65793721 21.63279769 71.29401039 20.56323242 67.9296875 C18.84599353 62.52298628 17.13651051 57.11389195 15.43212891 51.703125 C13.26194733 44.81580147 11.06401485 37.93760679 8.85546875 31.0625 C7.95494295 28.25244537 7.05500968 25.44220207 6.15545654 22.63183594 C5.59505899 20.88219126 5.03374404 19.13284015 4.47149658 17.38378906 C3.70196262 14.98637036 2.93803826 12.58724058 2.17578125 10.1875 C1.95174118 9.49342041 1.72770111 8.79934082 1.49687195 8.08422852 C0.60544147 5.26085948 0 2.98269587 0 0 Z " fill="#FAF5EA" transform="translate(374,377)"/>
<path d="M0 0 C22.34306222 14.89537481 40.2250153 42.58899936 46.078125 68.5625 C50.25097292 90.11552055 46.9449405 112.50038257 35 131 C31.72810741 135.39498759 27.94507991 139.21227371 24 143 C23.17757812 143.80695313 22.35515625 144.61390625 21.5078125 145.4453125 C17.59534751 149.1206584 14.41130823 151.88998805 9 153 C8.16107739 146.65010609 7.87426024 140.41543208 7.76025391 134.01367188 C7.50510108 120.59503048 6.61761747 107.33839914 5.125 94 C5.04381927 93.25712738 4.96263855 92.51425476 4.8789978 91.74887085 C3.76784979 81.70397583 2.14082461 71.87906973 0 62 C-1.53722732 70.55619168 -2.67244953 79.09705571 -3.5 87.75 C-3.56281158 88.40033203 -3.62562317 89.05066406 -3.69033813 89.72070312 C-5.71371753 111.08238686 -6.2522669 132.56408949 -7 154 C-24.30935733 143.98861904 -35.72040388 130.75895924 -43 112 C-43.3403125 111.12859375 -43.680625 110.2571875 -44.03125 109.359375 C-50.92119423 87.54121828 -45.36845546 62.17295766 -35.18359375 42.40234375 C-26.59453963 26.40999664 -14.20396277 11.29860675 0 0 Z " fill="#51A23C" transform="translate(531,110)"/>
<path d="M0 0 C1.02116913 0.00126892 2.04233826 0.00253784 3.0944519 0.00384521 C36.06785939 0.08189184 68.74536661 3.36301677 100.6875 11.875 C101.7592749 12.16012451 102.8310498 12.44524902 103.93530273 12.73901367 C111.77829289 14.96139993 111.77829289 14.96139993 114.5625 18.1875 C109.35236019 25.87706326 103.8512428 31.1900387 94.5625 33.1875 C91.69834363 33.27979032 88.85909949 33.31796372 85.99517822 33.30775452 C84.68535669 33.30903615 84.68535669 33.30903615 83.34907413 33.31034368 C80.41791668 33.31199312 77.48681625 33.30648584 74.55566406 33.30102539 C72.45657859 33.30074338 70.35749301 33.30090153 68.25840759 33.3014679 C62.55427231 33.30175532 56.85015797 33.29586745 51.14602757 33.28889394 C45.18693205 33.28265127 39.22783607 33.28205588 33.26873779 33.28086853 C21.98179758 33.27775792 10.69486704 33.26954815 -0.59206891 33.25951904 C-13.44076719 33.24834954 -26.28946593 33.24284534 -39.13816786 33.23782361 C-65.57128393 33.22736533 -92.00439143 33.20977108 -118.4375 33.1875 C-119.27469383 30.89717689 -120.1073929 28.60539043 -120.9375 26.3125 C-121.17597656 25.66152344 -121.41445313 25.01054687 -121.66015625 24.33984375 C-123.4375 19.4140625 -123.4375 19.4140625 -123.4375 17.1875 C-115.15966775 14.2432744 -106.90940789 11.98374115 -98.3125 10.1875 C-97.104729 9.93258789 -95.89695801 9.67767578 -94.65258789 9.41503906 C-76.1093782 5.58592239 -57.32158338 2.67811492 -38.4375 1.1875 C-37.34074951 1.09992432 -36.24399902 1.01234863 -35.11401367 0.92211914 C-23.4108146 0.08559002 -11.72978677 -0.01502 0 0 Z " fill="#51A33C" transform="translate(530.4375,463.8125)"/>
<path d="M0 0 C1.6254781 1.43454095 3.23164508 2.89142846 4.8125 4.375 C5.53566406 5.03113281 6.25882812 5.68726563 7.00390625 6.36328125 C21.93024199 20.4965669 29.89025159 39.08553495 30.8125 59.375 C26.50640703 55.83443467 22.56776668 52.1302533 18.6875 48.125 C3.33095129 32.55476284 -17.53586552 18.73765829 -38.1875 11.375 C-39.1775 11.375 -40.1675 11.375 -41.1875 11.375 C-31.26873977 20.86677428 -31.26873977 20.86677428 -20.8125 29.75 C-9.99917871 38.41029744 -0.16417346 48.3387195 9.6875 58.0625 C10.26411377 58.62606201 10.84072754 59.18962402 11.43481445 59.77026367 C14.43330903 62.76243136 16.8063314 65.5941438 18.8125 69.375 C1.41917269 72.65625653 -16.61115782 69.6856225 -32.1875 61.375 C-33.53521484 60.71371094 -33.53521484 60.71371094 -34.91015625 60.0390625 C-42.12403973 56.36617105 -48.14781987 51.74052624 -54.1875 46.375 C-54.88617188 45.76011719 -55.58484375 45.14523437 -56.3046875 44.51171875 C-62.61709662 38.59225076 -67.36807248 31.51014535 -72.1875 24.375 C-72.744375 23.57578125 -73.30125 22.7765625 -73.875 21.953125 C-81.91738155 9.62730111 -87.50815763 -6.17342894 -90.1875 -20.625 C-72.58311826 -38.22938174 -14.93574173 -11.89517807 0 0 Z " fill="#50A23C" transform="translate(481.1875,252.625)"/>
<path d="M0 0 C1.64645508 -0.00580078 1.64645508 -0.00580078 3.32617188 -0.01171875 C8.80277775 -0.00511645 14.04444982 0.15007271 19.4375 1.125 C18.8694552 6.92297452 17.74200177 12.11292855 15.875 17.625 C15.61323975 18.40109619 15.35147949 19.17719238 15.08178711 19.97680664 C9.28257948 36.56837507 0.58254842 51.40465981 -11.5625 64.125 C-12.15289063 64.80175781 -12.74328125 65.47851562 -13.3515625 66.17578125 C-26.58797224 80.72416993 -47.31730386 88.84757806 -66.61914062 90.27734375 C-79.16297278 90.86515219 -79.16297278 90.86515219 -83.5625 88.125 C-73.40252822 75.84600245 -62.63472473 64.02330193 -50.4375 53.71875 C-48.15866622 51.78174129 -45.95925343 49.76594375 -43.75 47.75 C-39.22905687 43.66362815 -34.55801957 39.79468693 -29.8125 35.97265625 C-27.54130251 34.16894839 -27.54130251 34.16894839 -25.5625 32.125 C-51.19232727 38.03957552 -72.64447702 56.85487613 -90.5625 75.125 C-91.89466426 76.45950139 -93.22769743 77.79313752 -94.5625 79.125 C-93.84442379 57.51090619 -86.09530817 39.91502972 -70.5625 25.125 C-51.17397891 7.29253999 -25.91603788 -0.09163007 0 0 Z " fill="#50A23B" transform="translate(647.5625,235.875)"/>
<path d="M0 0 C48.96109959 0 48.96109959 0 57.203125 7.9453125 C63.60251526 15.26287614 64.91183222 22.72613465 64.4140625 32.21875 C63.5450813 40.15435187 60.57229257 45.0233663 54.87890625 50.4921875 C52.70540892 52.23640781 50.41564223 53.61608147 48 55 C50.01775534 58.12699734 52.03923459 61.25156509 54.0625 64.375 C54.95134888 65.74760986 54.95134888 65.74760986 55.8581543 67.14794922 C59.4248502 72.63600042 63.04937801 78.04540058 66.92578125 83.3203125 C68 85 68 85 68 87 C60.70814532 88.85170581 53.0623586 90.13856754 46 87 C39.71383901 80.70138219 29 66.0994474 29 57 C25.37 57 21.74 57 18 57 C18 66.57 18 76.14 18 86 C12.06 86 6.12 86 0 86 C0 57.62 0 29.24 0 0 Z " fill="#014927" transform="translate(280,696)"/>
<path d="M0 0 C48.59255725 0 48.59255725 0 57.53125 8.28515625 C64.23820203 16.1158795 64.58292613 25.11225296 64 35 C62.83519765 41.61479502 58.8531167 46.51440087 54 51 C52.02309373 52.36734025 50.02684974 53.70784756 48 55 C50.01775534 58.12699734 52.03923459 61.25156509 54.0625 64.375 C54.95134888 65.74760986 54.95134888 65.74760986 55.8581543 67.14794922 C59.4248502 72.63600042 63.04937801 78.04540058 66.92578125 83.3203125 C68 85 68 85 68 87 C60.76071344 88.33050036 53.08222126 89.46835132 46 87 C39.1284739 81.06577285 35.55459204 71.69563352 31.90673828 63.5625 C30.71319098 61.04203389 30.71319098 61.04203389 28 58 C24.7 57.67 21.4 57.34 18 57 C18 66.57 18 76.14 18 86 C12.06 86 6.12 86 0 86 C0 57.62 0 29.24 0 0 Z " fill="#024927" transform="translate(782,696)"/>
<path d="M0 0 C3.84404714 2.86915236 6.46122024 5.4365749 9.37109375 9.31640625 C5.41109375 12.94640625 1.45109375 16.57640625 -2.62890625 20.31640625 C-6.62890625 18.31640625 -6.62890625 18.31640625 -8.2421875 17.02734375 C-13.77562193 12.67691944 -19.18341915 12.58307323 -26.05859375 12.8359375 C-32.69213883 13.72863558 -36.47898957 16.54927261 -40.50390625 21.75390625 C-45.60623278 29.15763181 -45.35371802 37.68130312 -44.62890625 46.31640625 C-43.09117864 52.6751177 -40.29723596 57.75922725 -35.62890625 62.31640625 C-30.97496636 65.15335074 -27.48501702 65.69998793 -22.06640625 65.62890625 C-20.78636719 65.62503906 -19.50632813 65.62117187 -18.1875 65.6171875 C-14.28720979 65.46187136 -14.28720979 65.46187136 -9.62890625 63.31640625 C-9.29890625 59.02640625 -8.96890625 54.73640625 -8.62890625 50.31640625 C-14.23890625 50.31640625 -19.84890625 50.31640625 -25.62890625 50.31640625 C-25.62890625 44.70640625 -25.62890625 39.09640625 -25.62890625 33.31640625 C-14.07890625 33.31640625 -2.52890625 33.31640625 9.37109375 33.31640625 C9.53220054 38.76335023 9.67137162 44.20198144 9.75561523 49.64941406 C9.79073583 51.50028538 9.83844564 53.3509636 9.89916992 55.20117188 C9.98446926 57.86767216 10.02386255 60.53159934 10.0546875 63.19921875 C10.108881 64.43238327 10.108881 64.43238327 10.16416931 65.69046021 C10.16651764 69.15645992 10.10990676 71.40547048 7.8775177 74.15794373 C4.29976124 77.29958767 0.6421617 79.4043114 -3.81640625 81.12890625 C-4.82058594 81.52722656 -5.82476562 81.92554688 -6.859375 82.3359375 C-18.07567513 86.30672922 -31.95823841 85.87162201 -42.76171875 80.9921875 C-53.15151455 74.91967742 -60.57428767 65.94970343 -64.0859375 54.45703125 C-67.55999323 40.76075398 -66.80936724 26.52590732 -59.87890625 14.12890625 C-53.87158188 4.68882509 -45.57887406 -2.24737357 -34.65625 -5.17578125 C-22.76197981 -7.17094915 -10.3827948 -6.64930841 0 0 Z " fill="#024B29" transform="translate(254.62890625,699.68359375)"/>
<path d="M0 0 C6.6 0 13.2 0 20 0 C20.98097656 2.64 21.96195313 5.28 22.97265625 8 C23.97598931 10.6991039 24.97953082 13.39813018 25.98312378 16.09713745 C26.70157604 18.02933506 27.41993976 19.96156559 28.13821411 21.89382935 C32.19650161 32.80973029 36.26513427 43.72155494 40.3671875 54.62109375 C40.71263107 55.53952057 41.05807465 56.45794739 41.41398621 57.40420532 C43.06948338 61.80504344 44.72735022 66.20496521 46.38891602 70.60351562 C46.98722762 72.19267607 47.58545806 73.78186708 48.18359375 75.37109375 C48.45577728 76.08897568 48.72796082 76.8068576 49.00839233 77.54649353 C50.18968495 80.69109246 51.18349186 83.73396743 52 87 C45.4 87 38.8 87 32 87 C31.175 84.56625 30.35 82.1325 29.5 79.625 C29.23896484 78.86010254 28.97792969 78.09520508 28.70898438 77.30712891 C27 72.22222222 27 72.22222222 27 70 C15.78 70 4.56 70 -7 70 C-7.99 73.63 -8.98 77.26 -10 81 C-10.66 82.98 -11.32 84.96 -12 87 C-18.27 87 -24.54 87 -31 87 C-28.93537903 79.91631791 -26.63408214 72.97122329 -24.12109375 66.03515625 C-23.75233627 65.01106155 -23.3835788 63.98696686 -23.00364685 62.93183899 C-21.81770628 59.64105046 -20.62776819 56.35172544 -19.4375 53.0625 C-18.62310911 50.80618862 -17.80881902 48.54984086 -16.99462891 46.29345703 C-11.4103191 30.83211957 -5.76893189 15.39348158 0 0 Z " fill="#034A28" transform="translate(136,696)"/>
<path d="M0 0 C6.27 0 12.54 0 19 0 C19.01401855 2.61808594 19.01401855 2.61808594 19.02832031 5.2890625 C19.06396035 11.08072056 19.11782964 16.87205806 19.18390274 22.66343689 C19.22327316 26.17196416 19.25551207 29.6802444 19.27099609 33.18896484 C19.28915344 37.23054558 19.33914953 41.27120524 19.390625 45.3125 C19.39185364 46.5617627 19.39308228 47.81102539 19.39434814 49.09814453 C19.51239592 56.16605943 20.05936333 61.04948037 24 67 C28.21406548 70.3195471 31.83409163 71.30449968 37.1875 70.9375 C41.04972231 70.33921096 43.96066231 69.57883198 47 67 C50.47981786 62.15311084 51.11600728 58.09095007 51.20532227 52.22167969 C51.22526749 51.0607782 51.24521271 49.89987671 51.26576233 48.70379639 C51.28247482 47.45576233 51.29918732 46.20772827 51.31640625 44.921875 C51.33718735 43.64016418 51.35796844 42.35845337 51.37937927 41.03790283 C51.43444747 37.63823728 51.48392364 34.23851262 51.53222656 30.83874512 C51.58255332 27.36640186 51.63818093 23.89414395 51.69335938 20.421875 C51.80075425 13.61465584 51.90175013 6.80735723 52 0 C58.27 0 64.54 0 71 0 C71.09081509 8.02421195 71.16400939 16.04801608 71.20724869 24.07260609 C71.22801431 27.79982092 71.25612611 31.52666219 71.30175781 35.25366211 C71.3456147 38.85877272 71.36921972 42.46352685 71.37950897 46.0688839 C71.38682972 47.435855 71.4011229 48.80280933 71.42292023 50.16962624 C71.61015188 62.41075107 69.8141834 72.1175692 61.14453125 81.125 C51.83356053 89.26573943 39.91313768 89.78594465 28.13525391 89.18652344 C18.95640889 88.3847126 11.97086005 83.84161048 6 77 C4.3059031 74.429978 3.05863868 71.88520179 2 69 C1.65913361 68.1009494 1.31826721 67.2018988 0.96707153 66.27560425 C-0.04627374 62.8432645 -0.24138779 60.10556016 -0.22705078 56.53564453 C-0.22682419 54.64436325 -0.22682419 54.64436325 -0.22659302 52.71487427 C-0.21638217 51.35418537 -0.20595022 49.99349812 -0.1953125 48.6328125 C-0.19157824 47.22891441 -0.18873322 45.8250137 -0.18673706 44.42111206 C-0.17913304 40.74186903 -0.1595127 37.06278611 -0.1373291 33.38360596 C-0.11680071 29.62294683 -0.10772044 25.86226161 -0.09765625 22.1015625 C-0.0762634 14.73429386 -0.04110802 7.36718984 0 0 Z " fill="#024A28" transform="translate(693,695)"/>
<path d="M0 0 C6.27 0 12.54 0 19 0 C19.06808015 7.7806882 19.12299024 15.56121029 19.15543652 23.3421154 C19.17101793 26.95605511 19.19211627 30.56977849 19.22631836 34.18359375 C19.25918345 37.67845884 19.27690942 41.17311732 19.28463173 44.66812515 C19.29278089 46.63435945 19.31615582 48.60051194 19.33988953 50.56661987 C19.34201712 62.02659621 17.39736914 72.1021032 9.40234375 80.72265625 C5.28938311 84.5358111 1.33415755 86.33854109 -4 88 C-4.57234375 88.18304687 -5.1446875 88.36609375 -5.734375 88.5546875 C-15.62129458 90.49797859 -27.14889094 89.99518036 -36 85 C-38.94409041 82.89422686 -41.49136365 80.60375052 -44 78 C-45.1446875 76.8553125 -45.1446875 76.8553125 -46.3125 75.6875 C-51.58115415 67.29668043 -51.40705146 58.07274885 -51.29296875 48.4609375 C-51.28736007 47.08517931 -51.283096 45.70941505 -51.28010559 44.33364868 C-51.26875667 40.74642835 -51.2393781 37.15958365 -51.20599365 33.57250977 C-51.17507545 29.89865192 -51.16155422 26.22473223 -51.14648438 22.55078125 C-51.11449636 15.36699799 -51.06181281 8.18359989 -51 1 C-45.06 1 -39.12 1 -33 1 C-32.98541748 2.65451172 -32.97083496 4.30902344 -32.95581055 6.01367188 C-32.89769436 12.17144017 -32.82046128 18.3288479 -32.73754883 24.48632812 C-32.70274213 27.14782607 -32.67631239 29.80903143 -32.65356445 32.47070312 C-32.61990411 36.30368497 -32.56757986 40.13603516 -32.51171875 43.96875 C-32.50532883 45.15239136 -32.4989389 46.33603271 -32.49235535 47.55554199 C-32.35193608 55.5047515 -31.70450204 61.5837869 -26.625 68 C-21.87581806 71.52012229 -15.56219228 70.75011753 -10 70 C-5.44008991 68.03452151 -3.47889354 65.89403318 -1.61776733 61.31149292 C-0.23693421 56.14484553 -0.51534234 50.72259673 -0.48828125 45.41015625 C-0.47033005 44.11049423 -0.45237885 42.81083221 -0.43388367 41.4717865 C-0.38661283 38.03763816 -0.35665628 34.60355446 -0.33044434 31.16918945 C-0.30052214 27.65628296 -0.25403229 24.1435987 -0.20898438 20.63085938 C-0.12321262 13.7540185 -0.05728573 6.87713661 0 0 Z " fill="#014A28" transform="translate(530,695)"/>
<path d="M0 0 C18.15 0 36.3 0 55 0 C55 5.61 55 11.22 55 17 C42.79 17 30.58 17 18 17 C18 23.6 18 30.2 18 37 C28.89 37 39.78 37 51 37 C51 41.95 51 46.9 51 52 C40.11 52 29.22 52 18 52 C18 58.27 18 64.54 18 71 C30.54 71 43.08 71 56 71 C56 76.28 56 81.56 56 87 C37.52 87 19.04 87 0 87 C0 58.29 0 29.58 0 0 Z " fill="#034928" transform="translate(862,695)"/>
<path d="M0 0 C2.99630276 2.23970407 4.85043887 3.8069083 6.9375 6.9375 C2.9775 10.5675 -0.9825 14.1975 -5.0625 17.9375 C-9.0625 15.9375 -9.0625 15.9375 -10.67578125 14.6484375 C-16.20886933 10.2982855 -21.6170547 10.20124063 -28.4921875 10.4609375 C-34.40918185 11.25073325 -37.84310042 13.20329124 -41.578125 17.8046875 C-46.6516864 25.298396 -47.87667053 33.03172692 -47.0625 41.9375 C-45.21983791 50.53210638 -41.11438018 56.75652681 -34.0625 61.9375 C-28.99173685 64.81550071 -23.31037911 64.6326982 -17.7265625 63.4375 C-12.38263529 61.83249797 -8.43286925 59.37800345 -4.0625 55.9375 C-0.4325 59.5675 3.1975 63.1975 6.9375 66.9375 C0.26520481 75.23718426 -6.58936521 80.87846474 -17.48852539 82.24072266 C-19.97972302 82.37376591 -22.44300899 82.40532669 -24.9375 82.375 C-26.25186035 82.36364014 -26.25186035 82.36364014 -27.59277344 82.35205078 C-39.22186588 82.05668822 -47.7222133 78.19983235 -55.96875 70.0546875 C-66.58287217 58.58603855 -67.63574436 46.61876856 -67.375 31.578125 C-66.97018742 21.34311366 -63.87436932 13.54106357 -57.0625 5.9375 C-56.56105469 5.33292969 -56.05960937 4.72835937 -55.54296875 4.10546875 C-40.99238944 -12.14444828 -16.84542782 -11.8332048 0 0 Z " fill="#024928" transform="translate(460.0625,702.0625)"/>
<path d="M0 0 C22.11 0 44.22 0 67 0 C67 5.61 67 11.22 67 17 C59.08 17 51.16 17 43 17 C43 40.43 43 63.86 43 88 C36.73 88 30.46 88 24 88 C24 64.57 24 41.14 24 17 C16.08 17 8.16 17 0 17 C0 11.39 0 5.78 0 0 Z " fill="#004A29" transform="translate(616,695)"/>
<path d="M0 0 C6.27 0 12.54 0 19 0 C19 23.43 19 46.86 19 71 C30.88 71 42.76 71 55 71 C55 76.61 55 82.22 55 88 C36.85 88 18.7 88 0 88 C0 58.96 0 29.92 0 0 Z " fill="#024D2B" transform="translate(566,695)"/>
<path d="M0 0 C6.86682782 6.23146297 9.95363615 11.48577753 10.4375 20.75 C10.30690279 28.25001119 7.87404556 34.12595444 2.5625 39.4375 C-2.96105328 42.80552029 -7.28622816 44.56134152 -13.8125 44.5 C-14.51737549 44.49427979 -15.22225098 44.48855957 -15.94848633 44.48266602 C-22.96797962 44.24278689 -27.7779069 42.42945553 -32.578125 37.3203125 C-37.18048425 31.36898588 -38.53714815 25.32758712 -38.375 17.87890625 C-37.52092854 11.32212849 -34.40473789 5.94409833 -29.5625 1.5 C-21.65733307 -4.47954935 -8.53469417 -5.63077333 0 0 Z " fill="#4CA038" transform="translate(414,826)"/>
<path d="M0 0 C6.27 0 12.54 0 19 0 C19 29.04 19 58.08 19 88 C12.73 88 6.46 88 0 88 C0 58.96 0 29.92 0 0 Z " fill="#004D2B" transform="translate(360,695)"/>
<path d="M0 0 C3.3 0 6.6 0 10 0 C12.63290363 3.09753368 14.16617116 5.47074449 16 9 C17.289072 11.12657498 18.58078218 13.2515528 19.875 15.375 C23 20.61038961 23 20.61038961 23 24 C23.66 24 24.32 24 25 24 C25.3403125 22.80503906 25.3403125 22.80503906 25.6875 21.5859375 C27.37205989 16.98347923 29.56891034 12.87094211 32 8.625 C32.43183594 7.79355469 32.86367188 6.96210937 33.30859375 6.10546875 C34.6875 3.7265625 34.6875 3.7265625 38 0 C41.3 0 44.6 0 48 0 C48 15.18 48 30.36 48 46 C45.03 46 42.06 46 39 46 C38.67 36.76 38.34 27.52 38 18 C34.75216558 23.87775627 34.75216558 23.87775627 31.50805664 29.75756836 C30.90272095 30.85016968 30.90272095 30.85016968 30.28515625 31.96484375 C29.87144775 32.7137085 29.45773926 33.46257324 29.03149414 34.23413086 C28 36 28 36 27 37 C25.02 37 23.04 37 21 37 C17.7 31.06 14.4 25.12 11 19 C10.67 27.91 10.34 36.82 10 46 C6.7 46 3.4 46 0 46 C0 30.82 0 15.64 0 0 Z " fill="#499E34" transform="translate(516,824)"/>
<path d="M0 0 C10 0 10 0 12.42041016 2.11132812 C12.95456543 3.07490234 13.4887207 4.03847656 14.0390625 5.03125 C14.58256348 5.96517578 15.12606445 6.89910156 15.68603516 7.86132812 C16.32589355 9.06208984 16.96575195 10.26285156 17.625 11.5 C19.72875 15.295 21.8325 19.09 24 23 C28.29 15.41 32.58 7.82 37 0 C40.63 0 44.26 0 48 0 C48 15.18 48 30.36 48 46 C45.03 46 42.06 46 39 46 C38.67 36.43 38.34 26.86 38 17 C34.37 23.6 30.74 30.2 27 37 C25.02 37 23.04 37 21 37 C19.30908203 35.25585938 19.30908203 35.25585938 18.0078125 32.84375 C17.5761377 32.07224609 17.14446289 31.30074219 16.69970703 30.50585938 C16.18005371 29.51392578 15.66040039 28.52199219 15.125 27.5 C13.43375 24.365 11.7425 21.23 10 18 C9.67 27.24 9.34 36.48 9 46 C6.03 46 3.06 46 0 46 C0 30.82 0 15.64 0 0 Z " fill="#4B9F37" transform="translate(445,824)"/>
<path d="M0 0 C5.754375 -0.0928125 5.754375 -0.0928125 11.625 -0.1875 C13.42251709 -0.22846802 13.42251709 -0.22846802 15.25634766 -0.27026367 C20.88772647 -0.31423666 25.20662686 -0.3324604 30 3 C34.23488078 7.69270573 35.29822322 10.50064489 35.21875 16.6796875 C34.80741524 21.0427741 33.13968539 23.96392237 29.9375 26.875 C28 28 28 28 26 28 C26.45439453 28.7113208 26.45439453 28.7113208 26.91796875 29.43701172 C28.28331246 31.58007621 29.64172139 33.72745138 31 35.875 C31.47695313 36.62136719 31.95390625 37.36773438 32.4453125 38.13671875 C32.89648438 38.85214844 33.34765625 39.56757812 33.8125 40.3046875 C34.23144531 40.96452637 34.65039062 41.62436523 35.08203125 42.30419922 C36 44 36 44 36 46 C32.36368269 46.95652606 29.60205548 47.17577468 26 46 C22.05872894 42.10269418 19.4414985 36.91838103 17 32 C17 31.34 17 30.68 17 30 C14.69 30 12.38 30 10 30 C10 35.28 10 40.56 10 46 C6.7 46 3.4 46 0 46 C0 30.82 0 15.64 0 0 Z " fill="#4DA039" transform="translate(640,824)"/>
<path d="M0 0 C10.23 0 20.46 0 31 0 C31 2.64 31 5.28 31 8 C23.74 8 16.48 8 9 8 C9 11.3 9 14.6 9 18 C15.27 18 21.54 18 28 18 C28 20.97 28 23.94 28 27 C21.73 27 15.46 27 9 27 C9 30.3 9 33.6 9 37 C16.59 37 24.18 37 32 37 C32 39.97 32 42.94 32 46 C21.44 46 10.88 46 0 46 C0 30.82 0 15.64 0 0 Z " fill="#4EA039" transform="translate(755,824)"/>
<path d="M0 0 C9.9 0 19.8 0 30 0 C30 2.64 30 5.28 30 8 C23.07 8 16.14 8 9 8 C9 11.3 9 14.6 9 18 C15.27 18 21.54 18 28 18 C28 20.97 28 23.94 28 27 C21.73 27 15.46 27 9 27 C9 30.3 9 33.6 9 37 C16.26 37 23.52 37 31 37 C31 39.97 31 42.94 31 46 C20.77 46 10.54 46 0 46 C0 30.82 0 15.64 0 0 Z " fill="#4A9F36" transform="translate(588,824)"/>
<path d="M0 0 C9.9 0 19.8 0 30 0 C30 2.64 30 5.28 30 8 C23.07 8 16.14 8 9 8 C9 11.3 9 14.6 9 18 C15.27 18 21.54 18 28 18 C28 20.97 28 23.94 28 27 C21.73 27 15.46 27 9 27 C9 30.3 9 33.6 9 37 C16.26 37 23.52 37 31 37 C31 39.97 31 42.94 31 46 C20.77 46 10.54 46 0 46 C0 30.82 0 15.64 0 0 Z " fill="#4A9E35" transform="translate(233,824)"/>
<path d="M0 0 C2.96006558 1.69146605 5.50375681 3.5014075 8.0625 5.75 C6.77730435 8.61697492 5.49120746 10.72607712 3.0625 12.75 C2.4025 12.75 1.7425 12.75 1.0625 12.75 C1.0625 12.09 1.0625 11.43 1.0625 10.75 C-3.4090837 8.58633047 -7.98420438 7.66894607 -12.9375 7.75 C-16.20418379 9.1702973 -18.6559863 11.01218356 -20.9375 13.75 C-22.74699727 19.1784918 -22.61645797 24.7131261 -20.8125 30.125 C-18.18513565 33.80331009 -15.5356868 36.29659093 -10.9453125 37.09765625 C-6.3831774 37.2956357 -3.59642936 36.36352097 0.0625 33.75 C1.0525 33.42 2.0425 33.09 3.0625 32.75 C5.75 34.6875 5.75 34.6875 8.0625 36.75 C6.56771886 40.55489745 4.36807786 42.41190835 1.0625 44.75 C-5.47793933 46.93014644 -15.0945069 47.07888509 -21.5 44.25 C-26.78496996 40.9915109 -29.97280498 36.07403801 -32.3125 30.4375 C-33.54787571 23.14878329 -34.1539433 16.1981902 -30.33984375 9.6015625 C-23.02821383 -0.05223299 -11.78799013 -4.74110372 0 0 Z " fill="#4DA139" transform="translate(351.9375,824.25)"/>
<path d="M0 0 C3.40645123 1.78590647 4.94618337 3.154913 6.375 6.75 C4.395 8.4 2.415 10.05 0.375 11.75 C-0.429375 11.110625 -1.23375 10.47125 -2.0625 9.8125 C-6.00041028 7.21515492 -9.93004761 6.39661649 -14.625 6.75 C-19.03731959 8.87445017 -21.86362151 11.15084506 -23.625 15.75 C-24.28698068 21.09488104 -24.29832051 25.35348339 -21.9375 30.25 C-18.33084773 34.14908353 -16.15556641 35.57436123 -10.8125 36.1875 C-6.1514882 36.036572 -2.56738007 34.09865196 1.375 31.75 C3.85 33.73 3.85 33.73 6.375 35.75 C4.88021886 39.55489745 2.68057786 41.41190835 -0.625 43.75 C-7.16543933 45.93014644 -16.7820069 46.07888509 -23.1875 43.25 C-28.30347765 40.10685033 -31.41107175 35.23303505 -34 29.9375 C-35.45006763 22.54215509 -35.47175041 15.65174369 -32.02734375 8.82421875 C-24.58511575 -2.18364495 -12.07728136 -5.69683083 0 0 Z " fill="#469D32" transform="translate(727.625,825.25)"/>
<path d="M0 0 C3.9138922 1.94432064 6.37834741 4.50890037 8.28125 8.34765625 C9.51123285 12.05943881 9.63471395 15.50214053 8.94140625 19.33984375 C6.72764203 23.68538093 4.15768271 26.86507278 -0.05859375 29.33984375 C-4.78452747 30.49559974 -8.71544525 30.77066497 -13.37109375 29.27734375 C-17.11125418 26.58094902 -19.9716649 23.51370145 -22.05859375 19.33984375 C-22.59894969 14.41463225 -22.60294844 10.47042657 -20.43359375 5.96484375 C-14.57323094 -0.51239935 -8.47719946 -2.7184947 0 0 Z " fill="#F7F4EB" transform="translate(448.05859375,582.66015625)"/>
<path d="M0 0 C4.23301121 2.82200747 7.17159664 5.95228992 8.8125 10.875 C9.20930449 16.13265945 8.70748146 19.43602842 5.8125 23.875 C1.91444956 27.8263025 -1.32948075 29.72016506 -6.9375 30.1875 C-11.51652268 30.11174411 -14.64827424 28.74222087 -18.1875 25.875 C-21.4501957 22.36132771 -22.46688306 19.62738919 -22.6875 14.9375 C-22.4477505 9.79448649 -21.36056075 6.94302661 -18.1875 2.875 C-12.63747022 -1.8600887 -6.86343823 -2.42238996 0 0 Z " fill="#F7F4EA" transform="translate(622.1875,583.125)"/>
<path d="M0 0 C3.23546115 1.76107379 5.40595464 4.05492783 7.375 7.1875 C8.55674885 12.50536982 8.94880705 17.81774379 6.75 22.875 C1.97297297 28.67567568 1.97297297 28.67567568 -2 30 C-6.50952717 30.25052929 -10.0454117 30.28949849 -14 28 C-17.94968549 24.0056853 -20.14741065 20.89241445 -20.25 15.25 C-20.19172005 10.75596793 -19.60877529 7.77822629 -17 4 C-11.54060938 -1.04993633 -7.06541004 -1.760324 0 0 Z " fill="#FAF6EB" transform="translate(406,832)"/>
<path d="M0 0 C3.3 0 6.6 0 10 0 C12.63294834 3.09758628 14.16240214 5.47299765 16 9 C17.31194133 11.12534496 18.62444975 13.25033996 19.9375 15.375 C21.77734375 18.3984375 21.77734375 18.3984375 23 21 C22 24 22 24 19.9375 25.1875 C19.298125 25.455625 18.65875 25.72375 18 26 C18.33 27.65 18.66 29.3 19 31 C16 28 16 28 11 19 C10.67 27.91 10.34 36.82 10 46 C6.7 46 3.4 46 0 46 C0 30.82 0 15.64 0 0 Z " fill="#50A13C" transform="translate(516,824)"/>
<path d="M0 0 C6.27 0 12.54 0 19 0 C19 29.04 19 58.08 19 88 C12.73 88 6.46 88 0 88 C0 58.96 0 29.92 0 0 Z M3 3 C3 30.06 3 57.12 3 85 C7.29 85 11.58 85 16 85 C16 57.94 16 30.88 16 3 C11.71 3 7.42 3 3 3 Z " fill="#013D1E" transform="translate(360,695)"/>
<path d="M0 0 C4.021875 -0.0928125 4.021875 -0.0928125 8.125 -0.1875 C8.95789551 -0.21481201 9.79079102 -0.24212402 10.64892578 -0.27026367 C15.51434687 -0.32424651 18.7894438 0.30499039 23 3 C25.78945399 6.22989409 26.89519026 8.2663318 27.5 12.5 C26.89519026 16.7336682 25.78945399 18.77010591 23 22 C17.95854551 25.22683458 13.89128686 25.37658602 8.125 25.1875 C5.44375 25.125625 2.7625 25.06375 0 25 C0 16.75 0 8.5 0 0 Z " fill="#F7F4E9" transform="translate(298,712)"/>
<path d="M0 0 C4.021875 -0.0928125 4.021875 -0.0928125 8.125 -0.1875 C8.95789551 -0.21481201 9.79079102 -0.24212402 10.64892578 -0.27026367 C15.50534688 -0.32414665 18.83050747 0.24714514 23 3 C25.99163411 5.99163411 26.43170826 8.26165891 26.4375 12.4375 C26.34048824 16.26180579 26.13604107 17.77326488 24.125 21.125 C21.05054391 23.83775537 19.43635748 24.12301492 15.4296875 24.09765625 C14.62257324 24.09515869 13.81545898 24.09266113 12.98388672 24.09008789 C11.9579541 24.08098389 10.93202148 24.07187988 9.875 24.0625 C4.986875 24.0315625 4.986875 24.0315625 0 24 C0 16.08 0 8.16 0 0 Z " fill="#F7F4EB" transform="translate(800,712)"/>
<path d="M0 0 C3 1 3 1 4.16796875 2.77734375 C4.50441406 3.49019531 4.84085938 4.20304687 5.1875 4.9375 C5.53167969 5.64777344 5.87585938 6.35804688 6.23046875 7.08984375 C7 9 7 9 7 11 C-43.16 11 -93.32 11 -145 11 C-145 10.34 -145 9.68 -145 9 C-110.60468949 7.99011114 -76.21978082 7.91120981 -41.8125 7.9375 C-40.12018627 7.93878403 -40.12018627 7.93878403 -38.39368439 7.94009399 C-24.26244084 7.9516017 -10.1312198 7.97184393 4 8 C2.02 4.04 2.02 4.04 0 0 Z " fill="#EBEEE5" transform="translate(510,338)"/>
<path d="M0 0 C6.27 0 12.54 0 19 0 C19 23.43 19 46.86 19 71 C17.515 71.495 17.515 71.495 16 72 C16 49.23 16 26.46 16 3 C11.71 3 7.42 3 3 3 C3 30.06 3 57.12 3 85 C19.17 85 35.34 85 52 85 C52 81.37 52 77.74 52 74 C41.11 74 30.22 74 19 74 C19 73.67 19 73.34 19 73 C30.22 73 41.44 73 53 73 C53 77.29 53 81.58 53 86 C36.17 86 19.34 86 2 86 C2 58.28 2 30.56 2 2 C1.34 2 0.68 2 0 2 C0 1.34 0 0.68 0 0 Z " fill="#0E5B38" transform="translate(566,695)"/>
<path d="M0 0 C0.66 0 1.32 0 2 0 C3.42808369 4.09206747 4.85214285 8.18550604 6.27246094 12.28027344 C6.75637735 13.67356297 7.2413986 15.06646928 7.72753906 16.45898438 C8.42542506 18.4586414 9.1193484 20.45963523 9.8125 22.4609375 C10.23144531 23.66540527 10.65039062 24.86987305 11.08203125 26.11083984 C12 29 12 29 12 31 C4.74 31 -2.52 31 -10 31 C-9.20792137 27.03960687 -8.25753274 23.60956545 -6.93359375 19.82421875 C-6.53076172 18.66728516 -6.12792969 17.51035156 -5.71289062 16.31835938 C-5.29201172 15.12017578 -4.87113281 13.92199219 -4.4375 12.6875 C-4.01275391 11.46998047 -3.58800781 10.25246094 -3.15039062 8.99804688 C-2.10319604 5.99765789 -1.05296597 2.99836741 0 0 Z " fill="#F6F5EC" transform="translate(145,719)"/>
<path d="M0 0 C3.12168908 1.89382471 5.3397695 4.34610787 7.7578125 7.06640625 C7.4278125 7.72640625 7.0978125 8.38640625 6.7578125 9.06640625 C4.7778125 7.41640625 2.7978125 5.76640625 0.7578125 4.06640625 C0.6134375 4.64390625 0.4690625 5.22140625 0.3203125 5.81640625 C-0.20052083 7.89973958 -0.72135417 9.98307292 -1.2421875 12.06640625 C-1.8815625 11.42703125 -2.5209375 10.78765625 -3.1796875 10.12890625 C-7.16513934 7.44482644 -10.47155727 6.84764719 -15.2421875 7.06640625 C-19.47077647 8.55424311 -21.94786836 10.20228981 -24.2421875 14.06640625 C-25.68958129 18.40858761 -25.77234056 22.52829606 -25.2421875 27.06640625 C-23.51808634 30.48864156 -23.51808634 30.48864156 -21.2421875 33.06640625 C-20.5821875 34.05640625 -19.9221875 35.04640625 -19.2421875 36.06640625 C-23.50559486 34.54376076 -25.16831405 31.99961451 -27.2421875 28.06640625 C-28.22244592 23.4648626 -28.39365182 18.76180021 -28.2421875 14.06640625 C-28.9021875 13.73640625 -29.5621875 13.40640625 -30.2421875 13.06640625 C-29.9121875 12.73640625 -29.5821875 12.40640625 -29.2421875 12.06640625 C-30.2321875 12.06640625 -31.2221875 12.06640625 -32.2421875 12.06640625 C-32.9021875 12.72640625 -33.5621875 13.38640625 -34.2421875 14.06640625 C-33.91986557 8.74809433 -31.07802049 5.48143056 -27.2421875 2.06640625 C-19.2847794 -3.31192096 -8.77176926 -3.79865322 0 0 Z " fill="#449C30" transform="translate(412.2421875,824.93359375)"/>
<path d="M0 0 C0.66 0 1.32 0 2 0 C2 27.72 2 55.44 2 84 C18.83 84 35.66 84 53 84 C53 79.71 53 75.42 53 71 C41.45 71 29.9 71 18 71 C18 70.67 18 70.34 18 70 C30.21 70 42.42 70 55 70 C55 75.28 55 80.56 55 86 C36.85 86 18.7 86 0 86 C0 57.62 0 29.24 0 0 Z " fill="#113F22" transform="translate(566,697)"/>
<path d="M0 0 C6.27 0 12.54 0 19 0 C19 18.48 19 36.96 19 56 C17.515 56.495 17.515 56.495 16 57 C16 39.18 16 21.36 16 3 C11.71 3 7.42 3 3 3 C3.01047363 4.60439941 3.02094727 6.20879883 3.03173828 7.86181641 C3.06797424 13.82175459 3.09091372 19.78168306 3.10986328 25.74169922 C3.11991262 28.31984088 3.13355426 30.89797118 3.15087891 33.47607422 C3.17517367 37.18459889 3.18649396 40.89297268 3.1953125 44.6015625 C3.20563507 45.75177887 3.21595764 46.90199524 3.22659302 48.08706665 C3.22734102 53.43814038 3.21379019 58.01322695 1 63 C0.67 63 0.34 63 0 63 C0 42.21 0 21.42 0 0 Z " fill="#135030" transform="translate(693,695)"/>
<path d="M0 0 C22.11 0 44.22 0 67 0 C67 5.61 67 11.22 67 17 C59.08 17 51.16 17 43 17 C43 16.67 43 16.34 43 16 C50.26 16 57.52 16 65 16 C65 11.38 65 6.76 65 2 C44.21 2 23.42 2 2 2 C2 6.62 2 11.24 2 16 C9.59 16 17.18 16 25 16 C25 39.43 25 62.86 25 87 C30.94 87 36.88 87 43 87 C43 87.33 43 87.66 43 88 C36.73 88 30.46 88 24 88 C24 64.57 24 41.14 24 17 C16.08 17 8.16 17 0 17 C0 11.39 0 5.78 0 0 Z " fill="#385942" transform="translate(616,695)"/>
<path d="M0 0 C7.81452752 -0.02526563 15.62904458 -0.04283105 23.44360352 -0.05493164 C26.10441481 -0.05997383 28.76522332 -0.06680736 31.42602539 -0.07543945 C35.24105516 -0.08751009 39.05604844 -0.09322929 42.87109375 -0.09765625 C44.66793861 -0.10539818 44.66793861 -0.10539818 46.50108337 -0.11329651 C48.15268211 -0.11340981 48.15268211 -0.11340981 49.83764648 -0.11352539 C50.81249496 -0.115746 51.78734344 -0.11796661 52.79173279 -0.12025452 C55 0 55 0 56 1 C56.0983721 2.33043625 56.13078592 3.66593344 56.1328125 5 C56.13474609 6.2065625 56.13474609 6.2065625 56.13671875 7.4375 C56.13285156 8.283125 56.12898437 9.12875 56.125 10 C56.13080078 11.2684375 56.13080078 11.2684375 56.13671875 12.5625 C56.13542969 13.366875 56.13414062 14.17125 56.1328125 15 C56.13168457 15.7425 56.13055664 16.485 56.12939453 17.25 C56 19 56 19 55 20 C52.3337397 20.08855161 49.69352886 20.11524673 47.02734375 20.09765625 C46.22970108 20.0962413 45.43205841 20.09482635 44.61024475 20.09336853 C42.05262565 20.08775316 39.49509282 20.07519812 36.9375 20.0625 C35.20768355 20.05748698 33.47786574 20.05292373 31.74804688 20.04882812 C27.49863761 20.03862791 23.24941584 20.01905568 19 20 C19 25.28 19 30.56 19 36 C29.56 36 40.12 36 51 36 C51 36.66 51 37.32 51 38 C39.78 38 28.56 38 17 38 C17 31.4 17 24.8 17 18 C29.21 18 41.42 18 54 18 C54 12.39 54 6.78 54 1 C36.18 1 18.36 1 0 1 C0 0.67 0 0.34 0 0 Z " fill="#D9E3DC" transform="translate(863,694)"/>
<path d="M0 0 C42.9 0 85.8 0 130 0 C129.34 1.32 128.68 2.64 128 4 C128 3.34 128 2.68 128 2 C127.32113235 2.00222061 126.64226471 2.00444122 125.94282532 2.00672913 C117.06606159 2.03431059 108.18929839 2.05201963 99.3125 2.0625 C98.59269581 2.06335602 97.87289162 2.06421204 97.13127518 2.06509399 C65.4088433 2.09833179 33.71897959 1.59988614 2 1 C2 20.47 2 39.94 2 60 C1.67 60 1.34 60 1 60 C0.67 40.2 0.34 20.4 0 0 Z " fill="#FCFDFB" transform="translate(544,377)"/>
<path d="M0 0 C6.27 0 12.54 0 19 0 C19 29.04 19 58.08 19 88 C12.73 88 6.46 88 0 88 C0 87.67 0 87.34 0 87 C5.94 87 11.88 87 18 87 C17.67 58.95 17.34 30.9 17 2 C11.72 2 6.44 2 1 2 C1 29.72 1 57.44 1 86 C0.67 86 0.34 86 0 86 C0 57.62 0 29.24 0 0 Z " fill="#32694C" transform="translate(360,695)"/>
<path d="M0 0 C6.27 0 12.54 0 19 0 C19.04526175 7.8497804 19.08192242 15.69948892 19.10362434 23.54936409 C19.11404243 27.19474274 19.12816533 30.84002714 19.15087891 34.48535156 C19.17267804 38.00612179 19.18458347 41.5268016 19.18975449 45.04763412 C19.19522478 47.03838841 19.21082641 49.02910654 19.22659302 51.01980591 C19.22674408 52.24061859 19.22689514 53.46143127 19.22705078 54.71923828 C19.231492 55.78957306 19.23593323 56.85990784 19.24050903 57.962677 C18.98069866 61.2437513 18.16038227 63.93080451 17 67 C15.94900811 63.58204921 15.91198983 60.51076932 15.97827148 56.94628906 C15.99836777 55.72532532 16.01846405 54.50436157 16.03916931 53.24639893 C16.06620438 51.93274353 16.09323944 50.61908813 16.12109375 49.265625 C16.14540854 47.9037151 16.16925141 46.54179669 16.19264221 45.17987061 C16.25534807 41.60250129 16.32445256 38.02528325 16.39489746 34.44805908 C16.46570318 30.79486964 16.5304468 27.14157329 16.59570312 23.48828125 C16.72454139 16.32540011 16.86070097 9.16268674 17 2 C11.72 2 6.44 2 1 2 C1 20.81 1 39.62 1 59 C0.67 59 0.34 59 0 59 C0 39.53 0 20.06 0 0 Z " fill="#233E2A" transform="translate(530,695)"/>
<path d="M0 0 C29.04 0 58.08 0 88 0 C87.67 5.94 87.34 11.88 87 18 C86.67 18 86.34 18 86 18 C83.71428571 6.57142857 83.71428571 6.57142857 86 2 C57.95 2 29.9 2 1 2 C1.33 4.64 1.66 7.28 2 10 C1.5625 13 1.5625 13 1 15 C0.67 15 0.34 15 0 15 C0 10.05 0 5.1 0 0 Z " fill="#D9E5DC" transform="translate(485,589)"/>
<path d="M0 0 C10.23 0 20.46 0 31 0 C31 0.33 31 0.66 31 1 C21.43 1 11.86 1 2 1 C2 15.19 2 29.38 2 44 C11.24 44 20.48 44 30 44 C30 42.35 30 40.7 30 39 C23.07 39 16.14 39 9 39 C9 38.67 9 38.34 9 38 C16.59 37.67 24.18 37.34 32 37 C32 39.97 32 42.94 32 46 C21.44 46 10.88 46 0 46 C0 30.82 0 15.64 0 0 Z " fill="#3A9724" transform="translate(755,824)"/>
<path d="M0 0 C10.31991701 -0.36856846 10.31991701 -0.36856846 13.328125 1.26171875 C15.30971035 3.32201193 15.54271912 4.18053796 15.5 7 C15.5103125 7.680625 15.520625 8.36125 15.53125 9.0625 C15 11 15 11 13.328125 12.73828125 C9.09678784 15.0314388 4.71730274 14.1684751 0 14 C0 9.38 0 4.76 0 0 Z " fill="#F8F6EC" transform="translate(650,832)"/>
<path d="M0 0 C11.55 0 23.1 0 35 0 C35 12.87 35 25.74 35 39 C34.67 39 34.34 39 34 39 C34 26.79 34 14.58 34 2 C23.44 2 12.88 2 2 2 C2 6.62 2 11.24 2 16 C3.14339844 15.98839844 4.28679687 15.97679687 5.46484375 15.96484375 C6.95572754 15.95546712 8.44661309 15.94636679 9.9375 15.9375 C11.06961914 15.92493164 11.06961914 15.92493164 12.22460938 15.91210938 C14.14994313 15.90347559 16.07535581 15.94775667 18 16 C19.79792975 17.79792975 19.25670277 20.38385204 19.3125 22.8125 C19.34988281 23.87082031 19.38726562 24.92914062 19.42578125 26.01953125 C18.90218252 29.68472236 17.91143868 30.78647328 15 33 C11.75 33.75 11.75 33.75 9 34 C11 32 11 32 16 30 C16.33 25.71 16.66 21.42 17 17 C11.39 17 5.78 17 0 17 C0 11.39 0 5.78 0 0 Z " fill="#193621" transform="translate(229,733)"/>
<path d="M0 0 C26.73 0 53.46 0 81 0 C81 0.33 81 0.66 81 1 C77.37 1.33 73.74 1.66 70 2 C70 2.33 70 2.66 70 3 C46.9 3 23.8 3 0 3 C0 2.01 0 1.02 0 0 Z " fill="#095936" transform="translate(544,374)"/>
<path d="M0 0 C3.63 0 7.26 0 11 0 C11 15.18 11 30.36 11 46 C8.03 46 5.06 46 2 46 C2 36.1 2 26.2 2 16 C2.33 16 2.66 16 3 16 C3 25.24 3 34.48 3 44 C4.98 44 6.96 44 9 44 C9 29.81 9 15.62 9 1 C6.36 1 3.72 1 1 1 C0.34 2.65 -0.32 4.3 -1 6 C-1.33 5.34 -1.66 4.68 -2 4 C-1.34 2.68 -0.68 1.36 0 0 Z " fill="#32931B" transform="translate(482,824)"/>
<path d="M0 0 C7.26 0.33 14.52 0.66 22 1 C22 1.33 22 1.66 22 2 C15.07 2 8.14 2 1 2 C1 4.31 1 6.62 1 9 C7.27 9 13.54 9 20 9 C20.09765625 17.49609375 20.09765625 17.49609375 20 20 C17.88074396 22.11925604 13.3803907 21.41831017 10.4375 21.5625 C9.63119141 21.60568359 8.82488281 21.64886719 7.99414062 21.69335938 C5.99631195 21.79975262 3.9981793 21.90040888 2 22 C1.67 23.65 1.34 25.3 1 27 C1.89307861 26.98428955 1.89307861 26.98428955 2.80419922 26.96826172 C5.49442343 26.92676051 8.18458037 26.90069296 10.875 26.875 C11.81214844 26.85824219 12.74929688 26.84148438 13.71484375 26.82421875 C14.61074219 26.81777344 15.50664063 26.81132813 16.4296875 26.8046875 C17.25710449 26.79421387 18.08452148 26.78374023 18.93701172 26.77294922 C21 27 21 27 23 29 C15.41 29 7.82 29 0 29 C0 25.7 0 22.4 0 19 C6.27 19 12.54 19 19 19 C19 16.03 19 13.06 19 10 C12.73 10 6.46 10 0 10 C0 6.7 0 3.4 0 0 Z " fill="#FEFCFB" transform="translate(597,832)"/>
<path d="M0 0 C0.66 0 1.32 0 2 0 C2 2.31 2 4.62 2 7 C7.94 7 13.88 7 20 7 C21.17353189 10.52059568 21.20146402 13.306493 21 17 C19 19 19 19 15.0859375 19.1953125 C13.51550649 19.18200376 11.94513779 19.15813602 10.375 19.125 C9.57320312 19.11597656 8.77140625 19.10695313 7.9453125 19.09765625 C5.96341477 19.07406223 3.98167019 19.03819065 2 19 C2 20.98 2 22.96 2 25 C8.6 25 15.2 25 22 25 C22.33 25.66 22.66 26.32 23 27 C15.41 27 7.82 27 0 27 C0 23.7 0 20.4 0 17 C6.27 17 12.54 17 19 17 C19 14.03 19 11.06 19 8 C12.73 8 6.46 8 0 8 C0 5.36 0 2.72 0 0 Z " fill="#FDFCF9" transform="translate(242,834)"/>
<path d="M0 0 C4.71346154 1.48846154 4.71346154 1.48846154 6.1640625 4.078125 C6.43992187 4.71234375 6.71578125 5.3465625 7 6 C5.90081184 6.98475214 4.7954398 7.96260473 3.6875 8.9375 C3.07261719 9.48277344 2.45773437 10.02804687 1.82421875 10.58984375 C-1.8156438 13.40352765 -5.26086317 13.10632809 -9.6875 13.0625 C-11.45673828 13.04896484 -11.45673828 13.04896484 -13.26171875 13.03515625 C-14.16535156 13.02355469 -15.06898438 13.01195312 -16 13 C-16 12.67 -16 12.34 -16 12 C-12.535 11.505 -12.535 11.505 -9 11 C-9 10.01 -9 9.02 -9 8 C-11.475 7.01 -11.475 7.01 -14 6 C-14 5.67 -14 5.34 -14 5 C-13.24074219 4.89042969 -12.48148437 4.78085937 -11.69921875 4.66796875 C-10.70535156 4.50941406 -9.71148437 4.35085938 -8.6875 4.1875 C-7.70136719 4.03667969 -6.71523438 3.88585937 -5.69921875 3.73046875 C-2.87300731 2.96563295 -1.8040872 2.24741238 0 0 Z " fill="#429C2E" transform="translate(353,857)"/>
<path d="M0 0 C9.24051161 -0.50199962 14.85436259 0.72050045 22 7 C20.71480435 9.86697492 19.42870746 11.97607712 17 14 C16.34 14 15.68 14 15 14 C15 13.34 15 12.68 15 12 C11.04485062 10.08621804 7.40297109 9.60707437 3.0859375 9.24609375 C1 9 1 9 -2 8 C0.97 7.34 3.94 6.68 7 6 C6.67 4.68 6.34 3.36 6 2 C3.03 1.505 3.03 1.505 0 1 C0 0.67 0 0.34 0 0 Z " fill="#439B2F" transform="translate(338,823)"/>
<path d="M0 0 C4.021875 -0.0928125 4.021875 -0.0928125 8.125 -0.1875 C8.95789551 -0.21481201 9.79079102 -0.24212402 10.64892578 -0.27026367 C15.51778899 -0.3242847 18.77136237 0.33131711 23 3 C26 6.3 26 6.3 26 9 C25.34 9 24.68 9 24 9 C23.525625 8.195625 23.05125 7.39125 22.5625 6.5625 C21.20016328 3.7081924 21.20016328 3.7081924 18 3 C15.26568283 2.77190557 12.55075247 2.5835729 9.8125 2.4375 C7.234375 2.293125 4.65625 2.14875 2 2 C2 8.93 2 15.86 2 23 C7.28 23 12.56 23 18 23 C17.67 23.66 17.34 24.32 17 25 C11.39 25 5.78 25 0 25 C0 16.75 0 8.5 0 0 Z " fill="#C9DACF" transform="translate(298,712)"/>
<path d="M0 0 C5.94 0 11.88 0 18 0 C18 2.31 18 4.62 18 7 C12.06 7 6.12 7 0 7 C0 4.69 0 2.38 0 0 Z " fill="#2C9217" transform="translate(284,845)"/>
<path d="M0 0 C0.721875 0.78375 1.44375 1.5675 2.1875 2.375 C4.88338845 4.89116255 6.64266391 5.72965661 10 7 C10.99 8.485 10.99 8.485 12 10 C11.375 11.9375 11.375 11.9375 10 14 C7.3125 15.0625 7.3125 15.0625 4 15 C1.2171999 13.76193792 -0.94345723 12.24969872 -3 10 C-3.9375 6.6875 -3.9375 6.6875 -4 4 C-3.01 4.33 -2.02 4.66 -1 5 C-0.67 3.35 -0.34 1.7 0 0 Z " fill="#50A23D" transform="translate(702,854)"/>
<path d="M0 0 C0.66 0 1.32 0 2 0 C2.02685095 2.47923801 2.04676547 4.9581884 2.0625 7.4375 C2.07087891 8.14455078 2.07925781 8.85160156 2.08789062 9.58007812 C2.09653588 11.38693559 2.05220011 13.19387603 2 15 C1 16 1 16 -2.05102539 16.11352539 C-3.39991271 16.11336634 -4.74880614 16.10767612 -6.09765625 16.09765625 C-7.16094398 16.09553383 -7.16094398 16.09553383 -8.24571228 16.09336853 C-10.51801712 16.08775443 -12.79022475 16.07519963 -15.0625 16.0625 C-16.59960796 16.05748681 -18.13671745 16.05292359 -19.67382812 16.04882812 C-23.44928667 16.0386297 -27.22453404 16.01905732 -31 16 C-31.33 21.61 -31.66 27.22 -32 33 C-32.33 33 -32.66 33 -33 33 C-33 26.73 -33 20.46 -33 14 C-22.11 14 -11.22 14 0 14 C0 9.38 0 4.76 0 0 Z " fill="#C9D9CD" transform="translate(913,733)"/>
<path d="M0 0 C1.60294922 0.01353516 1.60294922 0.01353516 3.23828125 0.02734375 C4.04652344 0.03894531 4.85476563 0.05054688 5.6875 0.0625 C5.6875 1.7125 5.6875 3.3625 5.6875 5.0625 C-3.5525 5.0625 -12.7925 5.0625 -22.3125 5.0625 C-22.3125 4.7325 -22.3125 4.4025 -22.3125 4.0625 C-18.6825 4.0625 -15.0525 4.0625 -11.3125 4.0625 C-11.3125 3.0725 -11.3125 2.0825 -11.3125 1.0625 C-7.47525828 0.15836327 -3.93747726 -0.04326898 0 0 Z " fill="#57A543" transform="translate(779.3125,862.9375)"/>
<path d="M0 0 C1.30469238 -0.0009668 1.30469238 -0.0009668 2.63574219 -0.00195312 C9.68690506 0.0553946 16.39284385 0.77326371 23.3125 2.1875 C23.3125 2.5175 23.3125 2.8475 23.3125 3.1875 C10.1125 3.1875 -3.0875 3.1875 -16.6875 3.1875 C-17.0175 3.8475 -17.3475 4.5075 -17.6875 5.1875 C-18.0175 4.1975 -18.3475 3.2075 -18.6875 2.1875 C-15.2143531 -1.2856469 -4.7030481 -0.0036303 0 0 Z " fill="#399522" transform="translate(409.6875,229.8125)"/>
<path d="M0 0 C0.33 0 0.66 0 1 0 C1 5.61 1 11.22 1 17 C6.61 17 12.22 17 18 17 C18.1953125 24.6171875 18.1953125 24.6171875 18 27 C17.34 27.66 16.68 28.32 16 29 C16 25.7 16 22.4 16 19 C14.39318359 19.01740234 14.39318359 19.01740234 12.75390625 19.03515625 C11.35677257 19.04453299 9.95963701 19.05363331 8.5625 19.0625 C7.85544922 19.07087891 7.14839844 19.07925781 6.41992188 19.08789062 C4.61306441 19.09653588 2.80612397 19.05220011 1 19 C0 18 0 18 -0.11352539 16.23413086 C-0.10828857 15.48526611 -0.10305176 14.73640137 -0.09765625 13.96484375 C-0.09443359 13.15595703 -0.09121094 12.34707031 -0.08789062 11.51367188 C-0.07951172 10.66353516 -0.07113281 9.81339844 -0.0625 8.9375 C-0.05798828 8.08349609 -0.05347656 7.22949219 -0.04882812 6.34960938 C-0.03700373 4.23304337 -0.01906769 2.11651315 0 0 Z " fill="#F9FBF6" transform="translate(228,733)"/>
<path d="M0 0 C3.51973101 3.25901019 6.52760275 6.8860931 9 11 C9 11.66 9 12.32 9 13 C1.74 13 -5.52 13 -13 13 C-13 12.34 -13 11.68 -13 11 C-7.06 10.67 -1.12 10.34 5 10 C4.175 8.72125 3.35 7.4425 2.5 6.125 C0 2.25 0 2.25 0 0 Z " fill="#244530" transform="translate(339,770)"/>
<path d="M0 0 C4.95 0 9.9 0 15 0 C15 1.32 15 2.64 15 4 C10.05 4 5.1 4 0 4 C0 2.68 0 1.36 0 0 Z " fill="#57A543" transform="translate(285,847)"/>
<path d="M0 0 C5.12782839 4.50627344 8.68159947 10.06130626 12 16 C12 16.66 12 17.32 12 18 C10.3973218 18.10824843 8.79254252 18.18570645 7.1875 18.25 C6.29417969 18.29640625 5.40085937 18.3428125 4.48046875 18.390625 C2 18 2 18 0.11328125 16.171875 C-0.25410156 15.45515625 -0.62148438 14.7384375 -1 14 C-0.67 13.01 -0.34 12.02 0 11 C0.66 12.65 1.32 14.3 2 16 C5.465 15.505 5.465 15.505 9 15 C8.3503125 14.08476563 7.700625 13.16953125 7.03125 12.2265625 C6.18725492 11.02621395 5.34351827 9.82568366 4.5 8.625 C4.07074219 8.02171875 3.64148438 7.4184375 3.19921875 6.796875 C0 2.2265625 0 2.2265625 0 0 Z " fill="#3A9527" transform="translate(664,852)"/>
<path d="M0 0 C0.33 0 0.66 0 1 0 C1.05534912 0.64026123 1.11069824 1.28052246 1.16772461 1.94018555 C1.42144165 4.8562154 1.67942949 7.77185234 1.9375 10.6875 C2.02451172 11.69490234 2.11152344 12.70230469 2.20117188 13.74023438 C2.28818359 14.71669922 2.37519531 15.69316406 2.46484375 16.69921875 C2.543396 17.59471436 2.62194824 18.49020996 2.70288086 19.4128418 C2.9980463 21.98298823 3.45612236 24.47186549 4 27 C2 26 2 26 1.1484375 23.953125 C-0.86095289 16.93040708 -3.44015001 6.88030002 0 0 Z " fill="#0A371B" transform="translate(573,589)"/>
<path d="M0 0 C3.82097239 0.53069061 6.06171403 1.49701566 9 4 C7.25 7.875 7.25 7.875 5 9 C4.34 8.67 3.68 8.34 3 8 C3 7.34 3 6.68 3 6 C2.34 6 1.68 6 1 6 C0.67 4.02 0.34 2.04 0 0 Z " fill="#56A541" transform="translate(723,826)"/>
<path d="M0 0 C0.66 0.33 1.32 0.66 2 1 C1.14535156 1.81984375 0.29070313 2.6396875 -0.58984375 3.484375 C-1.70612302 4.57251277 -2.82198686 5.66107684 -3.9375 6.75 C-4.50146484 7.28882812 -5.06542969 7.82765625 -5.64648438 8.3828125 C-6.18466797 8.91132812 -6.72285156 9.43984375 -7.27734375 9.984375 C-7.77484131 10.46616211 -8.27233887 10.94794922 -8.78491211 11.44433594 C-10.20308499 13.26000754 -10.49265012 14.77776162 -11 17 C-13.18756193 18.69968841 -15.51476437 19.73478913 -18 21 C-16.30636743 16.734555 -13.22622172 13.7797093 -10.125 10.5 C-9.59519531 9.93152344 -9.06539062 9.36304687 -8.51953125 8.77734375 C-5.73245525 5.79662476 -2.90692035 2.86479107 0 0 Z " fill="#30911C" transform="translate(528,112)"/>
<path d="M0 0 C6.27 0 12.54 0 19 0 C18.67 2.97 18.34 5.94 18 9 C17.67 9 17.34 9 17 9 C17 6.69 17 4.38 17 2 C11.39 2 5.78 2 0 2 C0 1.34 0 0.68 0 0 Z " fill="#2D4A35" transform="translate(360,695)"/>
<path d="M0 0 C0.33 1.32 0.66 2.64 1 4 C-5.27 4 -11.54 4 -18 4 C-17.67 3.01 -17.34 2.02 -17 1 C-11.39 1.33 -5.78 1.66 0 2 C0 1.34 0 0.68 0 0 Z " fill="#2D4B36" transform="translate(123,779)"/>
<path d="M0 0 C0.33 0 0.66 0 1 0 C1.33 2.31 1.66 4.62 2 7 C2.33 7 2.66 7 3 7 C3 10.63 3 14.26 3 18 C2.34 18 1.68 18 1 18 C-0.2890625 16.46875 -0.2890625 16.46875 -1.625 14.5 C-2.07101562 13.8503125 -2.51703125 13.200625 -2.9765625 12.53125 C-3.31429687 12.0259375 -3.65203125 11.520625 -4 11 C-3.67 10.34 -3.34 9.68 -3 9 C-2.34 9.66 -1.68 10.32 -1 11 C-0.67 7.37 -0.34 3.74 0 0 Z " fill="#E8EDE4" transform="translate(520,307)"/>
<path d="M0 0 C0.33 0 0.66 0 1 0 C0.67 4.62 0.34 9.24 0 14 C-0.66 14 -1.32 14 -2 14 C-2.12375 14.804375 -2.2475 15.60875 -2.375 16.4375 C-2.684375 17.7059375 -2.684375 17.7059375 -3 19 C-3.66 19.33 -4.32 19.66 -5 20 C-3.33333333 13.33333333 -1.66666667 6.66666667 0 0 Z " fill="#E2EBE3" transform="translate(690,419)"/>
<path d="M0 0 C-1.65 0.33 -3.3 0.66 -5 1 C-5.33 1.99 -5.66 2.98 -6 4 C-11.46511628 9 -11.46511628 9 -14 9 C-11.83249022 3.14772361 -6.25484031 -1.87645209 0 0 Z " fill="#399727" transform="translate(337,825)"/>
<path d="M0 0 C1.92275982 3.24800861 2.29702176 5.74394754 2.3125 9.5 C2.33763672 10.90765625 2.33763672 10.90765625 2.36328125 12.34375 C1.94768059 15.38255053 1.01958576 16.74062173 -1 19 C-1.02690104 16.20826945 -1.04679053 13.41679652 -1.0625 10.625 C-1.07087891 9.8309375 -1.07925781 9.036875 -1.08789062 8.21875 C-1.11328125 2.2265625 -1.11328125 2.2265625 0 0 Z " fill="#459B3D" transform="translate(540,235)"/>
<path d="M0 0 C0.33 0.66 0.66 1.32 1 2 C1.66 2 2.32 2 3 2 C3.17835515 6.54805635 2.99785435 9.8794254 1 14 C0.34 13.67 -0.32 13.34 -1 13 C-0.67 8.71 -0.34 4.42 0 0 Z " fill="#EBEDE5" transform="translate(704,360)"/>
<path d="M0 0 C2.49361571 1.20381448 4.68143083 2.45428722 7 4 C8.65549531 4.38499891 10.3222433 4.72793135 12 5 C12 5.66 12 6.32 12 7 C14.97 7.495 14.97 7.495 18 8 C18 8.66 18 9.32 18 10 C10.90526956 8.34262445 5.38057797 6.01986883 0 1 C0 0.67 0 0.34 0 0 Z " fill="#0E3119" transform="translate(587,629)"/>
<path d="M0 0 C0.66 0.66 1.32 1.32 2 2 C0.989375 2.061875 -0.02125 2.12375 -1.0625 2.1875 C-5.67383674 2.80861883 -8.41324628 5.14523684 -12 8 C-10.546875 2.4296875 -10.546875 2.4296875 -8.25 0.625 C-5.37690608 -0.17308164 -2.96721335 -0.25801855 0 0 Z " fill="#ECF1E2" transform="translate(719,831)"/>
<path d="M0 0 C0 3 0 3 -1.875 4.9375 C-2.57625 5.618125 -3.2775 6.29875 -4 7 C-5.23512079 9.13309192 -5.23512079 9.13309192 -6 11 C-6.66 11 -7.32 11 -8 11 C-8.66 12.98 -9.32 14.96 -10 17 C-11 14 -11 14 -9.9609375 11.9140625 C-6.92504295 7.53220485 -3.9440309 3.59602817 0 0 Z " fill="#082A11" transform="translate(204,703)"/>
<path d="M0 0 C1.32988011 3.98964032 0.35283549 6.11426937 -0.8125 10.125 C-1.16957031 11.38570313 -1.52664063 12.64640625 -1.89453125 13.9453125 C-3 17 -3 17 -5 18 C-4.71311275 10.99995111 -3.49595688 6.08973134 0 0 Z " fill="#0A3118" transform="translate(678,460)"/>
<path d="M0 0 C2.00993705 3.01490557 2.72623341 5.2149927 3.625 8.6875 C3.88539063 9.68136719 4.14578125 10.67523438 4.4140625 11.69921875 C4.60742188 12.45847656 4.80078125 13.21773438 5 14 C4.34 14 3.68 14 3 14 C-1.69097481 5.56043372 -1.69097481 5.56043372 -1 1 C-0.67 0.67 -0.34 0.34 0 0 Z " fill="#E6EEE7" transform="translate(332,342)"/>
<path d="M0 0 C-2.5980237 3.31969695 -4.93658046 3.45300122 -9 4 C-11.35501156 4.60530418 -13.67022414 5.30106724 -16 6 C-13.63078826 3.28787603 -11.32893261 2.07761003 -8 0.75 C-7.13375 0.39421875 -6.2675 0.0384375 -5.375 -0.328125 C-3 -1 -3 -1 0 0 Z " fill="#094527" transform="translate(623,268)"/>
<path d="M0 0 C2.5 1.25 2.5 1.25 5 3 C5 7 5 7 3.5 8.75 C2.7575 9.36875 2.7575 9.36875 2 10 C0 9 0 9 -1 6 C0.32 5.34 1.64 4.68 3 4 C2.01 3.34 1.02 2.68 0 2 C0 1.34 0 0.68 0 0 Z " fill="#399626" transform="translate(354,857)"/>
<path d="M0 0 C4.95 0 9.9 0 15 0 C13.02 0.99 13.02 0.99 11 2 C10.67 2.33 10.34 2.66 10 3 C8.31391034 3.07205511 6.62499341 3.08386068 4.9375 3.0625 C4.01839844 3.05347656 3.09929687 3.04445313 2.15234375 3.03515625 C1.44207031 3.02355469 0.73179687 3.01195312 0 3 C0 2.01 0 1.02 0 0 Z " fill="#EEEFE6" transform="translate(228,784)"/>
<path d="M0 0 C4.62 0 9.24 0 14 0 C12.02 0.99 12.02 0.99 10 2 C9.67 2.33 9.34 2.66 9 3 C7.31391034 3.07205511 5.62499341 3.08386068 3.9375 3.0625 C3.01839844 3.05347656 2.09929688 3.04445313 1.15234375 3.03515625 C0.44207031 3.02355469 -0.26820313 3.01195312 -1 3 C-0.67 2.01 -0.34 1.02 0 0 Z " fill="#EDEEE5" transform="translate(510,784)"/>
<path d="M0 0 C2.53926173 1.82671379 4.9050512 3.66877878 7 6 C7.4375 9.375 7.4375 9.375 7 12 C5.66104368 10.33784732 4.32869858 8.67036393 3 7 C2.4225 6.29875 1.845 5.5975 1.25 4.875 C0 3 0 3 0 0 Z " fill="#EFF3EC" transform="translate(330,753)"/>
<path d="M0 0 C-1.2065625 0.185625 -1.2065625 0.185625 -2.4375 0.375 C-3.283125 0.58125 -4.12875 0.7875 -5 1 C-5.33 1.66 -5.66 2.32 -6 3 C-7.64142963 4.0409066 -9.30712215 5.04504326 -11 6 C-11.66 5.34 -12.32 4.68 -13 4 C-4.95935583 -1.53911043 -4.95935583 -1.53911043 0 0 Z " fill="#09311A" transform="translate(424,697)"/>
<path d="M0 0 C0 0.66 0 1.32 0 2 C-2.64738916 3.4606285 -3.89448334 4 -7 4 C-7 4.66 -7 5.32 -7 6 C-8.65 6.33 -10.3 6.66 -12 7 C-12 6.01 -12 5.02 -12 4 C-10.3767313 3.3291288 -8.75132422 2.66342971 -7.125 2 C-6.22007812 1.62875 -5.31515625 1.2575 -4.3828125 0.875 C-2 0 -2 0 0 0 Z " fill="#EAF1E9" transform="translate(465,634)"/>
<path d="M0 0 C1.64846769 0.44876616 3.29373455 0.90930488 4.9375 1.375 C5.85402344 1.63023437 6.77054687 1.88546875 7.71484375 2.1484375 C10 3 10 3 11 5 C8 6 8 6 5 6 C3.0750353 4.17806158 1.62464469 2.10764717 0 0 Z " fill="#054126" transform="translate(438,262)"/>
<path d="M0 0 C1.75 3.0625 1.75 3.0625 3 6 C0.03 5.505 0.03 5.505 -3 5 C-3 3.68 -3 2.36 -3 1 C-4.32 0.67 -5.64 0.34 -7 0 C-2.90909091 -1.36363636 -2.90909091 -1.36363636 0 0 Z " fill="#EDEFE8" transform="translate(812,755)"/>
<path d="M0 0 C0.33 0 0.66 0 1 0 C1.33 5.94 1.66 11.88 2 18 C1.01 18 0.02 18 -1 18 C-0.505 9.09 -0.505 9.09 0 0 Z " fill="#B9D2C2" transform="translate(369,538)"/>
<path d="M0 0 C2 1.625 2 1.625 4 4 C4.25 7.25 4.25 7.25 4 10 C3.01 10.495 3.01 10.495 2 11 C0.57741188 7.17679443 -0.24042276 4.08718695 0 0 Z " fill="#EBF1E8" transform="translate(395,441)"/>
<path d="M0 0 C0.33 0 0.66 0 1 0 C1.08078641 2.12438339 1.13909141 4.2496323 1.1875 6.375 C1.22230469 7.55835938 1.25710938 8.74171875 1.29296875 9.9609375 C1.19628906 10.96382813 1.09960938 11.96671875 1 13 C0.01 13.66 -0.98 14.32 -2 15 C-1.85930804 12.87465341 -1.71229079 10.74972471 -1.5625 8.625 C-1.48128906 7.44164062 -1.40007813 6.25828125 -1.31640625 5.0390625 C-1 2 -1 2 0 0 Z " fill="#43972E" transform="translate(555,300)"/>
<path d="M0 0 C-4.84060277 3.06242216 -8.29290936 4.53411505 -14 5 C-11.77810176 2.77810176 -9.91517292 2.07401108 -7 1 C-7 0.67 -7 0.34 -7 0 C-2.25 -1.125 -2.25 -1.125 0 0 Z " fill="#072C13" transform="translate(751,778)"/>
<path d="M0 0 C0.33 0 0.66 0 1 0 C1.3690205 9.41002278 1.3690205 9.41002278 -1 14 C-1.66 13.67 -2.32 13.34 -3 13 C-2.01 8.71 -1.02 4.42 0 0 Z " fill="#E8EFE7" transform="translate(702,375)"/>
<path d="M0 0 C1.45922693 0.11409593 2.91740598 0.24165544 4.375 0.375 C5.59316406 0.47941406 5.59316406 0.47941406 6.8359375 0.5859375 C9 1 9 1 11 3 C6.8725485 3 3.084979 2.54466387 -1 2 C-0.67 1.34 -0.34 0.68 0 0 Z " fill="#E8EFE0" transform="translate(397,831)"/>
<path d="M0 0 C0.33 0.66 0.66 1.32 1 2 C3.01669827 3.13350534 3.01669827 3.13350534 5 4 C4.67 4.66 4.34 5.32 4 6 C1.03 5.505 1.03 5.505 -2 5 C-1.34 3.35 -0.68 1.7 0 0 Z " fill="#57A542" transform="translate(353,857)"/>
<path d="M0 0 C-1.44472346 3.80881639 -3.32603071 5.29742886 -7 7 C-7.99 6.67 -8.98 6.34 -10 6 C-8.71283353 4.99421411 -7.42011342 3.99553202 -6.125 3 C-5.40570313 2.443125 -4.68640625 1.88625 -3.9453125 1.3125 C-2 0 -2 0 0 0 Z " fill="#F8FAF5" transform="translate(463,775)"/>
<path d="M0 0 C2.49505962 2.49505962 2.35948376 3.67328888 2.625 7.125 C2.69976562 8.03507813 2.77453125 8.94515625 2.8515625 9.8828125 C2.92503906 10.93082031 2.92503906 10.93082031 3 12 C0.70423322 9.70423322 -0.0638375 8.09653751 -1 5 C-0.625 2.1875 -0.625 2.1875 0 0 Z " fill="#07331A" transform="translate(153,732)"/>
<path d="M0 0 C0.99 0 1.98 0 3 0 C4.125 7.75 4.125 7.75 3 10 C0 3.375 0 3.375 0 0 Z " fill="#104F2E" transform="translate(383,414)"/>
<path d="M0 0 C3.1875 -0.4375 3.1875 -0.4375 7 0 C9.11158381 2.08545034 10.56739143 4.41206193 12 7 C11.01 7.495 11.01 7.495 10 8 C9.278125 7.030625 8.55625 6.06125 7.8125 5.0625 C5.86762407 2.70086494 5.2117465 2.06587669 2.1875 1.125 C1.465625 1.08375 0.74375 1.0425 0 1 C0 0.67 0 0.34 0 0 Z " fill="#DFEADD" transform="translate(494,322)"/>
<path d="M0 0 C0 3.20395416 -0.74335022 5.09399739 -2 8 C-2.99 8 -3.98 8 -5 8 C-5.33 8.99 -5.66 9.98 -6 11 C-6.33 10.34 -6.66 9.68 -7 9 C-4.69 6.03 -2.38 3.06 0 0 Z " fill="#072E13" transform="translate(551,318)"/>
<path d="M0 0 C1.10740461 3.32221382 0.97233311 5.64103108 0 9 C-0.66 9.66 -1.32 10.32 -2 11 C-1.85957123 9.35369672 -1.71250671 7.70795821 -1.5625 6.0625 C-1.48128906 5.14597656 -1.40007812 4.22945312 -1.31640625 3.28515625 C-1 1 -1 1 0 0 Z " fill="#3C9928" transform="translate(489,170)"/>
<path d="M0 0 C-2.95711562 1.64284201 -5.62008426 2.6442194 -9 3 C-9.66 2.34 -10.32 1.68 -11 1 C-7.2297564 -1.56376565 -4.32597804 -0.83191885 0 0 Z " fill="#EDEFE7" transform="translate(435,713)"/>
<path d="M0 0 C-1.13499394 3.29148243 -1.99283376 3.9959869 -5.125 5.75 C-6.548125 6.36875 -6.548125 6.36875 -8 7 C-6.13932792 2.84926997 -4.83061881 0 0 0 Z " fill="#3A9628" transform="translate(518,126)"/>
<path d="M0 0 C2.5654594 2.5654594 2.54046087 4.47686668 3 8 C2.01 8 1.02 8 0 8 C-1.125 2.25 -1.125 2.25 0 0 Z " fill="#EFF1E8" transform="translate(355,312)"/>
<path d="M0 0 C0.99 0.495 0.99 0.495 2 1 C2 1.66 2 2.32 2 3 C3.32 2.67 4.64 2.34 6 2 C5.34 3.65 4.68 5.3 4 7 C3.34 7 2.68 7 2 7 C0.5393715 4.35261084 0 3.10551666 0 0 Z " fill="#EBF2E3" transform="translate(537,841)"/>
<path d="M0 0 C0.66 0.33 1.32 0.66 2 1 C0.55746343 4.36591866 -1.33264727 6.51047079 -4 9 C-3.38461538 3.46153846 -3.38461538 3.46153846 -1.4375 1.125 C-0.963125 0.75375 -0.48875 0.3825 0 0 Z " fill="#FCFAF8" transform="translate(708,834)"/>
<path d="M0 0 C0.33 2.97 0.66 5.94 1 9 C-3 4.375 -3 4.375 -3 1 C-1 0 -1 0 0 0 Z " fill="#EBF0E9" transform="translate(603,599)"/>
<path d="M0 0 C2.09350689 3.4019487 2.17942163 6.05272412 2 10 C-0.77867692 7.22132308 -0.65193902 4.8286708 -1 1 C-0.67 0.67 -0.34 0.34 0 0 Z " fill="#0A3A1E" transform="translate(350,390)"/>
<path d="M0 0 C1.65322266 0.01740234 1.65322266 0.01740234 3.33984375 0.03515625 C4.99693359 0.04869141 4.99693359 0.04869141 6.6875 0.0625 C7.54214844 0.07410156 8.39679688 0.08570313 9.27734375 0.09765625 C9.27734375 0.42765625 9.27734375 0.75765625 9.27734375 1.09765625 C8.49488281 1.14664063 7.71242188 1.195625 6.90625 1.24609375 C5.89433594 1.32085937 4.88242187 1.395625 3.83984375 1.47265625 C2.83050781 1.54226562 1.82117188 1.611875 0.78125 1.68359375 C-0.45818359 1.88855469 -0.45818359 1.88855469 -1.72265625 2.09765625 C-2.05265625 2.75765625 -2.38265625 3.41765625 -2.72265625 4.09765625 C-3.05265625 3.10765625 -3.38265625 2.11765625 -3.72265625 1.09765625 C-2.72265625 0.09765625 -2.72265625 0.09765625 0 0 Z " fill="#268911" transform="translate(394.72265625,230.90234375)"/>
<path d="M0 0 C3.11198065 1.49836105 6.0534615 3.19933758 9 5 C8.01 5.495 8.01 5.495 7 6 C4.5249829 4.88568235 2.32116581 3.41849022 0 2 C0 1.34 0 0.68 0 0 Z " fill="#E4EDE6" transform="translate(218,760)"/>
<path d="M0 0 C2.64 0.33 5.28 0.66 8 1 C8 1.99 8 2.98 8 4 C5.69 3.67 3.38 3.34 1 3 C0.67 2.01 0.34 1.02 0 0 Z " fill="#F0F2E4" transform="translate(465,320)"/>
</svg>
